<?xml version="1.0" encoding="utf-8"?>
<!-- Generator: Adobe Illustrator 16.0.0, SVG Export Plug-In . SVG Version: 6.00 Build 0)  -->
<!DOCTYPE svg PUBLIC "-//W3C//DTD SVG 1.1//EN" "http://www.w3.org/Graphics/SVG/1.1/DTD/svg11.dtd">
<svg version="1.1" xmlns="http://www.w3.org/2000/svg" xmlns:xlink="http://www.w3.org/1999/xlink" x="0px" y="0px" width="256px"
	 height="190.826px" viewBox="0 0 256 190.826" enable-background="new 0 0 256 190.826" xml:space="preserve">
<g id="Calque_1">
	<rect id="cadre" fill="#3F88C6" width="256" height="190.826"/>
</g>
<g id="Calque_2_1_">
	<g id="a6">
		<path fill="#1A3B6D" d="M94.737-0.691c-0.591-0.341-1.108-0.46-1.802-0.462c-1.164-0.009-2.354,0.451-3.522,1.348
			c-0.846,0.65-1.404,1.404-1.733,2.265c-0.164,0.436-0.201,0.686-0.21,1.097c-0.016,0.739,0.177,1.338,0.605,1.779
			c0.245,0.243,0.463,0.375,0.862,0.502c1.405,0.488,3.133,0.097,4.601-1.008c0.62-0.465,1.357-1.272,1.665-1.85
			c0.538-0.948,0.623-2.051,0.208-2.895C95.295-0.183,94.965-0.584,94.737-0.691z"/>
		<path fill="#1A3B6D" d="M88.502-6.859c-0.834-0.433-1.974-0.339-2.957,0.226c-0.131,0.076-0.427,0.291-0.664,0.504
			c-1.387,1.152-2.265,2.884-2.261,4.49c0.004,0.638,0.169,1.374,0.446,1.836c0.377,0.655,1.359,1.057,2.277,0.914
			c0.875-0.144,1.655-0.563,2.414-1.319c0.462-0.449,0.766-0.841,1.091-1.375c0.903-1.53,1.085-3.082,0.477-4.382
			C89.174-6.276,88.766-6.715,88.502-6.859z"/>
		<path fill="#1A3B6D" d="M93.446,8.142c-0.732-0.485-1.771-0.679-2.751-0.542c-0.979,0.137-1.878,0.515-2.766,1.163
			c-0.499,0.363-0.669,0.536-0.942,0.905c-0.425,0.586-0.664,1.225-0.684,1.854c-0.004,0.43,0.089,0.746,0.261,1.06
			c0.414,0.741,1.419,1.245,2.545,1.31c0.746,0.033,1.821-0.215,2.563-0.578c0.691-0.343,1.443-0.923,1.849-1.409
			c0.379-0.455,0.654-1.058,0.763-1.571c0.043-0.192,0.042-0.629,0.009-0.849C94.261,8.969,93.929,8.468,93.446,8.142z"/>
		<path fill="#1A3B6D" d="M79.812-5.077c-0.748-0.571-1.677-0.647-2.474-0.221c-0.606,0.346-1.146,0.807-1.547,1.352
			c-0.749,0.976-1.158,2.135-1.165,3.277c-0.015,0.79,0.131,1.379,0.446,2.031c0.39,0.782,1.042,1.169,1.905,1.142
			c0.762-0.025,1.305-0.284,2.053-0.975c0.331-0.322,0.448-0.433,0.666-0.738c0.708-0.979,1.054-2.04,1.069-3.217
			c0.009-0.796-0.139-1.538-0.395-2C80.248-4.619,79.936-4.977,79.812-5.077z"/>
		<path fill="#1A3B6D" d="M83.109,4.991c-1.372-1.082-3.271-1.585-5.036-1.332c-1.498,0.213-2.88,0.601-4.09,1.161
			c-0.823,0.367-1.79,0.966-2.109,1.273c-0.706,0.694-0.971,1.853-0.611,2.709c0.142,0.337,0.384,0.672,0.692,0.919
			c0.521,0.463,0.95,0.709,2.168,1.286c1.327,0.591,1.629,0.78,2.27,1.283c0.878,0.689,1.27,1.328,1.918,2.968
			c0.566,1.441,0.727,1.729,1.135,2.167c0.781,0.791,1.833,1.021,2.669,0.587c0.317-0.164,0.892-0.73,1.095-1.07
			c0.526-0.832,0.91-1.807,1.198-3.006c0.65-2.664,0.787-4.369,0.484-5.961c-0.118-0.713-0.356-1.284-0.732-1.838
			C83.977,5.847,83.384,5.211,83.109,4.991z"/>
	</g>
	<g id="a5">
		<path fill="#1A3B6D" d="M90.888,33.932c-0.591-0.341-1.108-0.459-1.802-0.463c-1.164-0.009-2.354,0.451-3.522,1.349
			c-0.846,0.65-1.403,1.403-1.734,2.265c-0.163,0.436-0.2,0.685-0.21,1.097c-0.015,0.737,0.177,1.338,0.606,1.778
			c0.245,0.243,0.463,0.376,0.862,0.502c1.406,0.488,3.133,0.098,4.601-1.008c0.619-0.464,1.357-1.272,1.665-1.85
			c0.537-0.947,0.623-2.051,0.207-2.895C91.447,34.439,91.116,34.039,90.888,33.932z"/>
		<path fill="#1A3B6D" d="M84.653,27.764c-0.833-0.433-1.974-0.34-2.956,0.226c-0.131,0.075-0.427,0.291-0.664,0.503
			c-1.388,1.153-2.266,2.885-2.262,4.491c0.004,0.638,0.17,1.372,0.446,1.836c0.377,0.655,1.359,1.057,2.277,0.915
			c0.875-0.145,1.655-0.563,2.415-1.321c0.462-0.448,0.765-0.84,1.091-1.374c0.903-1.53,1.085-3.081,0.477-4.381
			C85.325,28.346,84.917,27.908,84.653,27.764z"/>
		<path fill="#1A3B6D" d="M89.597,42.765c-0.732-0.484-1.771-0.679-2.751-0.542c-0.979,0.138-1.878,0.515-2.766,1.163
			c-0.498,0.362-0.669,0.536-0.941,0.904c-0.425,0.587-0.665,1.226-0.685,1.855c-0.003,0.428,0.089,0.745,0.262,1.059
			c0.414,0.741,1.419,1.246,2.545,1.311c0.746,0.032,1.822-0.216,2.564-0.579c0.691-0.342,1.443-0.923,1.849-1.408
			c0.379-0.454,0.654-1.059,0.763-1.571c0.042-0.192,0.042-0.629,0.01-0.85C90.413,43.592,90.08,43.091,89.597,42.765z"/>
		<path fill="#1A3B6D" d="M75.962,29.546c-0.748-0.57-1.676-0.648-2.473-0.221c-0.607,0.347-1.146,0.808-1.548,1.353
			c-0.749,0.976-1.157,2.135-1.165,3.277c-0.014,0.789,0.132,1.378,0.447,2.03c0.39,0.782,1.041,1.17,1.905,1.142
			c0.762-0.025,1.304-0.284,2.052-0.974c0.332-0.323,0.449-0.434,0.666-0.738c0.708-0.979,1.055-2.041,1.069-3.217
			c0.01-0.797-0.138-1.538-0.394-2C76.399,30.004,76.086,29.646,75.962,29.546z"/>
		<path fill="#1A3B6D" d="M79.259,39.614c-1.371-1.082-3.271-1.585-5.035-1.332c-1.498,0.213-2.88,0.602-4.09,1.16
			c-0.823,0.367-1.791,0.968-2.108,1.273c-0.707,0.694-0.971,1.854-0.612,2.709c0.142,0.338,0.384,0.673,0.692,0.919
			c0.521,0.464,0.949,0.71,2.168,1.286c1.326,0.592,1.629,0.78,2.269,1.283c0.879,0.689,1.271,1.328,1.918,2.968
			c0.566,1.441,0.728,1.729,1.135,2.167c0.78,0.792,1.833,1.021,2.668,0.588c0.317-0.164,0.893-0.73,1.096-1.07
			c0.525-0.832,0.909-1.807,1.197-3.006c0.651-2.665,0.788-4.37,0.485-5.962c-0.117-0.714-0.357-1.283-0.732-1.839
			C80.128,40.47,79.535,39.834,79.259,39.614z"/>
	</g>
	<g id="a4">
		<path fill="#1A3B6D" d="M48.037,51.454c-0.591-0.341-1.108-0.46-1.802-0.463c-1.164-0.009-2.354,0.451-3.521,1.349
			c-0.846,0.65-1.404,1.403-1.734,2.265c-0.164,0.436-0.201,0.685-0.21,1.096c-0.015,0.739,0.177,1.339,0.605,1.78
			c0.245,0.242,0.463,0.375,0.862,0.502c1.406,0.487,3.133,0.097,4.601-1.009c0.62-0.465,1.357-1.272,1.664-1.85
			c0.538-0.947,0.623-2.051,0.208-2.895C48.596,51.963,48.266,51.562,48.037,51.454z"/>
		<path fill="#1A3B6D" d="M41.803,45.286c-0.834-0.432-1.974-0.339-2.956,0.226c-0.132,0.076-0.428,0.292-0.665,0.504
			c-1.387,1.152-2.265,2.885-2.261,4.49c0.004,0.639,0.169,1.374,0.446,1.837c0.377,0.655,1.359,1.057,2.277,0.914
			c0.875-0.145,1.655-0.563,2.415-1.319c0.462-0.449,0.765-0.841,1.091-1.375c0.903-1.529,1.085-3.081,0.477-4.381
			C42.474,45.869,42.066,45.431,41.803,45.286z"/>
		<path fill="#1A3B6D" d="M46.746,60.287c-0.732-0.485-1.771-0.679-2.751-0.542c-0.979,0.138-1.878,0.516-2.766,1.163
			c-0.499,0.363-0.669,0.535-0.942,0.904c-0.426,0.587-0.664,1.226-0.685,1.854c-0.004,0.43,0.089,0.746,0.261,1.06
			c0.414,0.741,1.419,1.245,2.545,1.311c0.746,0.032,1.821-0.216,2.563-0.578c0.691-0.344,1.443-0.923,1.849-1.409
			c0.379-0.455,0.654-1.059,0.763-1.571c0.043-0.192,0.042-0.629,0.009-0.849C47.562,61.115,47.23,60.613,46.746,60.287z"/>
		<path fill="#1A3B6D" d="M33.112,47.068c-0.748-0.57-1.677-0.647-2.474-0.221c-0.606,0.346-1.145,0.807-1.547,1.352
			c-0.749,0.977-1.158,2.136-1.165,3.277c-0.014,0.79,0.131,1.379,0.446,2.03c0.39,0.782,1.042,1.169,1.904,1.143
			c0.762-0.025,1.305-0.284,2.053-0.976c0.331-0.322,0.448-0.433,0.666-0.738c0.708-0.979,1.055-2.039,1.069-3.216
			c0.01-0.797-0.139-1.538-0.395-2C33.548,47.526,33.236,47.169,33.112,47.068z"/>
		<path fill="#1A3B6D" d="M36.409,57.137c-1.372-1.082-3.271-1.585-5.035-1.332c-1.498,0.213-2.88,0.601-4.091,1.16
			c-0.823,0.367-1.79,0.967-2.109,1.274c-0.706,0.693-0.97,1.852-0.611,2.708c0.142,0.337,0.385,0.673,0.692,0.919
			c0.521,0.464,0.95,0.709,2.168,1.286c1.327,0.591,1.629,0.78,2.27,1.283c0.878,0.689,1.27,1.328,1.918,2.968
			c0.566,1.44,0.727,1.729,1.135,2.168c0.781,0.791,1.833,1.02,2.669,0.586c0.317-0.164,0.892-0.729,1.095-1.069
			c0.525-0.832,0.909-1.808,1.198-3.007c0.65-2.663,0.787-4.368,0.484-5.961c-0.118-0.714-0.356-1.284-0.732-1.838
			C37.277,57.992,36.685,57.356,36.409,57.137z"/>
	</g>
	<g id="a3_1_">
		<path fill="#1A3B6D" d="M44.188,86.077c-0.592-0.341-1.109-0.46-1.802-0.463c-1.164-0.009-2.354,0.45-3.522,1.349
			c-0.846,0.65-1.403,1.403-1.734,2.265c-0.163,0.435-0.2,0.685-0.21,1.097c-0.015,0.737,0.177,1.338,0.606,1.778
			c0.245,0.243,0.463,0.376,0.862,0.502c1.405,0.488,3.132,0.098,4.601-1.008c0.619-0.464,1.357-1.272,1.665-1.85
			c0.537-0.947,0.623-2.052,0.207-2.895C44.747,86.585,44.417,86.185,44.188,86.077z"/>
		<path fill="#1A3B6D" d="M37.954,79.91c-0.833-0.434-1.974-0.341-2.957,0.226c-0.131,0.075-0.427,0.291-0.664,0.503
			c-1.388,1.152-2.266,2.885-2.262,4.491c0.004,0.638,0.17,1.372,0.446,1.836c0.377,0.655,1.359,1.057,2.277,0.915
			c0.875-0.145,1.655-0.563,2.415-1.321c0.462-0.448,0.765-0.84,1.091-1.373c0.903-1.53,1.085-3.082,0.477-4.382
			C38.625,80.492,38.218,80.054,37.954,79.91z"/>
		<path fill="#1A3B6D" d="M42.897,94.91c-0.733-0.484-1.771-0.679-2.751-0.542c-0.98,0.138-1.878,0.515-2.767,1.163
			c-0.498,0.362-0.669,0.536-0.941,0.904c-0.425,0.587-0.665,1.226-0.685,1.854c-0.003,0.429,0.089,0.746,0.262,1.06
			c0.414,0.741,1.418,1.246,2.545,1.311c0.746,0.032,1.821-0.216,2.564-0.579c0.69-0.342,1.443-0.923,1.849-1.408
			c0.378-0.454,0.654-1.059,0.763-1.572c0.042-0.191,0.042-0.628,0.01-0.849C43.713,95.737,43.38,95.236,42.897,94.91z"/>
		<path fill="#1A3B6D" d="M29.263,81.691c-0.749-0.57-1.677-0.647-2.474-0.221c-0.607,0.347-1.146,0.808-1.548,1.353
			c-0.749,0.976-1.157,2.135-1.165,3.277c-0.014,0.788,0.132,1.378,0.447,2.029c0.39,0.782,1.041,1.17,1.905,1.142
			c0.762-0.025,1.305-0.284,2.052-0.974c0.332-0.323,0.449-0.434,0.666-0.738c0.708-0.979,1.055-2.041,1.07-3.217
			c0.01-0.797-0.139-1.538-0.395-2.001C29.699,82.149,29.387,81.792,29.263,81.691z"/>
		<path fill="#1A3B6D" d="M32.56,91.76c-1.371-1.082-3.271-1.585-5.036-1.332c-1.498,0.213-2.88,0.602-4.09,1.16
			c-0.823,0.367-1.79,0.968-2.108,1.273c-0.707,0.694-0.971,1.854-0.612,2.709c0.142,0.338,0.384,0.673,0.693,0.919
			c0.52,0.463,0.949,0.71,2.168,1.286c1.327,0.592,1.629,0.78,2.269,1.283c0.879,0.689,1.27,1.328,1.918,2.968
			c0.566,1.441,0.728,1.729,1.135,2.167c0.78,0.792,1.833,1.021,2.668,0.588c0.317-0.164,0.893-0.73,1.096-1.07
			c0.525-0.832,0.909-1.807,1.198-3.006c0.65-2.665,0.787-4.37,0.485-5.962c-0.118-0.714-0.357-1.283-0.732-1.839
			C33.428,92.615,32.836,91.979,32.56,91.76z"/>
	</g>
	<g id="a2_1_">
		<path fill="#1A3B6D" d="M8.009,96.15c-0.591-0.341-1.108-0.46-1.802-0.463c-1.164-0.009-2.354,0.451-3.521,1.348
			c-0.846,0.65-1.404,1.404-1.734,2.265c-0.164,0.437-0.201,0.686-0.21,1.097c-0.015,0.739,0.177,1.339,0.605,1.779
			c0.245,0.243,0.463,0.376,0.862,0.502c1.406,0.488,3.133,0.098,4.601-1.008c0.62-0.465,1.357-1.272,1.665-1.85
			c0.537-0.947,0.622-2.051,0.207-2.895C8.568,96.658,8.237,96.258,8.009,96.15z"/>
		<path fill="#1A3B6D" d="M1.775,89.982C0.941,89.55-0.2,89.644-1.182,90.208c-0.132,0.076-0.427,0.291-0.665,0.504
			c-1.387,1.152-2.265,2.885-2.261,4.49c0.004,0.639,0.169,1.374,0.446,1.837c0.377,0.655,1.359,1.057,2.277,0.914
			c0.875-0.145,1.655-0.563,2.415-1.32c0.462-0.448,0.765-0.84,1.091-1.374c0.903-1.529,1.085-3.081,0.477-4.382
			C2.446,90.565,2.038,90.127,1.775,89.982z"/>
		<path fill="#1A3B6D" d="M6.718,104.983c-0.732-0.485-1.771-0.679-2.751-0.542c-0.979,0.138-1.878,0.516-2.766,1.163
			c-0.499,0.362-0.669,0.535-0.942,0.904c-0.426,0.587-0.664,1.226-0.685,1.854c-0.004,0.43,0.089,0.746,0.261,1.06
			c0.415,0.741,1.419,1.245,2.546,1.31c0.745,0.033,1.821-0.215,2.563-0.577c0.691-0.344,1.443-0.924,1.849-1.409
			c0.379-0.455,0.654-1.059,0.763-1.571c0.043-0.192,0.042-0.629,0.01-0.85C7.534,105.811,7.202,105.309,6.718,104.983z"/>
		<path fill="#1A3B6D" d="M-6.916,91.765c-0.749-0.571-1.677-0.647-2.475-0.221c-0.606,0.346-1.145,0.807-1.547,1.352
			c-0.749,0.976-1.158,2.136-1.165,3.277c-0.014,0.789,0.132,1.379,0.446,2.03c0.39,0.782,1.042,1.169,1.904,1.143
			c0.762-0.025,1.305-0.284,2.053-0.976c0.331-0.322,0.448-0.433,0.666-0.738c0.708-0.979,1.055-2.039,1.069-3.217
			c0.01-0.796-0.139-1.537-0.395-2C-6.48,92.223-6.792,91.864-6.916,91.765z"/>
		<path fill="#1A3B6D" d="M-3.619,101.832c-1.371-1.081-3.271-1.584-5.035-1.331c-1.498,0.213-2.88,0.601-4.091,1.16
			c-0.823,0.367-1.79,0.967-2.108,1.273c-0.707,0.694-0.971,1.853-0.612,2.709c0.142,0.337,0.385,0.672,0.692,0.919
			c0.521,0.464,0.95,0.709,2.168,1.286c1.328,0.591,1.629,0.78,2.27,1.283c0.878,0.689,1.27,1.328,1.918,2.968
			c0.566,1.44,0.728,1.729,1.135,2.167c0.781,0.791,1.833,1.021,2.669,0.587c0.317-0.164,0.892-0.729,1.095-1.069
			c0.525-0.832,0.909-1.808,1.198-3.007c0.65-2.664,0.787-4.369,0.484-5.961c-0.117-0.714-0.356-1.284-0.732-1.839
			C-2.751,102.688-3.344,102.053-3.619,101.832z"/>
	</g>
	<g id="a1_1_">
		<path fill="#1A3B6D" d="M4.16,130.773c-0.592-0.342-1.109-0.461-1.802-0.463c-1.164-0.011-2.354,0.449-3.522,1.349
			c-0.846,0.649-1.403,1.403-1.734,2.265c-0.163,0.436-0.2,0.686-0.21,1.096c-0.015,0.738,0.177,1.34,0.606,1.779
			c0.245,0.243,0.463,0.375,0.862,0.502c1.405,0.488,3.132,0.098,4.601-1.008c0.619-0.465,1.357-1.271,1.665-1.85
			c0.538-0.948,0.623-2.053,0.207-2.896C4.719,131.281,4.388,130.88,4.16,130.773z"/>
		<path fill="#1A3B6D" d="M-2.075,124.605c-0.833-0.433-1.974-0.34-2.957,0.227c-0.131,0.075-0.427,0.291-0.664,0.503
			c-1.387,1.152-2.266,2.885-2.262,4.491c0.005,0.638,0.17,1.372,0.446,1.836c0.377,0.654,1.359,1.057,2.277,0.914
			c0.875-0.145,1.654-0.563,2.415-1.32c0.462-0.447,0.765-0.841,1.091-1.374c0.903-1.529,1.085-3.081,0.477-4.381
			C-1.403,125.188-1.811,124.749-2.075,124.605z"/>
		<path fill="#1A3B6D" d="M2.869,139.605c-0.733-0.484-1.771-0.679-2.751-0.541c-0.979,0.137-1.878,0.515-2.766,1.162
			c-0.499,0.362-0.669,0.537-0.942,0.904c-0.425,0.586-0.665,1.227-0.685,1.854c-0.003,0.43,0.089,0.746,0.262,1.061
			c0.414,0.741,1.418,1.245,2.545,1.311c0.746,0.033,1.821-0.215,2.564-0.578c0.69-0.342,1.443-0.924,1.849-1.409
			c0.378-0.454,0.654-1.058,0.763-1.571c0.042-0.191,0.042-0.628,0.01-0.849C3.685,140.434,3.352,139.934,2.869,139.605z"/>
		<path fill="#1A3B6D" d="M-10.765,126.388c-0.749-0.57-1.677-0.648-2.474-0.222c-0.607,0.347-1.146,0.808-1.547,1.353
			c-0.749,0.977-1.158,2.135-1.166,3.277c-0.014,0.789,0.132,1.379,0.447,2.03c0.39,0.781,1.041,1.169,1.905,1.142
			c0.762-0.024,1.305-0.284,2.052-0.975c0.332-0.322,0.449-0.433,0.666-0.738c0.708-0.979,1.055-2.04,1.069-3.216
			c0.01-0.798-0.139-1.538-0.394-2.001C-10.329,126.846-10.642,126.488-10.765,126.388z"/>
		<path fill="#1A3B6D" d="M-7.468,136.456c-1.371-1.082-3.271-1.586-5.036-1.332c-1.497,0.213-2.88,0.601-4.09,1.16
			c-0.823,0.366-1.791,0.967-2.109,1.272c-0.706,0.694-0.971,1.854-0.611,2.709c0.141,0.338,0.384,0.674,0.692,0.92
			c0.52,0.463,0.949,0.709,2.168,1.285c1.327,0.592,1.629,0.779,2.269,1.283c0.879,0.688,1.27,1.328,1.918,2.969
			c0.565,1.439,0.727,1.729,1.135,2.166c0.78,0.793,1.833,1.021,2.668,0.588c0.317-0.164,0.893-0.73,1.096-1.07
			c0.525-0.831,0.909-1.807,1.198-3.006c0.65-2.664,0.787-4.369,0.485-5.961c-0.118-0.715-0.357-1.284-0.732-1.84
			C-6.6,137.311-7.192,136.676-7.468,136.456z"/>
	</g>
	<g id="a6_1_">
		<path fill="#1A3B6D" d="M193.162,136.826c0.404,0.24,0.76,0.326,1.238,0.333c0.803,0.017,1.627-0.29,2.44-0.899
			c0.588-0.441,0.98-0.957,1.214-1.547c0.116-0.3,0.145-0.472,0.154-0.756c0.018-0.509-0.11-0.924-0.402-1.231
			c-0.166-0.17-0.315-0.263-0.59-0.353c-0.965-0.35-2.159-0.095-3.182,0.654c-0.432,0.316-0.947,0.867-1.164,1.262
			c-0.379,0.65-0.447,1.41-0.168,1.996C192.781,136.471,193.005,136.75,193.162,136.826z"/>
		<path fill="#1A3B6D" d="M197.409,141.133c0.571,0.305,1.358,0.25,2.041-0.131c0.091-0.052,0.297-0.197,0.462-0.343
			c0.967-0.782,1.586-1.97,1.598-3.077c0.002-0.439-0.104-0.949-0.292-1.27c-0.254-0.455-0.928-0.74-1.563-0.65
			c-0.604,0.093-1.146,0.375-1.676,0.889c-0.322,0.307-0.535,0.574-0.765,0.939c-0.636,1.048-0.773,2.117-0.366,3.019
			C196.95,140.725,197.228,141.03,197.409,141.133z"/>
		<path fill="#1A3B6D" d="M194.127,130.745c0.501,0.341,1.215,0.483,1.893,0.397c0.676-0.086,1.299-0.34,1.917-0.779
			c0.347-0.246,0.466-0.363,0.657-0.615c0.299-0.4,0.469-0.84,0.487-1.273c0.007-0.296-0.054-0.516-0.17-0.733
			c-0.279-0.515-0.969-0.871-1.744-0.925c-0.515-0.029-1.259,0.133-1.773,0.376c-0.479,0.231-1.002,0.625-1.286,0.957
			c-0.266,0.311-0.461,0.724-0.54,1.077c-0.03,0.132-0.034,0.433-0.013,0.585C193.572,130.168,193.797,130.516,194.127,130.745z"/>
		<path fill="#1A3B6D" d="M203.417,139.978c0.512,0.399,1.151,0.46,1.705,0.173c0.42-0.233,0.796-0.547,1.078-0.919
			c0.523-0.667,0.815-1.463,0.831-2.25c0.017-0.546-0.079-0.952-0.291-1.405c-0.263-0.542-0.708-0.814-1.304-0.803
			c-0.526,0.01-0.902,0.184-1.425,0.654c-0.229,0.22-0.312,0.295-0.465,0.504c-0.496,0.669-0.744,1.398-0.765,2.209
			c-0.013,0.549,0.082,1.062,0.255,1.383C203.12,139.657,203.332,139.906,203.417,139.978z"/>
		<path fill="#1A3B6D" d="M201.229,133.006c0.937,0.758,2.241,1.12,3.461,0.961c1.034-0.134,1.991-0.389,2.83-0.766
			c0.571-0.246,1.243-0.65,1.466-0.859c0.492-0.473,0.686-1.27,0.444-1.863c-0.096-0.234-0.26-0.467-0.47-0.641
			c-0.355-0.323-0.648-0.496-1.484-0.904c-0.91-0.419-1.116-0.552-1.555-0.904c-0.599-0.482-0.864-0.927-1.298-2.063
			c-0.377-0.999-0.486-1.199-0.764-1.504c-0.532-0.553-1.255-0.72-1.836-0.428c-0.22,0.11-0.621,0.496-0.764,0.729
			c-0.37,0.569-0.644,1.238-0.853,2.063c-0.47,1.832-0.579,3.007-0.384,4.106c0.075,0.493,0.234,0.89,0.489,1.274
			C200.637,132.408,201.041,132.852,201.229,133.006z"/>
	</g>
	<g id="a5_1_">
		<path fill="#1A3B6D" d="M196.11,112.981c0.404,0.24,0.76,0.326,1.238,0.334c0.803,0.016,1.628-0.292,2.44-0.9
			c0.589-0.441,0.979-0.956,1.215-1.547c0.116-0.299,0.144-0.471,0.154-0.755c0.017-0.509-0.11-0.924-0.402-1.232
			c-0.168-0.17-0.316-0.262-0.591-0.353c-0.966-0.349-2.16-0.095-3.181,0.655c-0.432,0.315-0.947,0.866-1.165,1.262
			c-0.378,0.649-0.447,1.41-0.167,1.995C195.729,112.627,195.953,112.905,196.11,112.981z"/>
		<path fill="#1A3B6D" d="M200.357,117.288c0.571,0.307,1.358,0.251,2.041-0.131c0.091-0.05,0.296-0.197,0.461-0.341
			c0.968-0.783,1.588-1.97,1.599-3.079c0.004-0.439-0.105-0.946-0.292-1.27c-0.254-0.455-0.928-0.741-1.563-0.65
			c-0.604,0.092-1.146,0.374-1.677,0.89c-0.322,0.306-0.534,0.574-0.764,0.939c-0.637,1.048-0.774,2.116-0.366,3.017
			C199.898,116.881,200.177,117.186,200.357,117.288z"/>
		<path fill="#1A3B6D" d="M197.076,106.901c0.5,0.339,1.215,0.483,1.892,0.396c0.676-0.086,1.3-0.339,1.918-0.778
			c0.346-0.246,0.465-0.363,0.655-0.615c0.299-0.402,0.471-0.84,0.488-1.273c0.006-0.296-0.054-0.516-0.171-0.732
			c-0.279-0.515-0.968-0.872-1.744-0.926c-0.514-0.029-1.258,0.134-1.772,0.378c-0.48,0.23-1.004,0.624-1.287,0.955
			c-0.267,0.311-0.461,0.725-0.54,1.078c-0.031,0.132-0.034,0.433-0.014,0.586C196.52,106.324,196.745,106.672,197.076,106.901z"/>
		<path fill="#1A3B6D" d="M206.366,116.133c0.511,0.399,1.149,0.46,1.703,0.172c0.422-0.233,0.798-0.547,1.079-0.919
			c0.524-0.667,0.816-1.463,0.831-2.25c0.018-0.545-0.079-0.952-0.291-1.404c-0.262-0.542-0.708-0.815-1.304-0.803
			c-0.525,0.01-0.902,0.184-1.424,0.653c-0.231,0.22-0.313,0.296-0.465,0.504c-0.496,0.668-0.745,1.398-0.765,2.208
			c-0.014,0.55,0.082,1.063,0.255,1.383C206.068,115.813,206.281,116.063,206.366,116.133z"/>
		<path fill="#1A3B6D" d="M204.178,109.161c0.937,0.758,2.243,1.122,3.461,0.962c1.035-0.135,1.991-0.391,2.83-0.765
			c0.571-0.247,1.244-0.653,1.465-0.86c0.494-0.474,0.686-1.271,0.445-1.864c-0.096-0.234-0.259-0.467-0.47-0.64
			c-0.355-0.324-0.648-0.497-1.483-0.905c-0.91-0.419-1.117-0.551-1.555-0.904c-0.6-0.483-0.864-0.927-1.297-2.063
			c-0.378-0.999-0.487-1.198-0.765-1.503c-0.531-0.553-1.255-0.719-1.835-0.429c-0.22,0.111-0.622,0.497-0.765,0.729
			c-0.369,0.57-0.642,1.238-0.852,2.063c-0.472,1.832-0.58,3.007-0.385,4.107c0.074,0.494,0.235,0.889,0.489,1.275
			C203.586,108.563,203.989,109.008,204.178,109.161z"/>
	</g>
	<g id="a4_1_">
		<path fill="#1A3B6D" d="M225.81,101.261c0.405,0.24,0.761,0.327,1.239,0.335c0.803,0.017,1.627-0.291,2.439-0.9
			c0.589-0.442,0.98-0.956,1.215-1.548c0.117-0.299,0.145-0.471,0.154-0.754c0.017-0.509-0.11-0.925-0.401-1.232
			c-0.168-0.169-0.316-0.263-0.591-0.354c-0.966-0.348-2.16-0.094-3.182,0.657c-0.432,0.315-0.946,0.866-1.163,1.262
			c-0.38,0.648-0.447,1.41-0.168,1.995C225.429,100.906,225.652,101.185,225.81,101.261z"/>
		<path fill="#1A3B6D" d="M230.057,105.568c0.572,0.305,1.358,0.251,2.04-0.13c0.093-0.052,0.298-0.198,0.463-0.342
			c0.967-0.783,1.587-1.971,1.599-3.077c0.002-0.44-0.105-0.949-0.293-1.271c-0.254-0.455-0.928-0.741-1.563-0.65
			c-0.604,0.093-1.146,0.374-1.677,0.889c-0.322,0.305-0.535,0.573-0.764,0.939c-0.637,1.045-0.774,2.115-0.366,3.016
			C229.599,105.161,229.877,105.466,230.057,105.568z"/>
		<path fill="#1A3B6D" d="M226.775,95.181c0.5,0.341,1.216,0.484,1.893,0.397c0.676-0.087,1.3-0.339,1.917-0.779
			c0.348-0.246,0.466-0.362,0.657-0.614c0.3-0.401,0.469-0.84,0.488-1.274c0.007-0.296-0.055-0.515-0.17-0.732
			c-0.28-0.515-0.969-0.871-1.745-0.926c-0.515-0.027-1.257,0.134-1.772,0.377c-0.479,0.231-1.003,0.625-1.287,0.957
			c-0.266,0.31-0.46,0.725-0.54,1.076c-0.03,0.132-0.033,0.433-0.013,0.585C226.22,94.603,226.444,94.952,226.775,95.181z"/>
		<path fill="#1A3B6D" d="M236.065,104.413c0.511,0.399,1.151,0.46,1.704,0.173c0.421-0.233,0.797-0.547,1.079-0.919
			c0.524-0.667,0.815-1.462,0.83-2.25c0.017-0.545-0.078-0.953-0.29-1.404c-0.263-0.543-0.709-0.815-1.303-0.805
			c-0.526,0.011-0.903,0.184-1.425,0.655c-0.231,0.22-0.313,0.295-0.466,0.503c-0.496,0.67-0.744,1.397-0.764,2.209
			c-0.015,0.549,0.083,1.062,0.255,1.382C235.769,104.093,235.981,104.343,236.065,104.413z"/>
		<path fill="#1A3B6D" d="M233.877,97.441c0.938,0.757,2.242,1.121,3.461,0.96c1.035-0.133,1.992-0.389,2.831-0.765
			c0.571-0.246,1.243-0.652,1.465-0.86c0.494-0.473,0.686-1.269,0.445-1.863c-0.096-0.234-0.26-0.467-0.47-0.64
			c-0.355-0.325-0.648-0.497-1.484-0.905c-0.91-0.418-1.116-0.552-1.554-0.904c-0.601-0.482-0.864-0.926-1.298-2.063
			c-0.378-0.998-0.487-1.198-0.765-1.504c-0.532-0.553-1.256-0.719-1.836-0.427c-0.22,0.11-0.621,0.494-0.764,0.727
			c-0.369,0.57-0.643,1.24-0.853,2.065c-0.471,1.831-0.579,3.005-0.384,4.106c0.075,0.494,0.235,0.889,0.489,1.274
			C233.286,96.843,233.688,97.288,233.877,97.441z"/>
	</g>
	<g id="a3_2_">
		<path fill="#1A3B6D" d="M228.759,77.418c0.405,0.239,0.761,0.326,1.238,0.334c0.803,0.015,1.627-0.292,2.44-0.902
			c0.589-0.44,0.979-0.955,1.215-1.547c0.116-0.297,0.144-0.469,0.154-0.753c0.017-0.51-0.11-0.925-0.402-1.232
			c-0.168-0.169-0.316-0.263-0.591-0.353c-0.965-0.348-2.159-0.094-3.182,0.655c-0.431,0.316-0.946,0.868-1.163,1.263
			c-0.379,0.648-0.447,1.409-0.168,1.994C228.377,77.063,228.602,77.34,228.759,77.418z"/>
		<path fill="#1A3B6D" d="M233.005,81.723c0.571,0.307,1.358,0.253,2.041-0.129c0.091-0.052,0.298-0.198,0.463-0.342
			c0.967-0.783,1.587-1.97,1.598-3.078c0.003-0.44-0.105-0.949-0.292-1.271c-0.254-0.455-0.929-0.741-1.563-0.651
			c-0.604,0.092-1.146,0.374-1.677,0.891c-0.322,0.306-0.535,0.573-0.764,0.937c-0.636,1.049-0.774,2.117-0.366,3.019
			C232.547,81.315,232.824,81.621,233.005,81.723z"/>
		<path fill="#1A3B6D" d="M229.724,71.336c0.501,0.34,1.216,0.484,1.893,0.397c0.677-0.087,1.299-0.34,1.918-0.779
			c0.347-0.245,0.466-0.363,0.657-0.615c0.298-0.401,0.469-0.839,0.488-1.272c0.005-0.295-0.056-0.516-0.173-0.733
			c-0.279-0.515-0.967-0.872-1.743-0.926c-0.515-0.028-1.258,0.134-1.773,0.378c-0.479,0.229-1.003,0.624-1.287,0.956
			c-0.265,0.309-0.46,0.724-0.539,1.076c-0.031,0.131-0.034,0.433-0.015,0.585C229.168,70.759,229.394,71.107,229.724,71.336z"/>
		<path fill="#1A3B6D" d="M239.014,80.568c0.512,0.4,1.151,0.461,1.704,0.173c0.422-0.233,0.798-0.546,1.079-0.918
			c0.524-0.667,0.816-1.463,0.831-2.251c0.017-0.543-0.078-0.952-0.29-1.403c-0.263-0.542-0.709-0.815-1.305-0.804
			c-0.525,0.011-0.902,0.185-1.424,0.654c-0.23,0.22-0.313,0.296-0.465,0.504c-0.497,0.669-0.745,1.398-0.766,2.21
			c-0.014,0.549,0.083,1.061,0.256,1.383C238.717,80.25,238.929,80.499,239.014,80.568z"/>
		<path fill="#1A3B6D" d="M236.826,73.597c0.936,0.758,2.242,1.122,3.461,0.962c1.035-0.135,1.991-0.391,2.831-0.766
			c0.57-0.246,1.242-0.652,1.464-0.86c0.493-0.473,0.686-1.27,0.445-1.863c-0.095-0.235-0.26-0.467-0.47-0.64
			c-0.354-0.324-0.648-0.498-1.485-0.906c-0.909-0.42-1.116-0.551-1.553-0.904c-0.601-0.481-0.865-0.927-1.298-2.062
			c-0.378-0.999-0.487-1.198-0.764-1.504c-0.531-0.552-1.256-0.719-1.836-0.428c-0.22,0.11-0.621,0.495-0.765,0.728
			c-0.369,0.57-0.642,1.238-0.852,2.063c-0.471,1.833-0.58,3.008-0.385,4.108c0.074,0.493,0.234,0.889,0.488,1.274
			C236.234,73,236.637,73.443,236.826,73.597z"/>
	</g>
	<g id="a2_2_">
		<path fill="#1A3B6D" d="M253.794,70.777c0.404,0.24,0.761,0.328,1.238,0.334c0.804,0.017,1.628-0.292,2.44-0.899
			c0.589-0.441,0.979-0.957,1.215-1.547c0.116-0.3,0.145-0.472,0.153-0.755c0.018-0.508-0.11-0.925-0.401-1.231
			c-0.167-0.169-0.316-0.263-0.59-0.354c-0.966-0.349-2.16-0.094-3.182,0.656c-0.432,0.315-0.946,0.866-1.164,1.261
			c-0.379,0.649-0.447,1.409-0.168,1.997C253.413,70.422,253.638,70.702,253.794,70.777z"/>
		<path fill="#1A3B6D" d="M258.041,75.083c0.571,0.307,1.358,0.25,2.041-0.13c0.092-0.05,0.297-0.196,0.463-0.342
			c0.966-0.782,1.586-1.971,1.597-3.077c0.003-0.441-0.104-0.95-0.291-1.271c-0.255-0.455-0.929-0.74-1.563-0.65
			c-0.604,0.092-1.146,0.374-1.676,0.89c-0.322,0.305-0.535,0.573-0.765,0.939c-0.636,1.046-0.774,2.116-0.366,3.018
			C257.583,74.677,257.86,74.982,258.041,75.083z"/>
		<path fill="#1A3B6D" d="M254.76,64.698c0.5,0.34,1.215,0.482,1.893,0.396c0.676-0.086,1.299-0.34,1.917-0.778
			c0.347-0.245,0.466-0.364,0.657-0.616c0.299-0.402,0.468-0.84,0.488-1.272c0.007-0.296-0.056-0.515-0.171-0.733
			c-0.28-0.515-0.969-0.87-1.745-0.925c-0.514-0.03-1.258,0.132-1.772,0.377c-0.479,0.231-1.003,0.625-1.287,0.955
			c-0.265,0.311-0.46,0.725-0.539,1.078c-0.032,0.132-0.035,0.434-0.015,0.586C254.203,64.12,254.429,64.468,254.76,64.698z"/>
		<path fill="#1A3B6D" d="M264.05,73.928c0.512,0.401,1.15,0.461,1.704,0.174c0.422-0.235,0.797-0.548,1.079-0.92
			c0.524-0.666,0.816-1.462,0.831-2.249c0.017-0.543-0.079-0.952-0.29-1.405c-0.263-0.541-0.709-0.814-1.304-0.804
			c-0.526,0.011-0.902,0.185-1.424,0.656c-0.231,0.22-0.313,0.294-0.466,0.503c-0.497,0.668-0.745,1.397-0.765,2.209
			c-0.014,0.549,0.083,1.062,0.256,1.383C263.753,73.609,263.965,73.86,264.05,73.928z"/>
		<path fill="#1A3B6D" d="M261.861,66.958c0.937,0.759,2.242,1.121,3.461,0.961c1.035-0.133,1.991-0.391,2.831-0.765
			c0.57-0.247,1.242-0.651,1.465-0.861c0.493-0.471,0.686-1.27,0.444-1.863c-0.095-0.233-0.26-0.466-0.469-0.639
			c-0.355-0.324-0.649-0.498-1.484-0.905c-0.911-0.419-1.116-0.551-1.555-0.904c-0.6-0.483-0.865-0.927-1.298-2.064
			c-0.378-0.997-0.487-1.199-0.764-1.503c-0.532-0.552-1.256-0.72-1.836-0.428c-0.221,0.111-0.621,0.497-0.764,0.729
			c-0.369,0.57-0.643,1.239-0.853,2.063c-0.471,1.832-0.579,3.007-0.384,4.107c0.074,0.494,0.233,0.889,0.489,1.275
			C261.27,66.36,261.673,66.804,261.861,66.958z"/>
	</g>
	<g id="a1_2_">
		<path fill="#1A3B6D" d="M256.742,46.933c0.405,0.241,0.761,0.328,1.239,0.334c0.803,0.018,1.627-0.29,2.44-0.9
			c0.588-0.441,0.979-0.957,1.215-1.547c0.116-0.298,0.144-0.471,0.153-0.754c0.018-0.508-0.11-0.925-0.402-1.231
			c-0.167-0.169-0.315-0.263-0.59-0.354c-0.966-0.349-2.159-0.094-3.182,0.656c-0.431,0.315-0.946,0.866-1.164,1.261
			c-0.379,0.651-0.447,1.411-0.168,1.996C256.361,46.578,256.586,46.858,256.742,46.933z"/>
		<path fill="#1A3B6D" d="M260.99,51.24c0.57,0.306,1.357,0.25,2.04-0.131c0.092-0.049,0.298-0.197,0.463-0.34
			c0.966-0.783,1.587-1.972,1.598-3.08c0.002-0.439-0.105-0.947-0.291-1.27c-0.255-0.455-0.929-0.74-1.563-0.649
			c-0.604,0.092-1.145,0.374-1.677,0.89c-0.322,0.305-0.534,0.575-0.764,0.939c-0.636,1.046-0.774,2.116-0.366,3.017
			C260.531,50.833,260.81,51.139,260.99,51.24z"/>
		<path fill="#1A3B6D" d="M257.708,40.854c0.501,0.34,1.215,0.483,1.892,0.396c0.677-0.086,1.3-0.339,1.918-0.778
			c0.348-0.245,0.466-0.365,0.657-0.617c0.299-0.399,0.469-0.84,0.488-1.272c0.006-0.296-0.055-0.516-0.172-0.733
			c-0.279-0.513-0.967-0.87-1.743-0.925c-0.515-0.03-1.258,0.133-1.773,0.376c-0.479,0.23-1.004,0.625-1.287,0.958
			c-0.265,0.309-0.46,0.722-0.54,1.076c-0.03,0.131-0.034,0.433-0.014,0.586C257.152,40.276,257.377,40.623,257.708,40.854z"/>
		<path fill="#1A3B6D" d="M266.998,50.083c0.512,0.4,1.15,0.462,1.704,0.174c0.422-0.235,0.797-0.547,1.078-0.92
			c0.525-0.667,0.817-1.462,0.832-2.249c0.017-0.543-0.08-0.952-0.291-1.404c-0.263-0.542-0.708-0.814-1.304-0.803
			c-0.525,0.009-0.902,0.184-1.424,0.654c-0.232,0.22-0.313,0.294-0.466,0.504c-0.496,0.669-0.744,1.397-0.764,2.208
			c-0.014,0.55,0.083,1.062,0.255,1.384C266.701,49.765,266.914,50.014,266.998,50.083z"/>
		<path fill="#1A3B6D" d="M264.81,43.114c0.937,0.758,2.242,1.121,3.462,0.96c1.033-0.134,1.991-0.391,2.83-0.765
			c0.57-0.246,1.243-0.652,1.466-0.86c0.492-0.472,0.685-1.27,0.444-1.864c-0.095-0.233-0.26-0.467-0.47-0.639
			c-0.354-0.324-0.648-0.498-1.484-0.906c-0.91-0.419-1.116-0.551-1.554-0.904c-0.601-0.482-0.864-0.927-1.298-2.064
			c-0.377-0.997-0.486-1.197-0.764-1.502c-0.531-0.554-1.256-0.721-1.836-0.429c-0.22,0.111-0.622,0.497-0.765,0.729
			c-0.368,0.57-0.642,1.239-0.852,2.063c-0.471,1.832-0.579,3.007-0.386,4.107c0.076,0.494,0.236,0.889,0.49,1.274
			C264.218,42.516,264.621,42.959,264.81,43.114z"/>
	</g>
	<g id="a6_2_">
		<path fill="#1A3B6D" d="M103.313,226.265c0.405,0.241,0.761,0.327,1.239,0.335c0.803,0.016,1.627-0.291,2.439-0.899
			c0.589-0.441,0.98-0.956,1.215-1.548c0.117-0.3,0.145-0.471,0.154-0.755c0.018-0.509-0.111-0.924-0.402-1.232
			c-0.166-0.169-0.316-0.262-0.589-0.353c-0.966-0.349-2.16-0.094-3.183,0.656c-0.431,0.314-0.947,0.865-1.164,1.262
			c-0.378,0.648-0.447,1.409-0.168,1.994C102.932,225.91,103.156,226.189,103.313,226.265z"/>
		<path fill="#1A3B6D" d="M107.56,230.572c0.572,0.305,1.358,0.25,2.041-0.132c0.091-0.051,0.297-0.196,0.462-0.341
			c0.966-0.782,1.586-1.97,1.598-3.077c0.003-0.44-0.105-0.949-0.292-1.271c-0.254-0.455-0.929-0.739-1.563-0.648
			c-0.605,0.091-1.147,0.374-1.677,0.889c-0.321,0.305-0.535,0.573-0.764,0.939c-0.635,1.047-0.774,2.115-0.367,3.017
			C107.102,230.164,107.378,230.471,107.56,230.572z"/>
		<path fill="#1A3B6D" d="M104.278,220.185c0.501,0.341,1.216,0.483,1.892,0.397s1.299-0.34,1.918-0.778
			c0.346-0.247,0.465-0.364,0.656-0.616c0.299-0.4,0.468-0.84,0.488-1.272c0.007-0.297-0.054-0.517-0.17-0.733
			c-0.28-0.516-0.969-0.871-1.745-0.926c-0.515-0.029-1.259,0.135-1.772,0.377c-0.479,0.23-1.003,0.625-1.287,0.957
			c-0.265,0.311-0.46,0.724-0.54,1.076c-0.03,0.133-0.034,0.434-0.013,0.586C103.723,219.607,103.947,219.957,104.278,220.185z"/>
		<path fill="#1A3B6D" d="M113.567,229.417c0.511,0.4,1.151,0.461,1.705,0.173c0.421-0.232,0.796-0.546,1.078-0.918
			c0.525-0.667,0.816-1.463,0.831-2.251c0.018-0.544-0.078-0.952-0.29-1.404c-0.262-0.542-0.709-0.815-1.304-0.803
			c-0.525,0.01-0.903,0.185-1.424,0.654c-0.23,0.219-0.313,0.295-0.466,0.503c-0.495,0.669-0.744,1.398-0.763,2.209
			c-0.014,0.549,0.082,1.063,0.256,1.383C113.271,229.098,113.483,229.347,113.567,229.417z"/>
		<path fill="#1A3B6D" d="M111.38,222.446c0.936,0.757,2.241,1.12,3.461,0.961c1.035-0.135,1.992-0.39,2.83-0.766
			c0.57-0.246,1.243-0.651,1.465-0.86c0.493-0.473,0.685-1.27,0.445-1.863c-0.096-0.233-0.259-0.467-0.469-0.64
			c-0.356-0.323-0.651-0.497-1.484-0.905c-0.911-0.418-1.117-0.551-1.555-0.904c-0.599-0.482-0.865-0.926-1.299-2.063
			c-0.377-0.998-0.486-1.199-0.764-1.504c-0.532-0.553-1.255-0.72-1.835-0.428c-0.221,0.11-0.622,0.496-0.764,0.729
			c-0.37,0.569-0.643,1.238-0.852,2.063c-0.471,1.832-0.579,3.008-0.385,4.106c0.075,0.493,0.234,0.89,0.49,1.274
			C110.788,221.848,111.191,222.291,111.38,222.446z"/>
	</g>
	<g id="a5_2_">
		<path fill="#1A3B6D" d="M106.261,202.422c0.404,0.239,0.759,0.324,1.238,0.334c0.803,0.017,1.628-0.291,2.442-0.9
			c0.588-0.44,0.979-0.956,1.214-1.548c0.116-0.299,0.143-0.471,0.154-0.755c0.017-0.507-0.111-0.924-0.403-1.23
			c-0.167-0.17-0.316-0.264-0.59-0.354c-0.965-0.349-2.16-0.094-3.181,0.656c-0.432,0.314-0.948,0.865-1.165,1.262
			c-0.378,0.648-0.447,1.408-0.167,1.994C105.879,202.067,106.104,202.346,106.261,202.422z"/>
		<path fill="#1A3B6D" d="M110.509,206.729c0.571,0.305,1.358,0.25,2.041-0.131c0.091-0.051,0.296-0.197,0.461-0.342
			c0.966-0.783,1.588-1.971,1.599-3.078c0.003-0.439-0.105-0.947-0.292-1.27c-0.254-0.455-0.929-0.74-1.563-0.65
			c-0.604,0.093-1.146,0.375-1.677,0.891c-0.322,0.305-0.535,0.572-0.764,0.938c-0.636,1.048-0.774,2.116-0.367,3.018
			C110.049,206.32,110.327,206.626,110.509,206.729z"/>
		<path fill="#1A3B6D" d="M107.226,196.34c0.501,0.342,1.216,0.484,1.892,0.397c0.676-0.086,1.301-0.338,1.917-0.778
			c0.347-0.244,0.466-0.363,0.657-0.615c0.298-0.4,0.469-0.84,0.489-1.273c0.005-0.295-0.055-0.514-0.171-0.732
			c-0.279-0.514-0.968-0.871-1.745-0.926c-0.513-0.028-1.258,0.133-1.772,0.378c-0.48,0.229-1.004,0.624-1.288,0.955
			c-0.265,0.31-0.459,0.726-0.54,1.076c-0.031,0.133-0.034,0.435-0.014,0.587C106.67,195.764,106.896,196.111,107.226,196.34z"/>
		<path fill="#1A3B6D" d="M116.517,205.572c0.511,0.399,1.15,0.461,1.704,0.174c0.421-0.234,0.798-0.548,1.08-0.92
			c0.523-0.666,0.814-1.463,0.83-2.25c0.017-0.544-0.079-0.951-0.292-1.404c-0.26-0.542-0.708-0.814-1.303-0.803
			c-0.525,0.01-0.902,0.185-1.423,0.654c-0.232,0.219-0.314,0.295-0.466,0.502c-0.496,0.67-0.745,1.399-0.764,2.211
			c-0.014,0.549,0.083,1.062,0.255,1.382C116.219,205.254,116.432,205.503,116.517,205.572z"/>
		<path fill="#1A3B6D" d="M114.329,198.602c0.937,0.758,2.243,1.121,3.461,0.961c1.035-0.134,1.991-0.391,2.831-0.765
			c0.57-0.246,1.244-0.652,1.464-0.86c0.492-0.473,0.685-1.27,0.446-1.862c-0.095-0.235-0.259-0.468-0.47-0.641
			c-0.355-0.324-0.648-0.497-1.484-0.905c-0.909-0.419-1.117-0.551-1.554-0.904c-0.6-0.481-0.865-0.926-1.297-2.063
			c-0.377-0.999-0.487-1.199-0.764-1.504c-0.532-0.553-1.256-0.72-1.835-0.428c-0.22,0.11-0.623,0.495-0.765,0.729
			c-0.37,0.568-0.643,1.238-0.852,2.063c-0.471,1.832-0.58,3.008-0.384,4.107c0.075,0.494,0.236,0.888,0.49,1.274
			C113.737,198.004,114.14,198.447,114.329,198.602z"/>
	</g>
	<g id="a4_2_">
		<path fill="#1A3B6D" d="M135.961,190.701c0.404,0.24,0.76,0.327,1.238,0.334c0.803,0.018,1.627-0.29,2.441-0.899
			c0.588-0.441,0.979-0.956,1.215-1.548c0.115-0.299,0.145-0.471,0.152-0.754c0.017-0.51-0.109-0.925-0.402-1.232
			c-0.166-0.169-0.314-0.262-0.59-0.354c-0.965-0.348-2.159-0.094-3.182,0.657c-0.432,0.315-0.945,0.864-1.162,1.261
			c-0.379,0.65-0.447,1.409-0.169,1.996C135.58,190.346,135.803,190.625,135.961,190.701z"/>
		<path fill="#1A3B6D" d="M140.207,195.008c0.572,0.305,1.359,0.25,2.041-0.131c0.092-0.051,0.298-0.197,0.463-0.342
			c0.967-0.782,1.587-1.97,1.597-3.076c0.004-0.441-0.104-0.95-0.292-1.271c-0.253-0.455-0.927-0.74-1.563-0.65
			c-0.604,0.094-1.146,0.375-1.677,0.89c-0.321,0.306-0.534,0.573-0.763,0.938c-0.637,1.047-0.776,2.116-0.367,3.018
			C139.75,194.601,140.027,194.906,140.207,195.008z"/>
		<path fill="#1A3B6D" d="M136.926,184.621c0.501,0.342,1.215,0.483,1.894,0.397c0.676-0.087,1.298-0.341,1.917-0.779
			c0.347-0.245,0.466-0.362,0.656-0.616c0.299-0.4,0.469-0.839,0.488-1.271c0.007-0.297-0.055-0.517-0.171-0.733
			c-0.278-0.516-0.968-0.87-1.744-0.926c-0.513-0.028-1.258,0.134-1.772,0.376c-0.479,0.232-1.004,0.625-1.286,0.957
			c-0.266,0.311-0.46,0.725-0.54,1.076c-0.03,0.133-0.034,0.434-0.013,0.587C136.371,184.043,136.596,184.393,136.926,184.621z"/>
		<path fill="#1A3B6D" d="M146.217,193.854c0.51,0.398,1.15,0.46,1.703,0.174c0.422-0.234,0.797-0.548,1.08-0.921
			c0.523-0.666,0.816-1.462,0.83-2.249c0.016-0.545-0.08-0.952-0.29-1.404c-0.264-0.543-0.709-0.814-1.304-0.804
			c-0.525,0.011-0.902,0.185-1.424,0.655c-0.23,0.219-0.313,0.295-0.467,0.503c-0.496,0.67-0.744,1.397-0.764,2.21
			c-0.014,0.549,0.083,1.061,0.256,1.383C145.92,193.533,146.133,193.781,146.217,193.854z"/>
		<path fill="#1A3B6D" d="M144.027,186.881c0.938,0.758,2.244,1.122,3.461,0.962c1.035-0.135,1.991-0.39,2.832-0.766
			c0.571-0.247,1.242-0.651,1.465-0.86c0.494-0.473,0.685-1.27,0.445-1.862c-0.096-0.233-0.262-0.468-0.471-0.64
			c-0.355-0.325-0.648-0.497-1.482-0.905c-0.912-0.419-1.118-0.552-1.555-0.904c-0.601-0.482-0.865-0.927-1.299-2.063
			c-0.377-0.998-0.486-1.198-0.764-1.506c-0.532-0.552-1.256-0.719-1.836-0.426c-0.22,0.11-0.621,0.494-0.764,0.728
			c-0.369,0.568-0.643,1.239-0.853,2.063c-0.471,1.83-0.58,3.005-0.385,4.106c0.075,0.492,0.236,0.889,0.489,1.273
			C143.438,186.284,143.84,186.727,144.027,186.881z"/>
	</g>
	<g id="a3_3_">
		<path fill="#1A3B6D" d="M138.908,166.857c0.406,0.24,0.762,0.326,1.239,0.334c0.804,0.016,1.626-0.291,2.44-0.9
			c0.59-0.441,0.979-0.955,1.215-1.548c0.116-0.297,0.144-0.47,0.154-0.753c0.018-0.509-0.109-0.924-0.403-1.232
			c-0.165-0.17-0.315-0.263-0.589-0.354c-0.965-0.348-2.16-0.094-3.182,0.656c-0.432,0.314-0.947,0.866-1.164,1.262
			c-0.377,0.648-0.446,1.41-0.166,1.995C138.528,166.502,138.752,166.78,138.908,166.857z"/>
		<path fill="#1A3B6D" d="M143.156,171.162c0.57,0.307,1.359,0.253,2.041-0.129c0.09-0.051,0.298-0.197,0.462-0.342
			c0.968-0.783,1.588-1.971,1.599-3.078c0.002-0.439-0.105-0.948-0.293-1.27c-0.254-0.455-0.928-0.741-1.563-0.652
			c-0.604,0.094-1.145,0.375-1.677,0.891c-0.321,0.307-0.534,0.574-0.764,0.938c-0.636,1.05-0.774,2.117-0.366,3.02
			C142.697,170.756,142.975,171.061,143.156,171.162z"/>
		<path fill="#1A3B6D" d="M139.875,160.776c0.501,0.341,1.215,0.483,1.893,0.397c0.677-0.088,1.299-0.34,1.918-0.778
			c0.346-0.245,0.467-0.364,0.655-0.616c0.3-0.4,0.47-0.84,0.489-1.272c0.006-0.296-0.055-0.516-0.172-0.733
			c-0.279-0.514-0.968-0.872-1.743-0.926c-0.515-0.027-1.259,0.134-1.774,0.378c-0.479,0.229-1.003,0.624-1.287,0.956
			c-0.264,0.309-0.459,0.725-0.539,1.077c-0.031,0.132-0.034,0.433-0.014,0.585C139.318,160.199,139.544,160.547,139.875,160.776z"
			/>
		<path fill="#1A3B6D" d="M149.164,170.008c0.512,0.4,1.15,0.461,1.705,0.174c0.421-0.233,0.796-0.547,1.078-0.919
			c0.525-0.667,0.816-1.463,0.832-2.251c0.018-0.543-0.08-0.951-0.291-1.402c-0.264-0.543-0.708-0.816-1.305-0.805
			c-0.525,0.012-0.902,0.186-1.423,0.654c-0.231,0.22-0.313,0.296-0.466,0.504c-0.497,0.669-0.744,1.398-0.766,2.209
			c-0.013,0.551,0.083,1.061,0.256,1.384C148.867,169.689,149.08,169.938,149.164,170.008z"/>
		<path fill="#1A3B6D" d="M146.977,163.037c0.937,0.758,2.242,1.121,3.461,0.961c1.035-0.135,1.992-0.391,2.83-0.766
			c0.572-0.246,1.244-0.652,1.465-0.859c0.494-0.473,0.688-1.271,0.445-1.863c-0.095-0.234-0.26-0.467-0.471-0.639
			c-0.354-0.324-0.648-0.498-1.482-0.906c-0.91-0.42-1.117-0.552-1.555-0.904c-0.602-0.482-0.865-0.928-1.298-2.063
			c-0.378-0.998-0.487-1.199-0.765-1.505c-0.53-0.552-1.254-0.719-1.835-0.429c-0.218,0.111-0.62,0.496-0.765,0.73
			c-0.369,0.568-0.642,1.237-0.85,2.063c-0.473,1.832-0.581,3.008-0.386,4.107c0.073,0.492,0.235,0.888,0.487,1.273
			C146.385,162.439,146.789,162.883,146.977,163.037z"/>
	</g>
	<g id="a2_3_">
		<path fill="#1A3B6D" d="M163.944,160.217c0.405,0.241,0.761,0.328,1.239,0.334c0.803,0.018,1.627-0.29,2.439-0.898
			c0.589-0.441,0.98-0.956,1.215-1.547c0.117-0.3,0.145-0.472,0.154-0.754c0.017-0.51-0.11-0.926-0.402-1.232
			c-0.168-0.17-0.314-0.263-0.591-0.354c-0.965-0.35-2.158-0.094-3.181,0.656c-0.432,0.314-0.946,0.865-1.164,1.26
			c-0.379,0.649-0.446,1.41-0.168,1.997C163.564,159.861,163.788,160.141,163.944,160.217z"/>
		<path fill="#1A3B6D" d="M168.191,164.523c0.572,0.307,1.359,0.25,2.042-0.13c0.091-0.051,0.296-0.196,0.462-0.341
			c0.967-0.783,1.588-1.973,1.598-3.078c0.002-0.439-0.105-0.949-0.291-1.271c-0.256-0.453-0.93-0.74-1.564-0.649
			c-0.604,0.093-1.146,0.374-1.676,0.891c-0.322,0.304-0.535,0.572-0.764,0.938c-0.636,1.045-0.775,2.114-0.367,3.018
			C167.734,164.117,168.012,164.422,168.191,164.523z"/>
		<path fill="#1A3B6D" d="M164.91,154.137c0.5,0.341,1.216,0.483,1.893,0.397s1.299-0.34,1.917-0.778
			c0.348-0.244,0.466-0.363,0.658-0.615c0.298-0.402,0.468-0.84,0.487-1.272c0.008-0.296-0.055-0.515-0.17-0.733
			c-0.281-0.514-0.969-0.871-1.746-0.927c-0.512-0.028-1.257,0.134-1.771,0.378c-0.48,0.231-1.004,0.625-1.287,0.955
			c-0.265,0.311-0.459,0.725-0.54,1.078c-0.031,0.132-0.035,0.434-0.013,0.586C164.354,153.56,164.578,153.908,164.91,154.137z"/>
		<path fill="#1A3B6D" d="M174.2,163.367c0.512,0.402,1.151,0.462,1.706,0.176c0.42-0.234,0.795-0.549,1.078-0.921
			c0.523-0.666,0.816-1.462,0.83-2.249c0.018-0.544-0.079-0.951-0.29-1.404c-0.263-0.542-0.709-0.814-1.304-0.805
			c-0.525,0.012-0.901,0.185-1.424,0.656c-0.23,0.22-0.313,0.294-0.465,0.504c-0.497,0.669-0.746,1.396-0.766,2.209
			c-0.014,0.549,0.084,1.062,0.256,1.383C173.904,163.049,174.115,163.299,174.2,163.367z"/>
		<path fill="#1A3B6D" d="M172.012,156.397c0.938,0.758,2.242,1.12,3.461,0.962c1.035-0.135,1.991-0.391,2.832-0.766
			c0.569-0.246,1.242-0.65,1.463-0.859c0.494-0.473,0.688-1.271,0.446-1.863c-0.096-0.234-0.259-0.467-0.47-0.641
			c-0.354-0.324-0.648-0.496-1.484-0.904c-0.911-0.42-1.117-0.553-1.555-0.904c-0.6-0.483-0.863-0.928-1.297-2.064
			c-0.379-0.997-0.488-1.197-0.765-1.504c-0.531-0.551-1.255-0.719-1.836-0.427c-0.22,0.11-0.62,0.496-0.764,0.729
			c-0.37,0.569-0.642,1.237-0.853,2.063c-0.47,1.831-0.579,3.007-0.384,4.106c0.075,0.494,0.235,0.889,0.489,1.275
			C171.42,155.801,171.824,156.243,172.012,156.397z"/>
	</g>
	<g id="a1_3_">
		<path fill="#1A3B6D" d="M166.893,136.373c0.406,0.24,0.762,0.326,1.24,0.335c0.802,0.018,1.627-0.29,2.439-0.899
			c0.589-0.441,0.98-0.957,1.215-1.548c0.117-0.3,0.145-0.472,0.154-0.754c0.017-0.509-0.111-0.927-0.403-1.232
			c-0.167-0.169-0.315-0.263-0.591-0.353c-0.963-0.35-2.157-0.095-3.181,0.654c-0.431,0.316-0.946,0.866-1.163,1.262
			c-0.38,0.65-0.448,1.41-0.168,1.996C166.512,136.018,166.738,136.298,166.893,136.373z"/>
		<path fill="#1A3B6D" d="M171.141,140.68c0.57,0.307,1.358,0.251,2.041-0.131c0.092-0.051,0.297-0.197,0.463-0.342
			c0.967-0.781,1.586-1.971,1.598-3.078c0.002-0.438-0.105-0.947-0.291-1.27c-0.256-0.455-0.93-0.74-1.563-0.649
			c-0.605,0.092-1.146,0.373-1.678,0.89c-0.322,0.305-0.535,0.574-0.764,0.939c-0.637,1.045-0.775,2.115-0.365,3.017
			C170.683,140.271,170.96,140.579,171.141,140.68z"/>
		<path fill="#1A3B6D" d="M167.857,130.293c0.502,0.34,1.217,0.483,1.895,0.396c0.674-0.086,1.298-0.338,1.916-0.777
			c0.348-0.245,0.467-0.365,0.658-0.615c0.297-0.401,0.468-0.841,0.487-1.273c0.006-0.297-0.054-0.516-0.172-0.734
			c-0.278-0.514-0.968-0.87-1.743-0.925c-0.515-0.029-1.258,0.132-1.773,0.376c-0.479,0.23-1.004,0.625-1.287,0.957
			c-0.264,0.31-0.459,0.724-0.539,1.076c-0.031,0.132-0.035,0.434-0.014,0.587C167.303,129.715,167.528,130.063,167.857,130.293z"/>
		<path fill="#1A3B6D" d="M177.148,139.523c0.514,0.399,1.152,0.461,1.704,0.174c0.422-0.234,0.797-0.547,1.079-0.92
			c0.525-0.667,0.816-1.461,0.831-2.248c0.017-0.545-0.079-0.953-0.29-1.404c-0.264-0.543-0.709-0.814-1.304-0.803
			c-0.526,0.009-0.902,0.184-1.425,0.654c-0.23,0.219-0.313,0.293-0.465,0.504c-0.496,0.668-0.744,1.396-0.765,2.207
			c-0.013,0.551,0.083,1.063,0.255,1.385C176.852,139.204,177.064,139.454,177.148,139.523z"/>
		<path fill="#1A3B6D" d="M174.959,132.553c0.938,0.759,2.244,1.122,3.463,0.963c1.034-0.135,1.99-0.391,2.831-0.766
			c0.57-0.246,1.243-0.652,1.464-0.861c0.494-0.471,0.687-1.27,0.445-1.862c-0.094-0.233-0.258-0.468-0.469-0.64
			c-0.355-0.324-0.649-0.498-1.484-0.905c-0.91-0.419-1.117-0.551-1.555-0.904c-0.602-0.481-0.863-0.927-1.297-2.063
			c-0.377-0.998-0.487-1.199-0.765-1.503c-0.53-0.554-1.255-0.72-1.835-0.428c-0.221,0.11-0.621,0.496-0.766,0.729
			c-0.369,0.569-0.642,1.238-0.852,2.062c-0.471,1.833-0.579,3.007-0.385,4.107c0.076,0.494,0.236,0.889,0.489,1.275
			C174.369,131.957,174.772,132.398,174.959,132.553z"/>
	</g>
</g>
</svg>
