<?xml version="1.0" encoding="utf-8"?>
<!-- Generator: Adobe Illustrator 24.1.1, SVG Export Plug-In . SVG Version: 6.00 Build 0)  -->
<svg version="1.2" baseProfile="tiny" id="Calque_1"
	 xmlns="http://www.w3.org/2000/svg" xmlns:xlink="http://www.w3.org/1999/xlink" x="0px" y="0px" viewBox="0 0 177 183"
	 xml:space="preserve">
<path fill="#F4D35E" stroke="#000000" stroke-miterlimit="10" d="M161.7,170H14c-2.8,0-5-2.2-5-5V15c0-2.8,2.2-5,5-5h147.7
	c2.8,0,5,2.2,5,5v150C166.7,167.8,164.4,170,161.7,170z"/>
<g>
	<g>
		<image opacity="0.42" width="82" height="87" xlink:href="32C0D5C7.png"  transform="matrix(1 0 0 1 79 15)">
		</image>
		<g>
			<ellipse fill="#D8B901" cx="120.4" cy="58.4" rx="31.5" ry="33.6"/>
		</g>
	</g>
	<path fill="#FFE003" d="M123,24.8c17.4,0,31.5,15.1,31.5,33.6C154.5,77,140.4,92,123,92C105.6,92,91.5,77,91.5,58.4
		C91.5,39.8,105.6,24.8,123,24.8z"/>
	<path fill="#FFF3C2" d="M123,28.4c15.5,0,28.1,13.4,28.1,30c0,16.6-12.6,30-28.1,30c-15.5,0-28.1-13.4-28.1-30
		C94.9,41.8,107.5,28.4,123,28.4z"/>
	<g id="Layer_1">
		<g>
			<path fill="#D8B901" d="M126.4,72.1c-0.8,0-1.6,0.1-2.4,0.2c-1.3,0.2-2.6,0.1-3.9,0.4c-0.1,0-0.1,0-0.2,0
				c0.1,0.2,0.1,0.3,0.1,0.5c0.3,0.2,0.4,0.7,0.4,1c1.7-0.1,3.4-0.1,5.1,0c0.4,0,0.7,0,1.1,0c-0.3-0.3-0.3-0.9,0-1.2
				c0.1-0.1,0.2-0.4,0.3-0.3c0-0.1,0-0.1,0.1,0c0-0.2,0-0.4,0.1-0.6C126.7,72.1,126.5,72.1,126.4,72.1z"/>
			<path fill="#D8B901" d="M144.2,58.2C144.2,58.2,144.1,58.2,144.2,58.2c0,0.2-0.1,1.3-0.1,1.8c-1,0.4-1,1.1-1.2,1.8
				c-1.4,5.8-4.1,5.5-9.5,5.6c-2.5-0.1-4.6,0.3-5.9-1.4c-2.6-3.2-2-5.4-3.5-6.6c-0.4-0.3-1-0.3-1.5,0.2c-0.6,0.6-1,1.9-1.2,2.8
				c-1,4.2-4.1,5.9-8.5,6.1c-4.8,0.2-7.3,0.6-8.7-4.3c-0.5-1.5-0.3-2.1-1.4-2.5c0-0.2-0.1-2-0.1-2.4c0.7-0.3,1.4-0.8,1.4-0.9
				c0.5-1.7,1.2-3,2.6-3.5c3.3-1.1,11.4-1.4,15.4,1.2c0.7,0.5,1.8,0.5,2.7-0.1c4-2.8,9.4-2.8,13.4-2.6c2.5,0.2,3.5,0.8,4.3,3.6
				c0.4,0.3,0.8,0.5,1.3,0.7C144.1,58,144.1,57.7,144.2,58.2C144.2,58.1,144.2,58.1,144.2,58.2l-0.1-0.8c-0.3-2.1-1-4-1.9-5.7
				c-0.3-0.2-0.5-0.4-0.5-0.8c-0.1-2.4,0.2-4.8,0-7.2c-0.2-2-0.6-3.9-0.8-5.9c-0.1-0.1-0.1-0.3-0.2-0.4c-0.3-0.6-0.8-1.4-1.5-1.1
				c0,0-0.1,0-0.1,0.1c-0.3,0-0.5,0.2-0.7,0.5c-0.8,1.3-2,2.2-3.1,3.2c-1,1-1.7,2.2-2.8,3.1c-0.7-0.3-1.5-0.6-2.3-0.8
				c-1.8-0.5-2.6-0.7-3.2-0.8c0.4-1,0.7-2.2-0.1-2.8c-1.2-0.9-2.6,0.2-3.8,1.4c-0.2-0.3-0.7-0.5-1.1-0.3c-0.6,0.2-1.1,0.6-1.6,1
				c0,0,0,0,0,0c0-0.1,0-0.3-0.1-0.4c-0.1-0.7-0.9-1-1.5-0.6c-0.7,0.5-1.3,1.2-1.7,2c-0.1,0.3-0.2,0.5-0.3,0.8
				c-0.5,0.2-1.7,0.7-2.8,1.2c-1.1-0.9-2.1-1.8-3.1-2.8c-1-1.1-1.6-2.4-2.6-3.5c0,0,0,0,0,0c0,0,0,0,0,0c0-0.1-0.1-0.1-0.1-0.2
				c-0.3-0.3-0.6-0.5-0.9-0.3c-0.2,0.1-0.4,0.3-0.5,0.5c0,0,0,0.1-0.1,0.1c-0.2,0.9-0.4,1.8-0.7,2.7c-0.3,1.3-0.4,2.5-0.6,3.8
				c-0.3,2.7-0.5,5.5-0.8,8.2c0,0.2-0.1,0.3-0.1,0.4c0,0.2-0.1,0.4-0.2,0.5c-1.6,3.3-1.8,5.8-2,7.2l0,1.8l0.1,0.9
				c0.1,0.3,0.1,0.6,0.1,0.9l0.1,0.7c0.1,0.3,0.1,0.5,0.2,0.8c3.3,13.4,20.5,18.7,32.6,10.2c6.6-4.7,7.7-10.3,8.2-11.5l0.1-0.7
				c0.1-0.5,0.2-0.9,0.2-1.4l0.1-0.7l0-1.7C144.2,58.1,144.2,59,144.2,58.2z M121.2,66c1.4,0,2.9,0.2,4.3-0.1c1-0.2,1.4,1.4,0.4,1.6
				c-0.5,0.1-1,0.1-1.5,0.2c0,0.1-0.1,0.2-0.1,0.2c0,0,0,0.1,0,0.1c0,0,0-0.1,0-0.1c0,0.2,0,0.4-0.1,0.6c-0.1,0.2-0.3,0.3-0.5,0.4
				c-0.2,0.1-0.4,0-0.6-0.1c-0.2-0.1-0.3-0.3-0.4-0.5c0-0.2-0.1-0.4,0-0.7c-0.5,0-1,0-1.5,0C120.2,67.8,120.2,66.1,121.2,66z
				 M130.3,74.1c-0.1,0.1-0.1,0.2-0.2,0.3c-0.9,2.5-1.3,2.1-3.7,2.4c-1.7,0.2-2.4,0.4-4.2,0.2c0,0-1.9,0.1-1.9,0.1
				c-0.4-0.2-1.6-0.1-1.9-0.3c-0.7-0.4-2.1-0.1-2.5-0.9c-0.1-0.1-0.3-0.3-0.4-0.4c-0.3-0.4-0.3-0.8-0.3-1.1c0,0,0,0,0,0
				c-0.1-0.3,0-0.6,0.2-0.8c0,0,0-0.1,0-0.1c0-0.1,0.1-0.3,0.2-0.4c0,0,0-0.1,0.1-0.1c0.2-0.3,0.4-0.6,0.7-0.8
				c0.2-0.2,0.4-0.5,0.6-0.7c0.6-0.5,1.2-1.1,1.9-1.3c0.1,0,0.1-0.1,0.2-0.1c1.3-0.3,2.7-0.4,4-0.5c1-0.1,2.1-0.3,3.1,0c0,0,0,0,0,0
				c0.1,0,0.2,0,0.3,0c1.3,0.3,3.5,0.9,4.1,2.3C131.1,72.8,130.8,73.5,130.3,74.1z"/>
			<path fill="#D8B901" d="M119,56.7c2.2,1.6,0.4,8.4-5.5,9l0,0c-0.3,0.1-4.2,0.9-6.1-1.6c-1.4-1.7-1.8-3.3-1.2-5.2
				c0.7-2.3,1.3-2.4,2.3-2.7C109.7,56,116.1,55.4,119,56.7z"/>
			<path fill="#D8B901" d="M138.3,55.4c0.6,0.1,1.1,0.2,1.6,1c0.9,1.6,0.9,3.1,0.6,5c0,0,0,0.1,0,0.1c-0.1,0.3-0.3,1.6-3.3,2.9
				c-1.4,0.6-3.2,0.4-4.3,0.3c-3.4-0.5-5.3-1.9-5.5-5.4c-0.1-1,0.1-2.1,0.9-2.8c0.8-0.4,1.7-0.7,2.6-0.8
				C132.6,55.4,136.7,55.1,138.3,55.4z"/>
		</g>
	</g>
</g>
<text transform="matrix(1 0 0 1 31.6676 81.8266)" fill="#EEFD00" font-family="'MyriadPro-Regular'" font-size="48.3797px">2x</text>
<text transform="matrix(1 0 0 1 43.7298 142.0332)" fill="#E5FD00" font-family="'MyriadPro-Regular'" font-size="48.3797px">BUY</text>
</svg>
