<?xml version="1.0" encoding="utf-8"?>
<!-- Generator: Adobe Illustrator 24.1.1, SVG Export Plug-In . SVG Version: 6.00 Build 0)  -->
<svg version="1.1" id="Calque_1" xmlns="http://www.w3.org/2000/svg" xmlns:xlink="http://www.w3.org/1999/xlink" x="0px" y="0px"
	 viewBox="0 0 150 150" style="enable-background:new 0 0 150 150;" xml:space="preserve">
<style type="text/css">
	.st0{fill-rule:evenodd;clip-rule:evenodd;fill:#D8D8D8;stroke:#4F4343;stroke-width:4;stroke-miterlimit:10;}
	.st1{fill-rule:evenodd;clip-rule:evenodd;fill:#4F4343;}
</style>
<circle class="st0" cx="75" cy="75" r="72"/>
<g>
	<path class="st1" d="M75.01,102.42c-7.88,0-15.76,0-23.64,0c-1.04,0-2.07-0.09-3.04-0.45c-2.97-1.11-4.92-3.16-5.62-6.29
		c-0.13-0.6-0.16-1.23-0.16-1.84c-0.01-9.74,0.02-19.49-0.02-29.23c-0.02-4.11,2.68-6.85,5.3-7.94c0.97-0.4,1.98-0.62,3.03-0.62
		c2.56-0.01,5.12-0.01,7.68,0c0.18,0,0.26-0.05,0.32-0.22c0.5-1.31,1.03-2.6,1.5-3.91c0.58-1.63,1.72-2.75,3.2-3.57
		c0.93-0.51,1.92-0.74,2.99-0.74c5.6,0.01,11.21,0.02,16.81,0c1.5-0.01,2.81,0.44,4,1.31c1.05,0.76,1.84,1.73,2.29,2.97
		c0.48,1.33,1.02,2.65,1.52,3.97c0.06,0.15,0.13,0.2,0.29,0.2c2.53,0,5.05-0.02,7.58,0c2.49,0.02,4.57,1,6.25,2.82
		c1.14,1.23,1.85,2.67,2.09,4.33c0.06,0.44,0.09,0.89,0.09,1.34c0.01,9.8-0.02,19.59,0.01,29.39c0.01,4.56-3.48,7.59-6.53,8.26
		c-0.77,0.17-1.54,0.24-2.32,0.24C90.75,102.42,82.88,102.42,75.01,102.42z M75.13,94c1.33,0,2.78-0.18,4.2-0.58
		c2.43-0.69,4.52-1.96,6.33-3.71c1.66-1.6,2.94-3.45,3.71-5.63c0.74-2.09,0.94-4.24,0.73-6.44c-0.16-1.69-0.59-3.31-1.38-4.82
		c-2.92-5.58-8.74-9.21-15.97-8.24c-2.31,0.31-4.45,1.1-6.35,2.46c-3.86,2.76-6.24,6.4-6.54,11.24c-0.11,1.8,0.06,3.57,0.61,5.29
		c1.13,3.58,3.43,6.25,6.55,8.24C69.44,93.35,72.13,94,75.13,94z"/>
	<path class="st1" d="M75.02,69.72c3.93,0.1,6.85,1.91,8.75,5.35c0.58,1.05,0.85,2.21,0.93,3.41c0.1,1.44-0.07,2.83-0.6,4.17
		c-0.71,1.78-1.91,3.18-3.45,4.29c-1.48,1.07-3.14,1.62-4.96,1.73c-1.99,0.12-3.88-0.22-5.59-1.25c-2.42-1.46-4.12-3.5-4.65-6.34
		c-0.63-3.35,0.27-6.26,2.75-8.64c1.27-1.22,2.75-2.06,4.48-2.45c0.34-0.08,0.68-0.14,1.02-0.18
		C74.13,69.77,74.56,69.76,75.02,69.72z"/>
</g>
</svg>
