<?xml version="1.0" encoding="utf-8"?>
<!-- Generator: Adobe Illustrator 16.0.0, SVG Export Plug-In . SVG Version: 6.00 Build 0)  -->
<!DOCTYPE svg PUBLIC "-//W3C//DTD SVG 1.0//EN" "http://www.w3.org/TR/2001/REC-SVG-20010904/DTD/svg10.dtd">
<svg  v-if="v_coin" version="1.0" id="Calque3" xmlns="http://www.w3.org/2000/svg" xmlns:xlink="http://www.w3.org/1999/xlink" x="0px" y="0px"
	 width="183px" height="183px" viewBox="0 0 183 183" enable-background="new 0 0 183 183" xml:space="preserve">
<g>
	<g id="STAR1">
		<path fill="#010202" d="M144.515,34.138c-2.301-0.415-4.41-0.797-6.521-1.174c-1.416-0.253-2.836-0.485-4.249-0.76
			c-0.692-0.135-1.201-0.028-1.73,0.541c-2.119,2.277-4.246,4.554-6.489,6.708c-1.863,1.789-2.98,4.051-4.281,6.195
			c-5.735,9.463-11.426,18.954-17.129,28.436c-0.042,0.07-0.055,0.156,0.03,0.321C117.557,61.029,130.967,47.651,144.515,34.138z"/>
		<path fill="#010202" d="M123.318,40.387c-0.07-0.347-0.159-0.692-0.21-1.042c-0.544-3.656-1.109-7.309-1.596-10.971
			c-0.091-0.692-0.376-1.008-0.956-1.292c-3.38-1.646-6.743-3.326-10.111-4.997c-0.239-0.12-0.465-0.271-0.794-0.464
			c0.433-0.226,0.718-0.381,1.009-0.526c3.309-1.645,6.625-3.273,9.916-4.95c0.344-0.174,0.731-0.592,0.79-0.948
			c0.384-2.322,0.675-4.659,1.006-6.99c0.25-1.756,0.517-3.51,0.795-5.401c0.281,0.245,0.435,0.361,0.566,0.496
			c2.675,2.742,5.356,5.478,8.012,8.238c0.42,0.436,0.81,0.673,1.445,0.557c2.571-0.471,5.149-0.906,7.728-1.345
			c1.397-0.238,2.799-0.452,4.343-0.7c-0.183,0.404-0.275,0.643-0.395,0.87c-1.729,3.305-3.44,6.619-5.207,9.904
			c-0.354,0.66-0.356,1.151,0.013,1.8c0.872,1.535,1.657,3.12,2.473,4.686c1.035,1.984,2.067,3.97,3.164,6.075
			c-0.426-0.045-0.684-0.059-0.938-0.104c-3.444-0.601-6.9-1.156-10.329-1.837c-1.151-0.228-1.88,0.023-2.714,0.864
			c-2.644,2.673-5.408,5.229-8.125,7.83C123.24,40.222,123.279,40.305,123.318,40.387z M123.036,16.131
			c-0.079,0.594-0.306,0.91-0.836,1.168c-2.854,1.385-5.69,2.808-8.652,4.277c0.267,0.178,0.45,0.331,0.658,0.436
			c2.662,1.336,5.32,2.679,7.995,3.988c0.519,0.254,0.782,0.547,0.865,1.155c0.433,3.176,0.926,6.343,1.426,9.701
			c0.318-0.299,0.549-0.5,0.761-0.718c1.958-2.025,3.94-4.028,5.849-6.1c0.556-0.603,1.074-0.67,1.813-0.532
			c2.957,0.556,5.924,1.057,8.891,1.572c0.084,0.015,0.179-0.03,0.36-0.062c-0.985-1.892-1.948-3.743-2.913-5.592
			c-0.105-0.203-0.221-0.402-0.323-0.607c-0.522-1.05-1.451-2.103-1.449-3.151c0.005-1.053,0.93-2.107,1.468-3.154
			c1.042-2.031,2.093-4.058,3.227-6.252c-2.305,0.394-4.42,0.755-6.535,1.117c-1.031,0.176-2.073,0.31-3.092,0.544
			c-0.597,0.137-0.958-0.031-1.363-0.46c-2.019-2.147-4.073-4.262-6.119-6.385c-0.171-0.177-0.371-0.325-0.652-0.567
			C123.936,9.807,123.459,12.965,123.036,16.131z"/>
		<path fill="#010202" d="M101.591,73.68c6.228-15.231,12.457-30.462,18.722-45.782c-1.919-0.964-3.779-1.898-5.806-2.916
			c-4.378,16.267-8.733,32.452-13.09,48.637C101.476,73.64,101.533,73.66,101.591,73.68z"/>
		<path fill="#010202" d="M120.861,30.863c-6.493,15.155-12.986,30.311-19.479,45.466c0.058,0.03,0.115,0.061,0.173,0.091
			c0.481-0.817,0.966-1.632,1.441-2.452C109.364,62.981,115.733,51.994,122.09,41c0.169-0.292,0.32-0.678,0.278-0.992
			c-0.415-3.037-0.872-6.068-1.317-9.1C120.987,30.893,120.925,30.877,120.861,30.863z"/>
		<path fill="#010202" d="M102.129,67.98c1.232-4.979,2.465-9.96,3.7-14.939c2.315-9.33,4.627-18.661,6.963-27.986
			c0.15-0.603,0.113-0.947-0.517-1.209c-0.871-0.361-1.7-0.822-2.684-1.309c-2.556,15.204-5.094,30.31-7.634,45.417
			C102.016,67.964,102.071,67.973,102.129,67.98z"/>
		<path fill="#010202" d="M121.183,9.423c-0.982,2.257-1.964,4.515-3.065,7.042c0.897-0.449,1.534-0.752,2.153-1.088
			c0.147-0.08,0.313-0.26,0.337-0.416c0.281-1.838,0.536-3.679,0.798-5.52C121.331,9.436,121.257,9.429,121.183,9.423z"/>
		<path fill="#F4DD0A" d="M124.413,6.508c-0.478,3.299-0.955,6.458-1.377,9.623c-0.079,0.594-0.306,0.91-0.836,1.168
			c-2.854,1.385-5.69,2.808-8.652,4.277c0.267,0.178,0.45,0.331,0.658,0.436c2.662,1.336,5.32,2.679,7.995,3.988
			c0.519,0.254,0.782,0.547,0.865,1.155c0.433,3.176,0.926,6.343,1.426,9.701c0.318-0.299,0.549-0.5,0.761-0.718
			c1.958-2.025,3.94-4.028,5.849-6.1c0.556-0.603,1.074-0.67,1.813-0.532c2.957,0.556,5.924,1.057,8.891,1.572
			c0.084,0.015,0.179-0.03,0.36-0.062c-0.985-1.892-1.948-3.743-2.913-5.592c-0.105-0.203-0.221-0.402-0.323-0.607
			c-0.522-1.05-1.451-2.103-1.449-3.151c0.005-1.053,0.93-2.107,1.468-3.154c1.042-2.031,2.093-4.058,3.227-6.252
			c-2.305,0.394-4.42,0.755-6.535,1.117c-1.031,0.176-2.073,0.31-3.092,0.544c-0.597,0.137-0.958-0.031-1.363-0.46
			c-2.019-2.147-4.073-4.262-6.119-6.385C124.895,6.898,124.694,6.75,124.413,6.508z"/>
	</g>
	<g id="STAR2">
		<path fill="#010202" d="M103.788,78.59c-0.096-0.163-0.129-0.365,0.071-0.75c31.431,31.266,51.32,25.28,61.604,28.613
			c-5.383,0.977-10.32,1.879-15.255,2.768c-3.314,0.597-6.64,1.146-9.943,1.79c-1.625,0.317-2.813,0.07-4.051-1.262
			c-4.968-5.322-9.954-10.644-15.211-15.679L103.788,78.59z"/>
		<path fill="#010202" d="M115.563,92.47c6.368,6.082,12.845,12.053,19.042,18.304c1.952,1.966,3.66,2.552,6.355,2.016
			c8.023-1.605,16.108-2.918,24.17-4.334c0.594-0.104,1.199-0.137,2.195-0.246c-2.56,4.93-4.972,9.582-7.386,14.23
			c-1.908,3.665-3.739,7.376-5.776,10.971c-0.859,1.521-0.854,2.673-0.021,4.213c4.145,7.685,8.161,15.432,12.215,23.164
			c0.279,0.532,0.501,1.092,0.929,2.036c-3.615-0.577-6.896-1.075-10.167-1.625c-6.034-1.015-12.069-2.03-18.092-3.123
			c-1.487-0.272-2.399,0.283-3.38,1.307c-6.207,6.467-12.474,12.879-18.725,19.306c-0.311,0.317-0.668,0.589-1.324,1.163
			c-0.658-4.425-1.286-8.527-1.877-12.639c-0.784-5.455-1.474-10.926-2.374-16.358c-0.14-0.833-1.049-1.81-1.854-2.217
			c-7.71-3.911-15.476-7.715-23.223-11.554c-0.683-0.337-1.349-0.699-2.364-1.229c0.77-0.451,1.294-0.807,1.859-1.086
			c7.875-3.924,15.742-7.865,23.646-11.729c1.355-0.664,2.022-1.404,2.235-3.023c1.126-8.574,2.438-17.126,3.698-25.685
			c0.12-0.817,0.322-1.626,0.488-2.44C115.745,92.084,115.654,92.279,115.563,92.47z M118.504,171.181
			c0.656-0.567,1.125-0.913,1.525-1.329c4.78-4.974,9.581-9.931,14.303-14.961c0.946-1.007,1.792-1.4,3.189-1.084
			c2.385,0.545,4.823,0.854,7.238,1.263c4.951,0.843,9.901,1.682,15.298,2.595c-2.66-5.134-5.128-9.872-7.572-14.624
			c-1.261-2.447-3.429-4.911-3.441-7.378c-0.012-2.455,2.16-4.923,3.381-7.38c0.237-0.48,0.504-0.944,0.751-1.422
			c2.251-4.331,4.5-8.664,6.802-13.098c-0.425-0.072-0.647-0.176-0.847-0.143c-6.937,1.218-13.881,2.396-20.802,3.707
			c-1.728,0.323-2.941,0.171-4.246-1.24c-4.473-4.841-9.118-9.523-13.705-14.259c-0.496-0.511-1.037-0.979-1.784-1.678
			c-1.16,7.86-2.305,15.277-3.307,22.71c-0.193,1.426-0.811,2.112-2.021,2.707c-6.257,3.073-12.476,6.223-18.7,9.358
			c-0.486,0.246-0.915,0.604-1.537,1.021c6.935,3.428,13.577,6.748,20.263,9.983c1.242,0.6,1.773,1.341,1.959,2.73
			C116.248,156.072,117.377,163.463,118.504,171.181z"/>
		<path fill="#010202" d="M101.587,79.054c7.066,24.417,8.153,37.394,7.254,42.076c-4.489,2.265-8.84,4.456-13.579,6.847
			c0.267-3.326,16.163-10.912,5.918-48.781C101.314,79.148,101.451,79.102,101.587,79.054z"/>
		<path fill="#010202" d="M112.958,90.461c0.395,0.681,0.754,1.586,0.652,2.324c-0.959,7.107-2.021,14.201-3.052,21.3
			c-0.148,0.037-0.296,0.072-0.442,0.107c-0.577-5.882-2.479-21.438-8.531-35.396c0.135-0.069,0.272-0.142,0.407-0.214
			L112.958,90.461z"/>
		<path fill="#010202" d="M100.657,79.791c2.903,11.652,4.037,16.896,2.289,29.814c-2.2,9.147-3.738,9.58-9.953,18.381
			c-0.685,1.548-1.478,2.04-2.951,2.652c-2.037,0.851-3.976,1.933-6.277,3.07c8.528-27.954,22.482-18.51,16.491-53.856
			C100.393,79.829,100.524,79.811,100.657,79.791z"/>
		<path fill="#F4DD0A" d="M118.504,171.181c-1.127-7.718-2.256-15.108-3.254-22.519c-0.187-1.39-0.717-2.13-1.96-2.73
			c-6.685-3.234-13.328-6.557-20.262-9.984c0.621-0.417,1.051-0.775,1.536-1.021c6.225-3.137,12.443-6.286,18.7-9.359
			c1.211-0.595,1.829-1.279,2.021-2.707c1.003-7.431,2.146-14.849,3.307-22.708c0.747,0.697,1.288,1.165,1.784,1.677
			c4.587,4.735,9.233,9.417,13.706,14.259c1.304,1.411,2.518,1.563,4.246,1.239c6.921-1.31,13.865-2.488,20.801-3.705
			c0.199-0.035,0.422,0.069,0.847,0.141c-2.301,4.434-4.551,8.767-6.801,13.099c-0.248,0.478-0.515,0.94-0.751,1.422
			c-1.223,2.457-3.394,4.924-3.382,7.379c0.013,2.468,2.182,4.931,3.441,7.379c2.444,4.752,4.912,9.49,7.572,14.624
			c-5.396-0.914-10.347-1.753-15.298-2.595c-2.413-0.407-4.854-0.719-7.238-1.262c-1.397-0.318-2.242,0.075-3.189,1.083
			c-4.721,5.029-9.522,9.987-14.303,14.961C119.63,170.268,119.16,170.613,118.504,171.181z"/>
	</g>
	<g id="STAR3">
		<path fill="#010202" d="M76.818,154.822c-1.766-2.188-3.388-4.192-5.005-6.198c-1.084-1.35-2.151-2.713-3.256-4.045
			c-0.543-0.654-0.724-1.25-0.429-2.137c1.177-3.551,2.349-7.11,3.326-10.721c0.812-3,2.551-5.484,4.061-8.095
			c6.667-11.518,13.391-23.001,20.097-34.495c0.049-0.083,0.133-0.147,0.356-0.152C89.607,110.852,83.245,132.726,76.818,154.822z"
			/>
		<path fill="#010202" d="M70.836,128.874c-1.175,4.37-2.273,8.761-3.565,13.096c-0.407,1.365-0.25,2.277,0.655,3.361
			c2.699,3.224,5.281,6.546,7.905,9.833c0.194,0.241,0.357,0.507,0.652,0.929c-2.854,0.06-5.545,0.118-8.236,0.174
			c-2.124,0.042-4.247,0.13-6.371,0.098c-0.896-0.014-1.416,0.272-1.906,1.026c-2.444,3.762-4.949,7.481-7.438,11.212
			c-0.171,0.257-0.369,0.495-0.689,0.921c-0.631-1.772-1.214-3.375-1.771-4.985c-1.028-2.972-2.057-5.942-3.047-8.927
			c-0.244-0.739-0.718-1.014-1.422-1.204c-4.445-1.206-8.88-2.452-13.317-3.69c-0.22-0.062-0.429-0.156-0.85-0.31
			c1.833-1.387,3.528-2.68,5.237-3.959c2.267-1.697,4.563-3.355,6.792-5.1c0.341-0.268,0.558-0.918,0.543-1.382
			c-0.135-4.44-0.332-8.879-0.508-13.316c-0.016-0.392-0.017-0.781-0.027-1.369c0.393,0.236,0.683,0.386,0.949,0.571
			c3.708,2.584,7.423,5.161,11.111,7.775c0.634,0.447,1.132,0.566,1.915,0.264c4.144-1.604,8.323-3.118,12.494-4.656
			c0.398-0.148,0.812-0.255,1.22-0.381C71.055,128.861,70.944,128.868,70.836,128.874z M36.063,149.582
			c0.418,0.157,0.69,0.281,0.975,0.36c3.421,0.932,6.838,1.876,10.269,2.767c0.688,0.179,1.074,0.463,1.274,1.172
			c0.341,1.21,0.802,2.385,1.212,3.574c0.84,2.44,1.68,4.879,2.598,7.539c1.66-2.464,3.189-4.744,4.73-7.018
			c0.794-1.17,1.371-2.755,2.479-3.368c1.104-0.609,2.753-0.237,4.161-0.293c0.276-0.011,0.55-0.005,0.827-0.011
			c2.508-0.053,5.016-0.104,7.581-0.158c-0.072-0.21-0.08-0.336-0.145-0.418c-2.256-2.828-4.498-5.668-6.793-8.468
			c-0.573-0.698-0.802-1.284-0.487-2.22c1.084-3.209,2.05-6.456,3.056-9.691c0.108-0.35,0.187-0.71,0.317-1.218
			c-3.831,1.412-7.457,2.724-11.056,4.101c-0.691,0.265-1.152,0.155-1.719-0.244c-2.926-2.066-5.877-4.096-8.826-6.129
			c-0.23-0.16-0.498-0.265-0.838-0.442c0.161,3.973,0.299,7.785,0.488,11.596c0.035,0.708-0.168,1.131-0.749,1.557
			C42.322,144.845,39.267,147.173,36.063,149.582z"/>
		<path fill="#010202" d="M93.727,86.704c-12.467,15.368-24.933,30.738-37.47,46.196c-2.128-1.467-4.186-2.89-6.431-4.438
			c14.628-14.016,29.182-27.962,43.737-41.908C93.617,86.604,93.672,86.654,93.727,86.704z"/>
		<path fill="#010202" d="M59.7,131.768c12.232-15.607,24.465-31.211,36.698-46.816c0.065,0.043,0.133,0.087,0.197,0.131
			c-0.584,0.98-1.164,1.962-1.754,2.936c-7.909,13.064-15.817,26.13-23.742,39.186c-0.21,0.347-0.53,0.731-0.887,0.867
			c-3.442,1.317-6.902,2.587-10.357,3.869C59.804,131.881,59.751,131.823,59.7,131.768z"/>
		<path fill="#010202" d="M88.026,90.563c-4.54,4.178-9.082,8.355-13.62,12.537c-8.504,7.83-17.009,15.659-25.497,23.51
			c-0.548,0.509-0.933,0.667-1.571,0.154c-0.885-0.708-1.851-1.316-2.931-2.073c14.56-11.48,29.026-22.886,43.493-34.292
			C87.943,90.454,87.983,90.509,88.026,90.563z"/>
		<path fill="#010202" d="M37.271,144.49c1.813-2.34,3.628-4.679,5.658-7.3c0.045,1.206,0.094,2.052,0.097,2.897
			c0,0.204-0.094,0.483-0.245,0.597c-1.777,1.358-3.57,2.692-5.362,4.031C37.37,144.64,37.32,144.565,37.271,144.49z"/>
		<path fill="#F4DD0A" d="M36.063,149.582c3.204-2.409,6.258-4.738,9.354-7.013c0.581-0.427,0.784-0.847,0.749-1.556
			c-0.188-3.811-0.327-7.624-0.487-11.596c0.341,0.177,0.608,0.281,0.838,0.442c2.947,2.033,5.9,4.063,8.825,6.128
			c0.567,0.399,1.028,0.509,1.719,0.244c3.598-1.377,7.224-2.688,11.055-4.1c-0.13,0.508-0.209,0.867-0.317,1.217
			c-1.006,3.235-1.972,6.482-3.055,9.692c-0.315,0.935-0.086,1.521,0.487,2.22c2.294,2.799,4.536,5.639,6.792,8.469
			c0.065,0.081,0.073,0.206,0.145,0.417c-2.566,0.054-5.073,0.106-7.581,0.157c-0.277,0.007-0.552,0.001-0.827,0.012
			c-1.41,0.055-3.057-0.317-4.161,0.293c-1.109,0.612-1.686,2.197-2.48,3.368c-1.541,2.273-3.07,4.553-4.73,7.017
			c-0.917-2.659-1.757-5.099-2.597-7.538c-0.41-1.188-0.872-2.365-1.212-3.575c-0.201-0.709-0.586-0.992-1.274-1.172
			c-3.431-0.891-6.848-1.835-10.27-2.766C36.753,149.865,36.482,149.739,36.063,149.582z"/>
	</g>
	<g id="STAR4">
		<path fill="#010202" d="M32.477,66.9c2.367-2.021,4.534-3.875,6.704-5.723c1.458-1.242,2.936-2.462,4.375-3.725
			c0.707-0.62,1.361-0.838,2.352-0.538c3.962,1.195,7.935,2.382,11.958,3.354c3.342,0.807,6.144,2.656,9.077,4.246
			c12.939,7.027,25.845,14.114,38.762,21.185c0.093,0.052,0.167,0.142,0.179,0.39C81.497,79.715,57.11,73.34,32.477,66.9z"/>
		<path fill="#010202" d="M60.995,59.498c-4.869-1.167-9.759-2.249-14.59-3.547c-1.521-0.408-2.528-0.208-3.7,0.826
			c-3.484,3.083-7.08,6.041-10.637,9.042c-0.262,0.223-0.55,0.411-1.007,0.749c-0.153-3.154-0.298-6.129-0.441-9.104
			c-0.111-2.347-0.272-4.694-0.3-7.043c-0.012-0.993-0.344-1.558-1.194-2.077c-4.234-2.59-8.424-5.249-12.627-7.888
			c-0.29-0.181-0.557-0.393-1.039-0.734c1.942-0.752,3.695-1.444,5.46-2.11c3.257-1.226,6.512-2.454,9.784-3.639
			c0.808-0.293,1.098-0.826,1.288-1.609c1.201-4.953,2.445-9.896,3.679-14.841c0.062-0.246,0.16-0.479,0.317-0.95
			c1.59,1.986,3.072,3.822,4.538,5.674c1.945,2.455,3.848,4.945,5.845,7.357c0.307,0.371,1.031,0.589,1.544,0.56
			c4.907-0.283,9.811-0.635,14.714-0.964c0.433-0.03,0.864-0.042,1.514-0.074c-0.25,0.443-0.407,0.767-0.603,1.068
			c-2.749,4.18-5.487,8.366-8.266,12.525c-0.476,0.714-0.592,1.269-0.232,2.126c1.898,4.535,3.7,9.112,5.529,13.678
			c0.176,0.437,0.306,0.892,0.458,1.339C61.016,59.741,61.005,59.618,60.995,59.498z M37.039,21.663
			c-0.16,0.467-0.292,0.771-0.369,1.089c-0.927,3.812-1.867,7.621-2.75,11.443c-0.176,0.765-0.48,1.2-1.257,1.444
			c-1.328,0.414-2.614,0.959-3.917,1.449c-2.673,1.003-5.346,2.005-8.259,3.1c2.776,1.763,5.343,3.385,7.904,5.02
			c1.318,0.842,3.088,1.433,3.8,2.641c0.708,1.204,0.347,3.036,0.449,4.594c0.021,0.304,0.023,0.608,0.038,0.914
			c0.133,2.772,0.267,5.544,0.403,8.381c0.23-0.085,0.368-0.099,0.458-0.173c3.061-2.582,6.134-5.147,9.162-7.77
			c0.755-0.654,1.396-0.926,2.439-0.606c3.584,1.1,7.205,2.071,10.814,3.086c0.39,0.109,0.789,0.185,1.355,0.314
			c-1.678-4.194-3.237-8.166-4.87-12.104c-0.313-0.755-0.206-1.269,0.218-1.909c2.195-3.298,4.352-6.625,6.512-9.946
			c0.169-0.26,0.278-0.559,0.463-0.941c-4.388,0.298-8.602,0.566-12.81,0.89c-0.782,0.06-1.254-0.152-1.743-0.782
			C42.468,28.443,39.801,25.135,37.039,21.663z"/>
		<path fill="#010202" d="M108.331,83.54C90.956,70.216,73.58,56.894,56.101,43.493c1.559-2.396,3.071-4.717,4.715-7.246
			c15.945,15.756,31.81,31.432,47.674,47.108C108.438,83.416,108.385,83.479,108.331,83.54z"/>
		<path fill="#010202" d="M57.459,47.268c17.632,13.058,35.26,26.116,52.89,39.176c-0.046,0.073-0.093,0.147-0.138,0.222
			c-1.102-0.617-2.205-1.228-3.302-1.852C92.222,76.462,77.532,68.11,62.852,59.741c-0.39-0.222-0.825-0.564-0.986-0.954
			c-1.562-3.767-3.07-7.557-4.592-11.339C57.335,47.387,57.397,47.327,57.459,47.268z"/>
		<path fill="#010202" d="M103.89,77.353c-4.759-4.896-9.515-9.793-14.276-14.685c-8.92-9.169-17.836-18.339-26.777-27.49
			c-0.578-0.591-0.767-1.011-0.217-1.733c0.756-1,1.399-2.086,2.205-3.304c13.136,15.757,26.191,31.412,39.244,47.067
			C104.01,77.257,103.949,77.304,103.89,77.353z"/>
		<path fill="#010202" d="M42.708,22.846c2.642,1.935,5.284,3.871,8.245,6.038c-1.333,0.086-2.267,0.165-3.201,0.194
			c-0.226,0.007-0.537-0.089-0.668-0.252c-1.555-1.924-3.083-3.867-4.62-5.808C42.545,22.959,42.625,22.902,42.708,22.846z"/>
		<path fill="#F4DD0A" d="M37.039,21.663c2.762,3.472,5.429,6.78,8.041,10.135c0.487,0.628,0.96,0.841,1.743,0.782
			c4.209-0.324,8.422-0.592,12.81-0.891c-0.186,0.383-0.294,0.682-0.463,0.942c-2.16,3.321-4.316,6.647-6.512,9.947
			c-0.424,0.639-0.532,1.153-0.218,1.909c1.632,3.939,3.191,7.909,4.869,12.104c-0.566-0.13-0.966-0.205-1.355-0.314
			c-3.609-1.015-7.23-1.986-10.814-3.086c-1.042-0.32-1.684-0.049-2.439,0.606c-3.027,2.623-6.101,5.188-9.162,7.77
			c-0.089,0.075-0.227,0.088-0.458,0.173c-0.136-2.836-0.271-5.608-0.403-8.381c-0.015-0.305-0.017-0.61-0.038-0.914
			c-0.104-1.557,0.259-3.391-0.449-4.594c-0.712-1.208-2.482-1.798-3.8-2.641c-2.561-1.635-5.128-3.258-7.904-5.021
			c2.914-1.094,5.586-2.096,8.259-3.1c1.304-0.489,2.59-1.035,3.917-1.449c0.777-0.244,1.081-0.679,1.257-1.444
			c0.882-3.821,1.823-7.631,2.75-11.443C36.748,22.436,36.878,22.13,37.039,21.663z"/>
	</g>
</g>
<g>
	<ellipse fill="#D8B904" cx="89.753" cy="91.449" rx="41.515" ry="44.27"/>
	<path fill="#FFE00A" d="M93.187,47.179c22.926,0,41.51,19.821,41.51,44.27c0,24.448-18.584,44.27-41.51,44.27
		c-22.93,0-41.515-19.821-41.515-44.27C51.671,67,70.257,47.179,93.187,47.179z"/>
	<path fill="#FFF3C2" d="M93.187,51.969c20.447,0,37.021,17.676,37.021,39.48c0,21.804-16.574,39.48-37.021,39.48
		c-20.452,0-37.029-17.677-37.029-39.48C56.159,69.645,72.735,51.969,93.187,51.969z"/>
	<g id="Layer_1_1_">
		<g>
			<path fill="#D8B904" d="M97.659,109.514c-1.071,0.035-2.143,0.145-3.209,0.31c-1.704,0.265-3.432,0.145-5.138,0.519
				c-0.091,0.021-0.192,0.037-0.293,0.055c0.132,0.201,0.186,0.452,0.173,0.693c0.423,0.281,0.581,0.856,0.463,1.33
				c2.221-0.132,4.438-0.103,6.658-0.062c0.468-0.007,0.926-0.013,1.393-0.013c-0.363-0.405-0.407-1.143,0.018-1.572
				c0.095-0.1,0.304-0.46,0.363-0.445c0.01-0.07,0.037-0.08,0.082-0.021c-0.058-0.291-0.024-0.562,0.091-0.797
				C98.057,109.511,97.859,109.504,97.659,109.514z"/>
			<path fill="#D8B904" d="M121.108,91.143c-0.016,0.006-0.077,0.016-0.097,0.022c0.07,0.261,0.029,1.632,0.02,2.303
				c-1.321,0.58-1.292,1.445-1.538,2.35c-1.888,7.57-5.376,7.223-12.467,7.319c-3.32-0.068-6.018,0.346-7.702-1.882
				c-3.417-4.26-2.623-7.115-4.561-8.662c-0.577-0.453-1.32-0.433-1.94,0.209c-0.822,0.847-1.318,2.485-1.556,3.658
				c-1.358,5.579-5.386,7.821-11.239,7.97c-6.256,0.209-9.57,0.824-11.513-5.684c-0.605-1.996-0.407-2.742-1.812-3.252
				c-0.009-0.293-0.075-2.686-0.083-3.1c0.895-0.375,1.861-0.992,1.901-1.14c0.672-2.177,1.529-3.945,3.447-4.61
				c4.333-1.508,15.004-1.883,20.268,1.594c0.924,0.613,2.42,0.674,3.605-0.168c5.219-3.721,12.322-3.748,17.666-3.406
				c3.257,0.202,4.612,1.086,5.722,4.749c0.53,0.392,1.098,0.697,1.707,0.934c0.069,0.625,0.017,0.142,0.082,0.791
				c0.021-0.051,0.109,0,0.089-0.061l-0.102-0.942c-0.395-2.786-1.282-5.201-2.485-7.442c-0.346-0.205-0.609-0.571-0.643-1.11
				c-0.189-3.16,0.209-6.355-0.047-9.505c-0.208-2.597-0.773-5.13-0.987-7.722c-0.086-0.183-0.175-0.369-0.266-0.549
				c-0.42-0.82-1.04-1.907-2.04-1.444c-0.044,0.02-0.091,0.045-0.135,0.073c-0.35,0.051-0.69,0.25-0.95,0.641
				c-1.08,1.665-2.672,2.907-4.057,4.27c-1.3,1.284-2.269,2.922-3.644,4.125c-0.981-0.406-1.981-0.75-3.002-1.038
				c-2.316-0.631-3.368-0.864-4.162-0.994c0.522-1.314,0.942-2.879-0.101-3.702c-1.533-1.217-3.44,0.284-4.957,1.785
				c-0.319-0.424-0.886-0.646-1.388-0.451c-0.81,0.321-1.425,0.808-2.1,1.372c-0.003,0-0.003,0-0.006,0
				c-0.022-0.176-0.049-0.35-0.085-0.521c-0.172-0.866-1.24-1.253-1.927-0.765c-0.977,0.697-1.708,1.532-2.253,2.648
				c-0.165,0.343-0.304,0.713-0.442,1.087c-0.659,0.219-2.179,0.902-3.64,1.556c-1.431-1.151-2.828-2.33-4.07-3.705
				c-1.28-1.417-2.148-3.182-3.477-4.557c-0.017-0.016-0.032-0.029-0.049-0.046c-0.018-0.021-0.03-0.037-0.043-0.055
				c-0.053-0.084-0.11-0.155-0.173-0.215c-0.375-0.434-0.751-0.621-1.155-0.441c-0.287,0.129-0.51,0.375-0.708,0.629
				c-0.03,0.043-0.059,0.086-0.085,0.132c-0.221,1.186-0.561,2.323-0.865,3.513c-0.428,1.655-0.563,3.292-0.75,4.981
				c-0.394,3.618-0.634,7.236-1.035,10.851c-0.024,0.202-0.076,0.378-0.153,0.533c-0.02,0.239-0.115,0.48-0.221,0.691
				c-2.154,4.358-2.349,7.577-2.589,9.516l0.019,2.328l0.086,1.13c0.069,0.372,0.088,0.752,0.142,1.126l0.116,0.885
				c0.142,0.329,0.183,0.704,0.277,1.053c4.31,17.663,26.982,24.56,42.883,13.386c8.746-6.14,10.121-13.576,10.729-15.148
				l0.16-0.871c0.109-0.597,0.202-1.201,0.305-1.804l0.14-0.882l0.021-2.241C121.116,91.053,121.102,92.193,121.108,91.143z
				 M90.835,101.52c1.891-0.048,3.752,0.235,5.645-0.126c1.323-0.255,1.892,1.885,0.554,2.136c-0.684,0.138-1.355,0.19-2.027,0.22
				c-0.031,0.11-0.079,0.213-0.146,0.313c0,0.05,0.007,0.101,0.012,0.151c-0.005-0.038-0.012-0.08-0.018-0.122
				c0.028,0.256,0.013,0.484-0.124,0.733c-0.135,0.254-0.364,0.451-0.623,0.532c-0.271,0.098-0.568,0.063-0.813-0.081
				c-0.208-0.126-0.442-0.38-0.481-0.649c-0.044-0.313-0.066-0.574-0.026-0.871c-0.645-0.007-1.297-0.019-1.957-0.003
				C89.479,103.792,89.479,101.557,90.835,101.52z M102.854,112.089c-0.067,0.148-0.135,0.297-0.216,0.438
				c-1.139,3.285-1.775,2.808-4.833,3.213c-2.2,0.289-3.127,0.512-5.511,0.273c-0.029-0.019-2.507,0.098-2.542,0.072
				c-0.583-0.252-2.071-0.106-2.553-0.345c-0.959-0.477-2.721-0.088-3.342-1.167c-0.194-0.154-0.376-0.348-0.535-0.58
				c-0.344-0.502-0.431-1-0.334-1.439c0,0,0,0-0.003-0.003c-0.094-0.368,0.022-0.819,0.278-1.11
				c0.003-0.042,0.006-0.084,0.019-0.123c0.05-0.196,0.152-0.37,0.287-0.52c0.031-0.047,0.057-0.096,0.091-0.147
				c0.25-0.399,0.544-0.749,0.871-1.058c0.251-0.313,0.52-0.608,0.791-0.879c0.739-0.718,1.586-1.452,2.552-1.769
				c0.079-0.038,0.167-0.072,0.271-0.084c1.754-0.336,3.517-0.536,5.283-0.696c1.33-0.123,2.798-0.407,4.103-0.029
				c0,0,0.006,0,0.01,0c0.108-0.013,0.222-0.013,0.344,0.016c1.757,0.377,4.6,1.161,5.43,3.015
				C103.845,110.359,103.514,111.289,102.854,112.089z"/>
			<path fill="#D8B904" d="M87.965,89.266c2.879,2.151,0.52,11.076-7.259,11.883l-0.004-0.007c-0.371,0.072-5.502,1.126-8.007-2.11
				c-1.824-2.303-2.35-4.313-1.625-6.829c0.971-3.03,1.75-3.166,2.996-3.51C75.633,88.317,84.113,87.51,87.965,89.266z"/>
			<path fill="#D8B904" d="M113.379,87.523c0.829,0.166,1.481,0.255,2.107,1.358c1.182,2.099,1.175,4.076,0.813,6.568
				c-0.015,0.044-0.015,0.098-0.021,0.141c-0.16,0.337-0.439,2.134-4.381,3.86c-1.794,0.763-4.214,0.521-5.642,0.33
				c-4.469-0.607-6.97-2.532-7.242-7.109c-0.104-1.255,0.16-2.806,1.124-3.623c1.06-0.565,2.205-0.895,3.357-1.109
				C105.77,87.504,111.194,87.153,113.379,87.523z"/>
		</g>
	</g>
</g>
</svg>
