<?xml version="1.0" encoding="utf-8"?>
<!-- Generator: Adobe Illustrator 16.0.0, SVG Export Plug-In . SVG Version: 6.00 Build 0)  -->
<!DOCTYPE svg PUBLIC "-//W3C//DTD SVG 1.1//EN" "http://www.w3.org/Graphics/SVG/1.1/DTD/svg11.dtd">
<svg version="1.1" id="Calque_1" xmlns="http://www.w3.org/2000/svg" xmlns:xlink="http://www.w3.org/1999/xlink" x="0px" y="0px"
	 width="183px" height="183px" viewBox="-77.5 -77.5 183 183" enable-background="new -77.5 -77.5 183 183" xml:space="preserve">
<g>
	<ellipse fill="#D8B901" cx="11.564" cy="14" rx="58.947" ry="62.859"/>
	<path fill="#FFE003" d="M16.438-48.859c32.553,0,58.942,28.143,58.942,62.859c0,34.714-26.39,62.859-58.942,62.859
		C-16.12,76.859-42.51,48.714-42.51,14C-42.51-20.716-16.12-48.859,16.438-48.859z"/>
	<path fill="#FFF3C2" d="M16.438-42.059c29.033,0,52.568,25.098,52.568,56.059c0,30.96-23.535,56.059-52.568,56.059
		c-29.04,0-52.577-25.099-52.577-56.059C-36.138-16.961-12.601-42.059,16.438-42.059z"/>
	<g id="Layer_1">
		<g>
			<path fill="#D8B901" d="M22.789,39.65c-1.521,0.05-3.042,0.205-4.556,0.44c-2.421,0.375-4.873,0.205-7.296,0.736
				c-0.129,0.029-0.273,0.052-0.416,0.079c0.188,0.284,0.264,0.641,0.245,0.984c0.601,0.399,0.825,1.215,0.658,1.888
				c3.153-0.188,6.3-0.146,9.453-0.088c0.664-0.009,1.314-0.018,1.976-0.018c-0.514-0.576-0.578-1.622,0.027-2.231
				c0.133-0.143,0.431-0.655,0.514-0.633c0.014-0.1,0.054-0.113,0.118-0.031c-0.082-0.413-0.036-0.798,0.129-1.132
				C23.353,39.646,23.073,39.637,22.789,39.65z"/>
			<path fill="#D8B901" d="M56.084,13.564c-0.022,0.009-0.109,0.023-0.137,0.032c0.101,0.371,0.041,2.318,0.027,3.27
				c-1.874,0.824-1.833,2.053-2.182,3.336c-2.68,10.75-7.634,10.256-17.701,10.394c-4.716-0.098-8.546,0.49-10.938-2.672
				c-4.852-6.049-3.725-10.104-6.475-12.3c-0.82-0.644-1.875-0.614-2.755,0.296c-1.167,1.203-1.872,3.53-2.21,5.194
				c-1.929,7.923-7.647,11.107-15.958,11.317c-8.883,0.298-13.589,1.17-16.348-8.069c-0.859-2.835-0.578-3.894-2.573-4.619
				c-0.013-0.415-0.107-3.814-0.117-4.401c1.271-0.533,2.642-1.409,2.699-1.619c0.955-3.091,2.172-5.602,4.894-6.546
				c6.152-2.142,21.305-2.674,28.778,2.262c1.312,0.871,3.438,0.958,5.12-0.238c7.41-5.284,17.495-5.321,25.084-4.837
				c4.624,0.286,6.549,1.542,8.125,6.743c0.751,0.557,1.558,0.99,2.424,1.326c0.097,0.887,0.023,0.202,0.115,1.123
				c0.031-0.071,0.155,0,0.127-0.085l-0.146-1.338c-0.56-3.955-1.819-7.385-3.528-10.567c-0.49-0.291-0.866-0.811-0.913-1.576
				c-0.27-4.486,0.298-9.023-0.067-13.496c-0.294-3.688-1.096-7.284-1.402-10.965c-0.12-0.259-0.248-0.523-0.376-0.779
				c-0.596-1.164-1.476-2.708-2.896-2.051c-0.064,0.028-0.129,0.064-0.193,0.104c-0.495,0.073-0.98,0.355-1.348,0.91
				c-1.534,2.364-3.794,4.128-5.76,6.063c-1.847,1.821-3.221,4.149-5.174,5.856c-1.394-0.578-2.813-1.065-4.262-1.474
				c-3.289-0.896-4.783-1.226-5.91-1.411c0.742-1.865,1.337-4.088-0.143-5.256c-2.177-1.728-4.885,0.403-7.039,2.534
				c-0.453-0.601-1.258-0.917-1.97-0.639c-1.15,0.456-2.024,1.146-2.981,1.947c-0.005,0-0.005,0-0.009,0
				c-0.032-0.25-0.07-0.497-0.121-0.74c-0.245-1.23-1.761-1.78-2.736-1.086c-1.388,0.99-2.426,2.174-3.2,3.76
				c-0.234,0.488-0.432,1.012-0.628,1.544c-0.935,0.31-3.093,1.281-5.167,2.209c-2.032-1.634-4.016-3.309-5.78-5.261
				c-1.817-2.012-3.05-4.518-4.937-6.471c-0.024-0.022-0.046-0.041-0.07-0.066c-0.025-0.028-0.043-0.051-0.061-0.078
				c-0.075-0.119-0.156-0.22-0.246-0.305c-0.533-0.617-1.067-0.882-1.64-0.626c-0.408,0.184-0.724,0.532-1.006,0.892
				c-0.042,0.062-0.083,0.124-0.121,0.188c-0.314,1.684-0.797,3.299-1.229,4.988c-0.607,2.351-0.8,4.674-1.065,7.072
				c-0.559,5.137-0.9,10.276-1.469,15.409c-0.034,0.286-0.107,0.536-0.217,0.756c-0.028,0.339-0.163,0.681-0.314,0.981
				c-3.059,6.188-3.336,10.759-3.677,13.512l0.027,3.305l0.122,1.604c0.098,0.528,0.126,1.068,0.202,1.599l0.165,1.256
				c0.202,0.468,0.259,1.001,0.394,1.495c6.12,25.079,38.313,34.872,60.891,19.008c12.418-8.72,14.371-19.278,15.232-21.51
				l0.229-1.238c0.154-0.847,0.287-1.705,0.43-2.561l0.201-1.252l0.028-3.182C56.095,13.438,56.075,15.057,56.084,13.564z
				 M13.099,28.299c2.684-0.068,5.328,0.334,8.014-0.179c1.879-0.361,2.686,2.677,0.788,3.033c-0.972,0.194-1.926,0.271-2.879,0.312
				c-0.045,0.156-0.113,0.303-0.21,0.445c0,0.07,0.01,0.143,0.019,0.215c-0.009-0.055-0.019-0.113-0.027-0.174
				c0.041,0.363,0.019,0.688-0.175,1.041c-0.192,0.361-0.518,0.642-0.885,0.757c-0.385,0.138-0.806,0.09-1.153-0.115
				c-0.296-0.179-0.628-0.54-0.684-0.922c-0.063-0.445-0.094-0.815-0.038-1.237c-0.915-0.01-1.841-0.027-2.778-0.005
				C11.175,31.526,11.175,28.351,13.099,28.299z M30.167,43.307c-0.097,0.21-0.192,0.422-0.308,0.623
				c-1.617,4.664-2.521,3.986-6.863,4.561c-3.122,0.411-4.44,0.727-7.823,0.389c-0.041-0.027-3.56,0.138-3.609,0.102
				c-0.829-0.357-2.941-0.151-3.626-0.49c-1.362-0.676-3.864-0.124-4.745-1.656c-0.275-0.219-0.534-0.494-0.759-0.824
				c-0.488-0.713-0.612-1.42-0.474-2.044c0,0,0,0-0.005-0.004c-0.133-0.522,0.032-1.163,0.395-1.577
				c0.004-0.059,0.009-0.119,0.027-0.174c0.071-0.279,0.216-0.526,0.408-0.738c0.044-0.067,0.081-0.136,0.129-0.21
				c0.354-0.567,0.772-1.063,1.237-1.502c0.357-0.445,0.738-0.862,1.123-1.247c1.049-1.019,2.252-2.062,3.623-2.511
				c0.112-0.055,0.237-0.102,0.384-0.12c2.491-0.477,4.994-0.761,7.501-0.989c1.889-0.174,3.973-0.578,5.825-0.041
				c0,0,0.009,0,0.014,0c0.155-0.018,0.315-0.018,0.489,0.023c2.493,0.535,6.531,1.648,7.708,4.279
				C31.573,40.852,31.102,42.171,30.167,43.307z"/>
			<path fill="#D8B901" d="M9.025,10.9c4.088,3.054,0.738,15.727-10.308,16.873l-0.005-0.009c-0.527,0.102-7.813,1.599-11.37-2.997
				c-2.59-3.269-3.336-6.123-2.308-9.696c1.379-4.303,2.486-4.496,4.254-4.984C-8.486,9.553,3.554,8.407,9.025,10.9z"/>
			<path fill="#D8B901" d="M45.11,8.425c1.178,0.236,2.103,0.362,2.992,1.929c1.677,2.979,1.668,5.786,1.154,9.325
				c-0.022,0.063-0.022,0.139-0.031,0.201c-0.226,0.477-0.624,3.029-6.22,5.481c-2.547,1.082-5.983,0.741-8.01,0.468
				c-6.346-0.862-9.897-3.594-10.283-10.094c-0.15-1.782,0.226-3.984,1.595-5.144c1.503-0.802,3.131-1.271,4.767-1.576
				C34.304,8.398,42.008,7.901,45.11,8.425z"/>
		</g>
	</g>
</g>
</svg>
