<?xml version="1.0" encoding="utf-8"?>
<!-- Generator: Adobe Illustrator 16.0.0, SVG Export Plug-In . SVG Version: 6.00 Build 0)  -->
<!DOCTYPE svg PUBLIC "-//W3C//DTD SVG 1.1//EN" "http://www.w3.org/Graphics/SVG/1.1/DTD/svg11.dtd">
<svg version="1.1" id="Calque_1" xmlns="http://www.w3.org/2000/svg" xmlns:xlink="http://www.w3.org/1999/xlink" x="0px" y="0px"
	 width="378.5px" height="302px" viewBox="0 76.5 378.5 302" enable-background="new 0 76.5 378.5 302" xml:space="preserve">
<g id="Calque_2">
</g>
<g id="Layer_1">
	<g>
		<path d="M204.121,255.655c-4.088-0.008-8.176,0.236-12.24,0.676c-6.502,0.704-13.084,0.068-19.584,1.166
			c-0.346,0.059-0.726,0.113-1.117,0.168c0.49,0.732,0.703,1.623,0.658,2.506c1.613,1.061,2.211,3.133,1.766,4.816
			c8.461-0.174,16.92,0.22,25.381,0.682c1.768,0.03,3.535,0.066,5.303,0.116c-1.387-1.509-1.553-4.126,0.059-5.616
			c0.367-0.341,1.164-1.604,1.395-1.543c0.039-0.236,0.143-0.275,0.324-0.064c-0.225-1.037-0.1-2.006,0.322-2.844
			C205.633,255.679,204.877,255.656,204.121,255.655z"/>
		<path d="M293.521,193.099c-0.059,0.012-0.309,0.047-0.365,0.056c0.254,0.948,0.111,5.848,0.07,8.247
			c-5.035,1.906-4.932,4.988-5.852,8.201c-7.215,26.802-20.523,25.093-47.541,24.506c-12.66-0.68-22.957,0.425-29.363-7.764
			c-13.033-15.687-10.012-25.785-17.4-31.563c-2.203-1.707-5.04-1.732-7.406,0.477c-3.127,2.928-5.021,8.717-5.92,12.865
			c-5.182,19.789-20.548,27.258-42.857,27.018c-23.849-0.104-36.483,1.65-43.895-21.867c-2.304-7.226-1.553-9.846-6.912-11.862
			c-0.038-1.054-0.296-9.619-0.315-11.089c3.412-1.23,7.092-3.293,7.241-3.834c2.564-7.684,5.831-13.899,13.151-16.001
			c16.503-4.827,57.193-4.744,77.265,8.385c3.526,2.306,9.23,2.739,13.752-0.125c19.9-12.611,46.988-11.756,67.35-9.823
			c12.418,1.142,17.594,4.495,21.828,17.736c2.021,1.477,4.182,2.639,6.492,3.572c0.262,2.256,0.059,0.521,0.297,2.844
			c0.1-0.161,0.43,0.016,0.359-0.203l-0.406-3.375c-1.482-10.006-4.877-18.757-9.477-26.949c-1.32-0.77-2.32-2.119-2.445-4.051
			c-0.729-11.317,0.787-22.701-0.18-33.994c-0.797-9.316-2.945-18.448-3.76-27.748c-0.33-0.669-0.666-1.335-1.012-1.997
			c-1.57-2.999-3.928-6.961-7.746-5.446c-0.168,0.064-0.342,0.152-0.516,0.242c-1.334,0.147-2.641,0.807-3.605,2.168
			c-4.129,5.821-10.184,10.043-15.467,14.738c-4.961,4.409-8.662,10.149-13.906,14.247c-3.73-1.573-7.551-2.94-11.428-4.107
			c-8.83-2.578-12.828-3.536-15.879-4.114c1.98-4.62,3.584-10.161-0.385-13.248c-5.848-4.543-13.111,0.56-18.9,5.722
			c-1.219-1.556-3.373-2.428-5.297-1.786c-3.08,1.029-5.434,2.686-8.008,4.615c-0.006,0.003-0.011,0.006-0.016,0.01
			c-0.092-0.629-0.193-1.257-0.326-1.883c-0.656-3.115-4.721-4.645-7.345-2.988c-3.75,2.367-6.521,5.246-8.603,9.17
			c-0.639,1.203-1.162,2.509-1.688,3.821c-2.504,0.695-8.313,2.933-13.874,5.077c-5.45-4.296-10.782-8.697-15.526-13.786
			c-4.872-5.226-8.189-11.663-13.25-16.75c-0.063-0.063-0.128-0.116-0.191-0.174c-0.049-0.066-0.099-0.14-0.148-0.203
			c-0.202-0.304-0.422-0.569-0.658-0.796c-1.438-1.599-2.877-2.322-4.416-1.72c-1.092,0.418-1.939,1.27-2.688,2.141
			c-0.116,0.149-0.222,0.304-0.335,0.456c-0.841,4.215-2.144,8.241-3.307,12.458c-1.617,5.865-2.146,11.698-2.848,17.716
			c-1.502,12.871-2.423,25.794-3.944,38.661c-0.083,0.704-0.286,1.325-0.571,1.874c-0.082,0.855-0.442,1.697-0.844,2.442
			c-8.217,15.299-8.962,26.783-9.876,33.688l0.079,8.321l0.322,4.051c0.28,1.332,0.342,2.703,0.55,4.049l0.432,3.17
			c0.55,1.209,0.696,2.541,1.056,3.81c16.435,63.709,102.872,91.387,163.491,53.569c33.363-20.795,38.604-47.199,40.904-52.739
			l0.633-3.08c0.395-2.136,0.76-4.278,1.152-6.414l0.553-3.127l0.066-8.021C293.537,192.783,293.51,196.847,293.521,193.099z
			 M178.09,226.164c7.213,0.084,14.322,1.344,21.52,0.31c5.043-0.726,7.217,6.981,2.127,7.715c-2.604,0.373-5.17,0.498-7.723,0.511
			c-0.131,0.391-0.313,0.767-0.566,1.104c0.006,0.18,0.016,0.359,0.035,0.541c-0.018-0.141-0.037-0.281-0.057-0.423
			c0.098,0.911,0.037,1.734-0.465,2.595c-0.525,0.895-1.393,1.563-2.393,1.838c-1.031,0.283-2.158,0.139-3.082-0.402
			c-0.807-0.473-1.691-1.423-1.838-2.391c-0.169-1.117-0.242-2.061-0.1-3.117c-2.465-0.124-4.943-0.25-7.461-0.279
			C172.935,234.104,172.928,226.104,178.09,226.164z M223.945,265.572c-0.256,0.516-0.539,1.03-0.842,1.542
			c-4.344,11.585-17.754,19.956-29.42,20.998c-8.372,0.746-16.995,0.664-24.158-4.266c-0.123-0.084-0.24-0.176-0.361-0.262
			c-2.222-0.977-4.33-2.077-6.166-2.982c-3.656-1.803-9.117-4.756-11.482-8.691c-0.748-0.585-1.44-1.283-2.047-2.146
			c-1.305-1.851-1.633-3.631-1.272-5.189c-0.001-0.005-0.004-0.01-0.006-0.016c-0.362-1.316,0.075-2.924,1.056-3.947
			c0.022-0.143,0.028-0.279,0.069-0.43c0.188-0.688,0.583-1.309,1.099-1.802c0.109-0.178,0.217-0.356,0.336-0.532
			c0.959-1.4,2.075-2.603,3.325-3.662c0.952-1.09,1.976-2.108,3.024-3.029c2.814-2.467,6.05-4.994,9.727-5.988
			c0.305-0.128,0.646-0.225,1.032-0.279c6.687-0.953,13.396-1.424,20.137-1.771c5.067-0.262,10.659-1.092,15.626,0.416
			c0.016,0.005,0.029,0.011,0.047,0.016c0.414-0.031,0.85-0.021,1.316,0.092c6.699,1.59,17.535,4.754,20.688,11.506
			C227.705,259.501,226.438,262.787,223.945,265.572z"/>
		<path d="M172.287,178.853c12.801,9.437,2.309,46.311-32.312,48.477l-0.021-0.035c-1.632,0.234-24.482,3.85-35.641-10.039
			c-8.113-9.902-10.449-18.361-7.23-28.757c4.317-12.492,7.789-12.953,13.335-14.18
			C117.389,172.989,155.135,170.946,172.287,178.853z"/>
		<path d="M268.924,174.329c3.871,0.854,6.91,1.361,9.834,6.284c5.527,9.403,5.508,18.065,3.813,28.935
			c-0.092,0.203-0.088,0.428-0.123,0.645c-0.734,1.443-2.055,9.271-20.488,16.187c-8.383,3.054-19.703,1.617-26.35,0.535
			c-20.896-3.396-32.604-12.237-33.873-32.354c-0.494-5.526,0.748-12.29,5.254-15.696c4.949-2.298,10.311-3.555,15.691-4.319
			C233.324,173.002,258.709,172.35,268.924,174.329z"/>
	</g>
</g>
<g id="footprint2">
	<path fill="#010202" d="M44.031,247.258c-1.909,2.226-2.815,4.317-3.378,7.241c-0.949,4.945,0.055,10.335,2.917,15.936
		c2.079,4.084,4.821,7.034,8.198,9.105c1.7,1.03,2.73,1.386,4.459,1.755c3.114,0.683,5.791,0.309,7.989-1.155
		c1.217-0.84,1.958-1.62,2.811-3.205c3.156-5.59,2.875-13.152-0.637-20.266c-1.475-2.976-4.298-6.691-6.497-8.481
		c-3.575-2.977-8.179-4.245-12.058-3.157C46.613,245.296,44.673,246.415,44.031,247.258z"/>
	<path fill="#010202" d="M13.073,268.719c-2.487,3.177-2.992,8.065-1.379,12.662c0.217,0.614,0.905,2.071,1.601,3.198
		c3.773,6.765,10.396,11.843,17.176,13.092c2.714,0.525,5.934,0.363,8.117-0.398c3.064-1.075,5.521-4.946,5.646-8.931
		c0.083-3.809-1.074-7.433-3.67-11.241c-1.528-2.303-2.945-3.894-4.931-5.646c-5.756-5.061-12.162-7.051-18.133-5.508
		C16.061,266.338,13.885,267.719,13.073,268.719z"/>
	<path fill="#010202" d="M80.32,259.712c-2.642,2.674-4.277,6.902-4.472,11.149c-0.189,4.243,0.697,8.338,2.729,12.597
		c1.137,2.39,1.739,3.249,3.079,4.688c2.15,2.296,4.661,3.812,7.292,4.354c1.805,0.353,3.227,0.254,4.689-0.236
		c3.458-1.157,6.373-5.005,7.534-9.747c0.729-3.085,0.528-7.819-0.427-11.28c-0.9-3.185-2.745-6.784-4.49-8.921
		c-1.612-1.919-3.951-3.596-6.034-4.459c-0.763-0.29-2.616-0.673-3.58-0.711C84.439,256.883,82.069,257.892,80.32,259.712z"/>
	<path fill="#010202" d="M13.746,306.818c-2.999,2.713-4.051,6.608-2.878,10.306c0.976,2.8,2.495,5.438,4.49,7.601
		c3.521,3.897,8.091,6.534,12.92,7.509c3.31,0.639,5.923,0.525,8.912-0.326c3.611-1.031,5.758-3.472,6.327-7.138
		c0.49-3.241-0.164-5.702-2.492-9.397c-1.107-1.693-1.481-2.274-2.599-3.433c-3.574-3.76-7.783-6.063-12.737-7.049
		c-3.361-0.675-6.605-0.628-8.751,0.123C16.02,305.334,14.267,306.375,13.746,306.818z"/>
	<path fill="#010202" d="M58.852,300.836c-5.647,4.936-9.269,12.558-9.591,20.21c-0.281,6.492,0.268,12.641,1.673,18.185
		c0.898,3.765,2.67,8.323,3.715,9.913c2.378,3.561,7.054,5.558,10.954,4.713c1.536-0.334,3.142-1.09,4.436-2.157
		c2.352-1.865,3.735-3.484,7.128-8.179c3.556-5.094,4.576-6.271,7.214-8.569c3.608-3.13,6.604-4.311,14.04-5.762
		c6.538-1.212,7.868-1.705,10.049-3.081c3.955-2.674,5.753-6.897,4.583-10.807c-0.441-1.464-2.391-4.345-3.662-5.47
		c-3.085-2.832-6.915-5.261-11.745-7.428c-10.737-4.841-17.833-6.772-24.79-6.746c-3.098-0.027-5.704,0.496-8.342,1.644
		C63.146,297.847,59.999,299.844,58.852,300.836z"/>
</g>
<g id="footprint2_1_">
	<path fill="#010202" d="M351.26,288.176c-2.56-1.431-4.789-1.905-7.767-1.88c-5.035,0.048-10.12,2.097-15.045,6.009
		c-3.593,2.845-5.942,6.117-7.306,9.837c-0.674,1.869-0.818,2.95-0.839,4.718c-0.054,3.187,0.842,5.737,2.711,7.603
		c1.063,1.026,1.976,1.6,3.697,2.122c6.104,1.989,13.462,0.22,19.74-4.629c2.626-2.033,5.711-5.535,7.03-8.045
		c2.212-4.092,2.546-8.856,0.713-12.442C353.692,290.319,352.212,288.639,351.26,288.176z"/>
	<path fill="#010202" d="M324.104,262.069c-3.605-1.81-8.497-1.338-12.685,1.15c-0.56,0.334-1.852,1.296-2.819,2.201
		c-5.885,5.036-9.555,12.531-9.439,19.425c0.021,2.765,0.817,5.89,1.995,7.878c1.659,2.792,5.939,4.436,9.87,3.771
		c3.75-0.67,7.074-2.521,10.295-5.818c1.955-1.954,3.234-3.657,4.56-5.95c3.823-6.643,4.508-13.315,1.815-18.864
		C327.028,264.527,325.244,262.668,324.104,262.069z"/>
	<path fill="#010202" d="M346.222,326.211c-3.143-2.063-7.611-2.829-11.813-2.182c-4.196,0.653-8.035,2.332-11.809,5.164
		c-2.118,1.587-2.841,2.348-3.987,3.946c-1.826,2.561-2.815,5.321-2.828,8.008c0.012,1.84,0.39,3.214,1.158,4.55
		c1.818,3.162,6.166,5.259,11.044,5.46c3.169,0.105,7.77-1.027,10.974-2.647c2.944-1.513,6.108-4.031,7.857-6.165
		c1.563-1.959,2.744-4.584,3.179-6.796c0.134-0.806,0.143-2.698-0.011-3.65C349.81,329.689,348.352,327.564,346.222,326.211z"/>
	<path fill="#010202" d="M286.889,270.259c-3.252-2.404-7.278-2.665-10.671-0.785c-2.552,1.51-4.838,3.521-6.564,5.903
		c-3.124,4.222-4.806,9.223-4.807,14.149c0.027,3.371,0.655,5.91,2.08,8.671c1.725,3.337,4.541,4.958,8.248,4.793
		c3.273-0.161,5.557-1.288,8.72-4.3c1.44-1.421,1.937-1.903,2.851-3.227c2.979-4.247,4.405-8.828,4.394-13.879
		c-0.003-3.428-0.69-6.599-1.851-8.555C288.793,272.193,287.426,270.681,286.889,270.259z"/>
	<path fill="#010202" d="M301.666,313.292c-5.953-4.56-14.142-6.604-21.706-5.406c-6.42,1.007-12.339,2.76-17.495,5.232
		c-3.514,1.624-7.632,4.262-8.983,5.602c-3.021,3.034-4.055,8.013-2.456,11.669c0.632,1.439,1.689,2.865,2.991,3.922
		c2.294,1.938,4.154,2.974,9.427,5.372c5.696,2.479,7.051,3.247,9.826,5.378c3.781,2.919,5.53,5.623,8.422,12.625
		c2.48,6.169,3.227,7.376,5.007,9.241c3.402,3.349,7.898,4.277,11.499,2.358c1.348-0.722,3.787-3.202,4.639-4.671
		c2.166-3.585,3.79-7.817,4.96-12.981c2.623-11.482,3.114-18.819,1.714-25.634c-0.585-3.042-1.613-5.493-3.26-7.853
		C305.445,316.912,302.866,314.221,301.666,313.292z"/>
</g>
</svg>
