<?xml version="1.0" encoding="utf-8"?>
<!-- Generator: Adobe Illustrator 16.0.0, SVG Export Plug-In . SVG Version: 6.00 Build 0)  -->
<!DOCTYPE svg PUBLIC "-//W3C//DTD SVG 1.1//EN" "http://www.w3.org/Graphics/SVG/1.1/DTD/svg11.dtd">
<svg version="1.1" id="Layer_1" xmlns="http://www.w3.org/2000/svg" xmlns:xlink="http://www.w3.org/1999/xlink" x="0px" y="0px"
	 width="256px" height="256px" viewBox="0 0 256 256" enable-background="new 0 0 256 256" xml:space="preserve">
<g>
	<path d="M231.677,156.904c0.396-2.136,0.761-4.278,1.152-6.414l0.554-3.127l0.066-8.021c-0.334-7.806-0.362-3.742-0.35-7.49
		c-0.059,0.011-0.309,0.046-0.365,0.055c0.253,0.948,0.111,5.848,0.069,8.247c-5.034,1.907-4.931,4.989-5.851,8.202
		c-7.215,26.801-20.523,25.092-47.541,24.506c-12.66-0.68-22.957,0.424-29.363-7.765c-13.033-15.686-10.012-25.785-17.4-31.562
		c-2.203-1.707-5.041-1.732-7.407,0.477c-3.127,2.928-5.022,8.717-5.92,12.865c-5.182,19.789-20.548,27.258-42.858,27.018
		c-23.849-0.104-36.483,1.65-43.894-21.867c-2.304-7.226-1.553-9.846-6.912-11.863c-0.038-1.053-0.296-9.619-0.315-11.089
		c3.412-1.23,7.092-3.293,7.241-3.834c2.564-7.683,5.831-13.899,13.151-16.001c16.503-4.827,57.193-4.744,77.265,8.385
		c3.526,2.306,9.231,2.739,13.751-0.125c19.902-12.611,46.988-11.756,67.35-9.823c12.419,1.142,17.595,4.495,21.829,17.736
		c2.021,1.477,4.181,2.639,6.492,3.572c0.262,2.256,0.058,0.521,0.297,2.844c0.1-0.161,0.43,0.016,0.359-0.203l-0.406-3.375
		c-1.566-10.567-5.246-19.742-10.244-28.328c-0.582-0.884-0.363-2.009-0.057-2.95c6.95-21.328,3.537-44.14-6.572-63.459
		c-1.57-2.999-3.928-6.961-7.745-5.446c-3.456,1.312-7.84,8.129-9.298,11.148c-5.073,10.649-15.052,22.415-16.885,22.983
		c-0.771,0.224-1.554-0.114-2.24-0.446c-5.303-2.604-10.846-4.695-16.499-6.397c-15.424-4.502-16.106-4.067-22.752-5.284
		c-0.386-0.036-0.76-0.071-1.107-0.105c-5.043-0.489-10.096-1.122-15.175-0.89c-4.226,0.193-8.238,1.104-12.365,1.751
		c-1.645,0.304-3.347,0.51-5.005,0.851c-1.029,0.472-2.063,0.851-3.142,1.146c-3.334,1.16-5.134,1.365-6.669,1.784
		c-3.594,0.94-15.474,5.747-22.18,8.217c-3.134-4.341-6.409-8.584-9.32-13.082C58.241,38.504,54.042,24.2,48.622,26.321
		c-1.092,0.418-1.939,1.27-2.688,2.141c-2.779,3.573-4.746,7.684-6.62,11.781c-8.413,19.021-10.521,38.008-4.476,58.178
		c0.352,1.252-0.163,2.55-0.753,3.646c-8.217,15.298-8.962,26.783-9.876,33.688l0.079,8.321l0.322,4.051
		c0.28,1.332,0.342,2.703,0.55,4.048l0.432,3.171c0.55,1.208,0.696,2.541,1.056,3.809c16.435,63.709,102.873,91.387,163.492,53.57
		c33.362-20.795,38.603-47.199,40.903-52.74L231.677,156.904z"/>
	<path d="M111.865,117.606c12.801,9.436,2.309,46.31-32.312,48.476l-0.02-0.035c-1.632,0.234-24.482,3.849-35.641-10.039
		c-8.113-9.902-10.449-18.361-7.23-28.757c4.317-12.492,7.789-12.953,13.335-14.179C56.967,111.742,94.713,109.699,111.865,117.606z
		"/>
	<path d="M208.502,113.082c3.87,0.854,6.91,1.362,9.834,6.284c5.527,9.403,5.507,18.065,3.813,28.935
		c-0.092,0.203-0.088,0.428-0.123,0.645c-0.735,1.443-2.056,9.27-20.49,16.186c-8.381,3.053-19.702,1.617-26.349,0.535
		c-20.896-3.396-32.604-12.238-33.872-32.355c-0.494-5.526,0.748-12.289,5.253-15.696c4.949-2.297,10.311-3.554,15.692-4.319
		C172.903,111.755,198.287,111.103,208.502,113.082z"/>
</g>
<path fill="none" stroke="#FFFFFF" stroke-miterlimit="10" d="M117.167,193c0,0-40.629-0.5-91.898,11.167"/>
<path fill="none" stroke="#FFFFFF" stroke-miterlimit="10" d="M117.167,196.167c0,0-40.629,6.333-91.898,18"/>
<path fill="none" stroke="#FFFFFF" stroke-miterlimit="10" d="M117.167,200.167c0,0-42.167,8-90,22.667"/>
<path fill="none" stroke="#FFFFFF" stroke-miterlimit="10" d="M140.27,193c0,0,40.629-0.5,91.897,11.167"/>
<path fill="none" stroke="#FFFFFF" stroke-miterlimit="10" d="M140.27,196.167c0,0,40.629,6.333,91.897,18"/>
<path fill="none" stroke="#FFFFFF" stroke-miterlimit="10" d="M140.27,200.167c0,0,42.166,8,90,22.667"/>
</svg>
