<?xml version="1.0" encoding="utf-8"?>
<svg version="1.1" id="Layer_1" xmlns="http://www.w3.org/2000/svg" xmlns:xlink="http://www.w3.org/1999/xlink" x="0px" y="0px"
	 viewBox="0 0 2010.01 1668.128" enable-background="new 0 0 2010.01 1668.128" xml:space="preserve">
<g>
	<path d="M381.757,35.721c42.561-16.657,75.526,95.654,131.862,183.896c22.864,35.315,48.57,68.632,73.181,102.712
		c52.651-19.393,145.931-57.134,174.146-64.515c16.489-4.503,44.245-2.148,78.503-31.459
		c9.925-8.232,115.739-126.972,146.302-157.96c4.468-4.599,9.73-8.314,14.299-12.803c1.858,0.864,3.665,1.807,5.473,2.791
		c-2.079,8.776-3.625,17.693-6.296,26.328c-38.713,123.864-27.338,75.005-30.736,116.971c48.684-12.754,81.07-58.61,126.781-81.465
		c-8.086,42.511-17.551,72.535-0.482,94.358c20.122,26.949,49.331,9.188,186.055,49.102c44.393,13.365,87.912,29.782,129.543,50.227
		c5.392,2.611,11.537,5.262,17.592,3.504c14.391-4.462,92.739-96.84,132.575-180.452c11.444-23.707,45.869-77.23,73-87.53
		c29.975-11.901,48.48,19.214,60.81,42.756c79.374,151.693,106.174,330.803,51.602,498.259c-2.4,7.39-4.127,16.227,0.452,23.165
		c39.233,67.414,67.303,143.901,79.597,226.863c1.647,0.653,3.304,1.325,4.97,2.008c-0.11,0.592-0.341,1.757-0.452,2.35
		c0.522,4.639-0.683,9.238-0.402,13.897c0.552,1.717-0.924,2.842-1.707,4.107c-0.432-7.32-1.697-14.54-2.54-21.8
		c-18.155-7.33-36.109-15.684-51.974-27.282c-33.246-103.962-73.883-130.289-171.395-139.253
		c-159.87-15.176-491.858,18.142-519.205,23.035c-71.379,10.47-68.424,8.697-101.297,5.051
		c-134.539-16.79-493.343-53.716-622.922-15.815c-57.477,16.502-83.12,65.315-103.255,125.637
		c-1.174,4.245-30.07,20.439-56.854,30.104c0.144,11.539,2.174,78.8,2.47,87.068c42.076,15.836,36.186,36.408,54.273,93.143
		c58.189,184.653,157.387,241.545,344.637,242.357c175.168,1.882,295.816-127.417,336.504-282.793
		c7.052-32.58,21.926-78.026,46.481-101.015c18.573-17.342,40.856-17.145,58.149-3.745c58.023,45.355,34.29,148.207,136.632,271.366
		c50.299,64.29,131.138,110.587,230.538,115.927c212.142,4.6,316.625-60.503,373.275-270.934
		c7.227-25.218,6.408-49.418,45.939-64.395c0.332-18.841,2.501-57.421,0.512-64.867c0.452-0.07,1.356-0.231,1.807-0.311
		c-0.093,29.419,0.132-2.482,2.751,58.802c8.242-2.795,118.626-39.312,123.96-40.647c1.828,7.702,5.031,15.002,6.848,22.693
		c-31.259,9.911-62.216,20.786-93.384,30.977c-43.294,15.487-40.1,9.168-37.946,49.965c40.708,4.268,81.565,7.41,122.293,11.407
		c-0.05,7.832,0,15.674-0.03,23.507c-42.173-3.675-84.427-6.688-126.611-10.363c-3.073,16.769-5.944,33.588-9.047,50.357
		c86.924,24.773,126.5,34.798,149.927,42.123c-1.516,7.672-2.621,15.413-4.006,23.105c-50.307-13.636-100.624-27.262-150.891-41.039
		c-18.062,43.498-59.206,250.823-321.151,414.093c-475.962,296.919-1154.643,79.606-1283.679-420.61
		c-2.832-9.961-3.976-20.424-8.294-29.913c-38.769,12.12-77.177,25.394-115.897,37.695c-2.249-7.471-4.589-14.911-7.26-22.231
		c3.572-1.447,115.515-38.964,119.763-40.356c-1.637-10.563-2.119-21.328-4.318-31.781c-3.961,0.023,4.821,0.859-152.186-13.817
		c0,0,1.928-22.972,1.928-22.974c48.319,3.806,96.617,7.943,144.936,11.477c1.195-2.028,3.022-3.956,2.791-6.487
		c1.239-47.388,13.055-36.983-130.939-76.274c3.633-25.048,2.611-24.026,6.276-22.794c41.28,11.487,82.78,22.191,124.04,33.729
		c7.183-54.222,13.031-144.396,77.549-264.508c4.639-8.605,8.676-18.797,5.914-28.628c-47.46-158.364-30.906-307.445,35.145-456.789
		c14.711-32.172,30.154-64.445,51.974-92.5C366.534,45.692,373.181,39.005,381.757,35.721 M857.463,1292.631
		c-7.029,2.892-14.429,6.025-22.191,5.211c-12.799-5.436,1.886-16.372,4.077-21.147c-7.936-2.308-24.901,1.439-27.363,13.415
		c-6.087,43.722,68.452,58.119,112.643,52.697c50.602-6.406,85.342-42.359,92.5-54.966c5.287,12.517,31.154,31.064,43.328,38.719
		c32.031,20.731,76.515,20.01,113.718,11.788c64.311-15.96,56.833-70.526,20.113-61.523c2.049,3.708,16.827,15.531,4.609,21.026
		c-15.314,1.717-50.229-18.612-61.352-26.158c-45.679-32.808-74.519-68.617-118.327-20.213c-0.854,0.683-1.536,2.239-2.862,1.868
		c-8.515-9.449-18.054-18.767-30.295-23.085C948.503,1216.239,921.847,1263.38,857.463,1292.631z"/>
	<path d="M878.319,752.459c100.507,74.082,18.127,457.822-253.703,474.833l-0.151-0.281
		c-12.816,1.841-192.224,14.515-279.841-94.529c-63.704-77.748-82.04-222.678-56.773-304.302
		c33.896-98.08,61.153-101.699,104.701-111.328C447.284,706.409,743.648,690.373,878.319,752.459z"/>
	<path d="M1637.069,716.933c30.392,6.711,54.266,10.699,77.218,49.343c43.403,73.832,43.236,141.836,29.933,227.184
		c-0.723,1.587-0.693,3.354-0.964,5.061c-5.774,11.327-16.142,151.299-160.882,205.596
		c-65.804,23.965-154.692,28.406-206.881,19.902c-164.067-26.66-255.987-190.311-265.944-348.262
		c-3.886-43.388,5.866-96.486,41.24-123.237c38.86-18.034,80.953-27.905,123.207-33.909
		C1357.568,706.517,1556.87,701.39,1637.069,716.933z"/>
</g>
</svg>
