<?xml version="1.0" encoding="utf-8"?>
<!-- Generator: Adobe Illustrator 16.0.0, SVG Export Plug-In . SVG Version: 6.00 Build 0)  -->
<!DOCTYPE svg PUBLIC "-//W3C//DTD SVG 1.1//EN" "http://www.w3.org/Graphics/SVG/1.1/DTD/svg11.dtd">
<svg version="1.1" id="Calque_1" xmlns="http://www.w3.org/2000/svg" xmlns:xlink="http://www.w3.org/1999/xlink" x="0px" y="0px"
	 width="334px" height="349px" fill="#13293D " viewBox="136.5 121.5 334 349" enable-background="new 136.5 121.5 334 349" xml:space="preserve">
<g id="Calque_2">
</g>
<g id="Layer_1">
	<g>
		<path d="M321.621,362.154c-4.088-0.008-8.176,0.236-12.24,0.676c-6.502,0.704-13.084,0.068-19.584,1.166
			c-0.346,0.059-0.727,0.113-1.117,0.168c0.49,0.732,0.703,1.623,0.658,2.506c1.613,1.061,2.211,3.133,1.766,4.816
			c8.461-0.174,16.92,0.22,25.381,0.682c1.768,0.03,3.535,0.066,5.303,0.116c-1.387-1.509-1.553-4.126,0.059-5.616
			c0.367-0.341,1.164-1.604,1.395-1.543c0.039-0.236,0.143-0.275,0.324-0.064c-0.225-1.037-0.1-2.006,0.322-2.844
			C323.133,362.178,322.377,362.155,321.621,362.154z"/>
		<path d="M411.021,299.598c-0.059,0.012-0.309,0.047-0.365,0.056c0.254,0.948,0.111,5.848,0.07,8.247
			c-5.035,1.906-4.932,4.988-5.852,8.201c-7.215,26.802-20.523,25.093-47.541,24.506c-12.66-0.68-22.957,0.425-29.363-7.764
			c-13.033-15.687-10.012-25.785-17.4-31.563c-2.203-1.707-5.041-1.732-7.406,0.477c-3.127,2.928-5.021,8.717-5.92,12.865
			c-5.182,19.789-20.549,27.258-42.857,27.018c-23.85-0.104-36.484,1.65-43.895-21.867c-2.305-7.226-1.553-9.846-6.912-11.862
			c-0.037-1.054-0.297-9.619-0.314-11.089c3.412-1.23,7.092-3.293,7.24-3.834c2.564-7.684,5.832-13.899,13.15-16.001
			c16.504-4.827,57.193-4.744,77.266,8.385c3.525,2.306,9.23,2.739,13.752-0.125c19.9-12.61,46.988-11.756,67.35-9.823
			c12.418,1.143,17.594,4.495,21.828,17.736c2.021,1.477,4.182,2.639,6.492,3.572c0.262,2.256,0.059,0.521,0.297,2.844
			c0.1-0.161,0.43,0.016,0.359-0.203l-0.406-3.375c-1.482-10.006-4.877-18.757-9.477-26.949c-1.32-0.77-2.32-2.119-2.445-4.051
			c-0.729-11.316,0.787-22.701-0.18-33.993c-0.797-9.315-2.945-18.448-3.76-27.748c-0.33-0.669-0.666-1.335-1.012-1.997
			c-1.57-2.998-3.928-6.961-7.746-5.445c-0.168,0.063-0.342,0.151-0.516,0.242c-1.334,0.146-2.641,0.807-3.605,2.168
			c-4.129,5.82-10.184,10.043-15.467,14.737c-4.961,4.409-8.662,10.149-13.906,14.247c-3.73-1.572-7.551-2.939-11.428-4.107
			c-8.83-2.578-12.828-3.535-15.879-4.113c1.98-4.62,3.584-10.161-0.385-13.248c-5.848-4.543-13.111,0.561-18.9,5.722
			c-1.219-1.556-3.373-2.428-5.297-1.786c-3.08,1.029-5.434,2.687-8.008,4.615c-0.006,0.003-0.012,0.006-0.016,0.01
			c-0.092-0.629-0.193-1.257-0.326-1.883c-0.656-3.115-4.721-4.645-7.346-2.988c-3.75,2.367-6.52,5.246-8.602,9.17
			c-0.639,1.203-1.162,2.51-1.689,3.821c-2.504,0.695-8.313,2.933-13.873,5.077c-5.451-4.296-10.783-8.697-15.525-13.786
			c-4.873-5.226-8.189-11.663-13.25-16.75c-0.064-0.063-0.129-0.116-0.191-0.174c-0.049-0.065-0.1-0.14-0.148-0.203
			c-0.201-0.304-0.422-0.569-0.658-0.796c-1.438-1.6-2.877-2.322-4.416-1.72c-1.092,0.418-1.939,1.27-2.688,2.141
			c-0.117,0.149-0.223,0.304-0.336,0.456c-0.84,4.215-2.143,8.241-3.307,12.458c-1.617,5.865-2.146,11.698-2.848,17.716
			c-1.502,12.87-2.424,25.795-3.943,38.66c-0.084,0.704-0.287,1.325-0.572,1.874c-0.082,0.856-0.441,1.697-0.844,2.442
			c-8.217,15.299-8.961,26.783-9.875,33.688l0.078,8.321l0.322,4.051c0.279,1.332,0.342,2.703,0.551,4.049l0.432,3.17
			c0.549,1.209,0.695,2.541,1.055,3.81c16.436,63.709,102.873,91.387,163.492,53.569c33.363-20.795,38.604-47.199,40.904-52.739
			l0.633-3.08c0.395-2.136,0.76-4.278,1.152-6.414l0.553-3.127l0.066-8.021C411.037,299.282,411.01,303.346,411.021,299.598z
			 M295.59,332.663c7.213,0.084,14.322,1.344,21.52,0.31c5.043-0.726,7.217,6.981,2.127,7.715c-2.604,0.373-5.17,0.498-7.723,0.511
			c-0.131,0.391-0.313,0.767-0.566,1.104c0.006,0.18,0.016,0.359,0.035,0.541c-0.018-0.141-0.037-0.281-0.057-0.423
			c0.098,0.911,0.037,1.734-0.465,2.595c-0.525,0.895-1.393,1.563-2.393,1.838c-1.031,0.283-2.158,0.139-3.082-0.402
			c-0.807-0.473-1.691-1.423-1.838-2.391c-0.17-1.117-0.242-2.061-0.1-3.117c-2.465-0.124-4.943-0.25-7.461-0.279
			C290.434,340.604,290.428,332.604,295.59,332.663z M341.445,372.071c-0.256,0.516-0.539,1.03-0.842,1.542
			c-4.344,11.585-17.754,19.956-29.42,20.998c-8.373,0.746-16.996,0.664-24.158-4.266c-0.123-0.084-0.24-0.176-0.361-0.262
			c-2.223-0.977-4.33-2.077-6.166-2.982c-3.656-1.803-9.117-4.756-11.482-8.691c-0.748-0.585-1.441-1.283-2.047-2.146
			c-1.305-1.851-1.633-3.631-1.273-5.189c0-0.005-0.004-0.01-0.006-0.016c-0.361-1.316,0.076-2.924,1.057-3.947
			c0.021-0.143,0.027-0.279,0.068-0.43c0.189-0.688,0.584-1.309,1.1-1.802c0.109-0.178,0.217-0.356,0.336-0.532
			c0.959-1.4,2.074-2.603,3.324-3.662c0.953-1.09,1.977-2.108,3.025-3.029c2.814-2.467,6.049-4.994,9.727-5.988
			c0.305-0.128,0.646-0.225,1.031-0.279c6.688-0.953,13.396-1.424,20.137-1.771c5.068-0.262,10.66-1.092,15.627,0.416
			c0.016,0.005,0.029,0.011,0.047,0.016c0.414-0.031,0.85-0.021,1.316,0.092c6.699,1.59,17.535,4.754,20.688,11.506
			C345.205,366,343.938,369.286,341.445,372.071z"/>
		<path d="M289.787,285.352c12.801,9.437,2.309,46.311-32.313,48.477l-0.02-0.035c-1.633,0.234-24.482,3.85-35.641-10.039
			c-8.113-9.902-10.449-18.361-7.23-28.757c4.316-12.492,7.789-12.953,13.336-14.179
			C234.889,279.488,272.635,277.445,289.787,285.352z"/>
		<path d="M386.424,280.828c3.871,0.854,6.91,1.361,9.834,6.284c5.527,9.403,5.508,18.065,3.813,28.935
			c-0.092,0.203-0.088,0.428-0.123,0.645c-0.734,1.443-2.055,9.271-20.488,16.187c-8.383,3.054-19.703,1.617-26.35,0.535
			c-20.896-3.396-32.604-12.237-33.873-32.354c-0.494-5.526,0.748-12.289,5.254-15.696c4.949-2.298,10.311-3.554,15.691-4.319
			C350.824,279.501,376.209,278.85,386.424,280.828z"/>
	</g>
</g>
<g>
	<g>
		<path d="M215.583,153.443c-0.073,0.042,1.448,5.077,2.194,7.467c0.746,2.391,1.567,4.891,2.457,7.5
			c0.89,2.608,1.894,5.442,3.011,8.498s2.325,6.709,3.87,10.396c0.352,0.838,0.437,1.555,0.136,2.099s-0.766,0.896-1.399,1.056
			c-0.635,0.16-1.328,0.115-2.088-0.14s-1.399-0.783-1.913-1.572c-5.184-7.957-10.008-16-14.064-24.149
			c-4.056-8.149-7.687-16.423-10.815-24.665c-0.515-1.355-0.561-2.478-0.103-3.356c0.458-0.878,1.18-1.556,2.162-2.029
			c0.98-0.474,2.154-0.758,3.502-0.845c1.348-0.086,2.686,0.018,4.011,0.31c1.324,0.292,2.822,1.053,4.474,2.28
			c1.651,1.229,3.346,2.724,5.072,4.485c1.726,1.761,3.436,3.67,5.128,5.723c1.691,2.052,3.247,4.067,4.674,6.046
			s2.696,3.81,3.812,5.482c1.117,1.675,2.521,3.894,2.521,3.894c0.11-0.028,0.244-4.75,0.291-6.84
			c0.046-2.089,0.063-4.162,0.047-6.22s-0.045-4.214-0.084-6.459s-0.052-4.761-0.023-7.549c0.013-1.328,0.238-2.37,0.678-3.121
			s0.976-1.265,1.601-1.54c1.379-0.608,2.978-1.009,4.773-1.196c1.797-0.188,3.505-0.071,5.103,0.345
			c1.599,0.417,2.966,1.175,4.09,2.274c1.123,1.098,1.732,2.608,1.875,4.507c0.23,3.079,0.491,5.904,0.749,8.457
			c0.258,2.554,0.521,4.99,0.79,7.309c0.269,2.319,0.574,4.604,0.91,6.853c0.337,2.25,0.717,4.624,1.138,7.12
			c0.422,2.498,0.896,5.197,1.427,8.091c0.53,2.892,1.069,6.313,1.914,9.802c0.206,0.851,0.167,1.572-0.218,2.097
			c-0.386,0.525-0.898,0.852-1.547,0.977s-1.321,0.038-2.022-0.257s-1.237-0.856-1.61-1.669c-2.076-4.523-4.063-9.066-5.806-13.595
			c-1.741-4.528-4.81-13.759-4.81-13.759c-0.014,0.001-0.205,1.17-0.358,2.191s-0.358,2.176-0.604,3.466s-0.509,2.639-0.795,4.044
			c-0.286,1.404-0.621,2.72-1.004,3.944c-0.383,1.226-0.802,2.283-1.262,3.177c-0.459,0.894-0.986,1.466-1.596,1.709
			c-0.467,0.187-0.924,0.241-1.367,0.168c-0.446-0.074-0.797-0.384-1.079-0.835c-1.616-2.583-3.457-4.937-4.974-6.944
			s-2.972-3.859-4.357-5.557c-1.387-1.698-2.763-3.3-4.126-4.804S215.583,153.443,215.583,153.443z"/>
		<path d="M253.986,133.884c-0.549-0.453-0.93-0.928-1.137-1.38c-0.206-0.451-0.257-0.886-0.155-1.296s0.293-0.808,0.577-1.189
			c0.285-0.382,0.641-0.737,1.066-1.066c0.723-0.559,1.559-0.981,2.502-1.258c0.945-0.277,2.021-0.08,3.194,0.549
			c0.993,0.533,2.054,1.236,3.137,2.124c1.081,0.886,2.169,1.882,3.265,2.983c1.096,1.103,2.172,2.291,3.221,3.567
			c1.048,1.274,2.992,3.809,2.992,3.809c0.181-0.05,0.736-5.15,1.371-7.293c0.634-2.141,1.479-3.804,2.505-4.986
			c0.644-0.741,1.762-1.235,3.349-1.463c1.585-0.227,3.163-0.197,4.727,0.092c1.562,0.29,2.872,0.825,3.915,1.599
			c1.042,0.773,1.344,1.764,0.958,2.948c-1.07,3.289-1.981,6.396-2.792,9.244c-0.811,2.85-1.509,5.592-2.106,8.227
			c-0.598,2.637-1.098,5.239-1.512,7.807c-0.414,2.568-0.738,5.219-0.977,7.951s-0.389,5.622-0.457,8.665
			c-0.068,3.044-0.203,6.556,0.098,9.942c0.039,0.441-0.101,0.838-0.488,1.131c-0.39,0.293-0.838,0.46-1.355,0.507
			c-0.516,0.047-1.019-0.01-1.514-0.174c-0.496-0.164-0.846-0.477-1.031-0.931c-0.587-1.439-1.15-3.343-1.707-5.681
			s-1.064-4.935-1.516-7.786s-0.851-5.876-1.183-9.073c-0.331-3.196,0.101-7.453-0.608-9.483c-0.559-1.601-2.906-3.693-4.26-5.222
			c-1.354-1.529-2.739-2.979-4.157-4.352c-1.419-1.373-2.932-2.739-4.536-4.092C257.766,136.951,255.921,135.483,253.986,133.884z"
			/>
		<path d="M334.021,144.662c-0.773,0.66-1.507,0.963-2.197,0.832c-0.692-0.131-1.214-0.478-1.566-1.039
			c-0.351-0.56-0.476-1.227-0.369-2.004c0.105-0.775,0.544-1.526,1.32-2.2c1.263-1.096,2.246-2.057,2.848-2.898
			c0.6-0.84,0.941-1.547,1.013-2.113s-0.081-0.974-0.46-1.22c-0.379-0.247-0.917-0.316-1.6-0.222
			c-1.501,0.208-2.984,0.961-4.373,2.286c-1.392,1.327-2.673,2.987-3.835,4.979c-1.163,1.992-2.168,4.259-3.022,6.788
			c-0.854,2.53-1.514,5.109-1.983,7.731c-0.47,2.623-0.742,5.223-0.838,7.789c-0.097,2.568,0.03,4.914,0.377,7.021
			c0.368,2.238,0.857,3.959,1.451,5.152s1.257,1.953,2.003,2.269c0.745,0.315,1.543,0.247,2.404-0.21
			c0.86-0.456,1.735-1.211,2.641-2.254c0.904-1.042,1.814-2.336,2.733-3.881s1.805-3.252,2.63-5.113
			c0.421-0.95,0.966-1.586,1.636-1.893c0.672-0.308,1.287-0.354,1.84-0.137s0.942,0.649,1.173,1.295
			c0.23,0.647,0.115,1.447-0.321,2.396c-1.139,2.475-2.335,4.755-3.588,6.829c-1.255,2.076-2.589,3.84-4.004,5.301
			s-2.945,2.577-4.603,3.343c-1.659,0.768-3.498,1.072-5.527,0.949c-2.657-0.16-4.854-1.143-6.621-2.993
			c-1.769-1.853-3.168-4.222-4.194-7.108c-1.027-2.888-1.689-6.138-1.933-9.76c-0.243-3.621-0.126-7.287,0.41-10.991
			c0.536-3.703,1.506-7.294,2.968-10.76c1.462-3.465,3.339-6.473,5.648-9.013c2.307-2.537,5.042-4.452,8.163-5.725
			c3.123-1.273,6.596-1.631,10.135-0.95c1.247,0.24,2.397,0.655,3.413,1.184c1.016,0.529,1.805,1.23,2.366,2.102
			c0.76,1.177,1.059,2.405,0.913,3.688s-0.569,2.563-1.257,3.839s-1.566,2.492-2.612,3.648
			C336.156,142.755,335.061,143.775,334.021,144.662z"/>
		<path d="M350.912,166.114c-1.396,2.446-2.825,5.051-4.281,7.813c-1.457,2.765-3.09,5.947-4.627,9.456
			c-0.371,0.847-0.896,1.461-1.596,1.776c-0.7,0.316-1.375,0.422-2.031,0.32s-1.191-0.404-1.612-0.914s-0.549-1.183-0.369-2.019
			c1.81-8.433,4.422-16.78,8.079-24.967c3.656-8.186,7.953-16.272,13.06-24.098c1.03-1.579,2.412-2.766,4.124-3.55
			c1.709-0.783,3.408-1.127,5.069-1.032c1.663,0.096,3.099,0.627,4.289,1.585c1.189,0.959,1.778,2.404,1.757,4.317
			c-0.097,8.497-0.907,16.987-2.218,25.389s-3.115,17.294-5.858,25.433c-0.271,0.805-0.826,1.422-1.54,1.797
			c-0.716,0.375-1.405,0.529-2.067,0.463c-0.664-0.066-1.228-0.337-1.691-0.807c-0.466-0.471-0.604-1.152-0.425-2.028
			c0.804-3.916,1.538-7.432,2.271-10.479s1.414-5.886,2.054-8.516C358.321,166.029,355.842,166.04,350.912,166.114z
			 M365.898,144.224c-0.123-0.039-2.583,3.431-3.756,5.013c-1.176,1.584-2.299,3.13-3.375,4.639s-2.1,3.001-3.07,4.477
			c-0.972,1.477-1.935,2.986-2.892,4.528c4.426,0.151,6.642,0.245,11.082,0.477c0.331-1.59,0.644-3.148,0.931-4.681
			c0.286-1.53,0.526-3.064,0.717-4.604c0.19-1.537,0.32-3.118,0.381-4.73S365.898,144.224,365.898,144.224z"/>
		<path d="M382.179,140.6c-0.578-0.385-0.967-0.868-1.164-1.445s-0.229-1.221-0.09-1.935c0.139-0.711,0.44-1.411,0.916-2.09
			c0.476-0.678,1.08-1.279,1.812-1.801c0.731-0.521,1.604-0.911,2.592-1.13c1.457-0.322,3.211-0.469,5.184-0.474
			c1.975-0.005,4.045,0.105,6.198,0.334c2.155,0.229,4.313,0.552,6.469,0.973s4.182,0.879,6.072,1.368
			c1.888,0.489,3.542,0.997,4.966,1.518c1.422,0.521,2.517,0.98,3.153,1.403c0.378,0.251,0.495,0.766,0.326,1.461
			s-0.49,1.401-0.954,2.114c-0.463,0.713-1.003,1.328-1.618,1.843c-0.617,0.516-1.164,0.704-1.605,0.604
			c-3.093-0.695-7.54-1.936-8.557-1.476c-1.403,0.635-3.456,5.354-4.92,7.706c-1.466,2.354-2.837,4.603-4.111,6.745
			c-1.274,2.142-2.515,4.281-3.718,6.412s-2.447,4.374-3.732,6.733s-2.651,4.928-4.093,7.698s-3.205,5.937-4.777,9.322
			c-0.38,0.819-0.909,1.492-1.626,1.895c-0.719,0.402-1.417,0.59-2.107,0.565c-0.689-0.024-1.262-0.248-1.715-0.672
			s-0.573-1.055-0.367-1.889c1.882-7.619,4.093-15.27,6.897-22.811c2.805-7.54,6-15.057,9.726-22.529
			c-2.709,0.031-4.06,0.053-6.75,0.109C383.553,141.168,382.753,140.982,382.179,140.6z"/>
	</g>
</g>
<g>
	<path d="M145.049,465.304c-1.18-7.441-1.791-14.884-1.83-22.326c-0.041-7.441,0.283-14.924,0.977-22.447
		c-0.611-0.081-1.139-0.295-1.586-0.641c-0.447-0.345-0.752-0.904-0.916-1.678c-0.203-1.138-0.184-2.236,0.061-3.294
		c0.244-1.138,0.947-1.982,2.105-2.531s2.49-0.863,3.996-0.945c1.504-0.081,3.049,0,4.635,0.243c1.586,0.244,2.928,0.55,4.027,0.915
		c0.203,0.082,0.445,0.184,0.73,0.306s0.549,0.326,0.793,0.609c0.244,0.285,0.428,0.662,0.549,1.129
		c0.123,0.468,0.162,1.089,0.123,1.86c-0.082,0.773-0.266,1.424-0.549,1.952c-0.285,0.529-0.875,0.834-1.77,0.915
		c-0.447,2.928-0.844,5.603-1.189,8.021c-0.346,2.42-0.67,4.728-0.977,6.924c-0.305,2.195-0.578,4.361-0.822,6.496
		s-0.488,4.402-0.732,6.802s-0.498,4.992-0.762,7.777c-0.266,2.786-0.541,5.907-0.824,9.363c0,0.854-0.285,1.516-0.854,1.982
		c-0.57,0.468-1.221,0.732-1.953,0.793c-0.732,0.062-1.424-0.091-2.074-0.457S145.17,466.118,145.049,465.304z"/>
	<path d="M178.6,423.397c0-0.406,0.029-1.007,0.09-1.8c0.063-0.793,0.031-1.565-0.09-2.318c-0.123-0.752-0.389-1.393-0.793-1.921
		c-0.408-0.528-1.1-0.732-2.074-0.61c-0.488,0.041-0.916,0.274-1.281,0.701c-0.367,0.428-0.52,1.067-0.457,1.922
		c0.061,0.854,0.375,1.922,0.945,3.202c0.568,1.281,1.545,2.816,2.928,4.605c3.66,4.84,6.322,9.222,7.99,13.146
		c1.668,3.925,2.602,7.422,2.807,10.492c0.203,3.071-0.213,5.694-1.25,7.869c-1.037,2.176-2.432,3.945-4.18,5.307
		c-1.748,1.363-3.742,2.298-5.979,2.807s-4.451,0.609-6.648,0.305c-2.195-0.305-4.27-1.007-6.221-2.104
		c-1.953-1.098-3.52-2.582-4.697-4.453c-1.18-1.87-1.861-4.127-2.045-6.771c-0.182-2.644,0.396-5.652,1.738-9.028
		c0.326-0.61,0.844-1.007,1.557-1.189c0.711-0.184,1.434-0.111,2.166,0.214c0.689,0.325,1.189,0.823,1.494,1.494
		s0.295,1.312-0.031,1.921c-1.057,2.034-1.494,3.895-1.311,5.582c0.182,1.688,0.711,3.132,1.586,4.331
		c0.873,1.2,1.982,2.115,3.324,2.745c1.342,0.631,2.684,0.895,4.025,0.793s2.553-0.6,3.631-1.495
		c1.076-0.894,1.768-2.276,2.072-4.147c0.307-1.87,0.123-4.249-0.549-7.137c-0.67-2.888-2.084-6.385-4.238-10.492
		c-0.57-1.099-1.221-2.257-1.953-3.478c-0.732-1.22-1.453-2.47-2.164-3.751c-0.713-1.281-1.363-2.593-1.953-3.935
		s-1.027-2.663-1.311-3.965c-0.285-1.18-0.389-2.379-0.307-3.6c0.082-1.22,0.377-2.327,0.885-3.324
		c0.508-0.996,1.23-1.85,2.166-2.562s2.113-1.149,3.539-1.312c4.27-0.528,7.328,0.061,9.18,1.769
		c1.85,1.708,2.814,4.535,2.896,8.479c0.041,1.627-0.213,2.766-0.762,3.416s-1.17,0.976-1.861,0.976s-1.332-0.264-1.92-0.793
		C178.955,424.76,178.639,424.129,178.6,423.397z"/>
	<path d="M215.197,448.224c-0.813,2.44-1.656,5.033-2.531,7.778c-0.875,2.744-1.799,5.866-2.775,9.363
		c-0.203,0.854-0.65,1.454-1.342,1.799c-0.691,0.346-1.402,0.488-2.135,0.428c-0.732-0.062-1.373-0.325-1.922-0.793
		s-0.803-1.107-0.762-1.922c0.447-8.214,1.666-16.357,3.66-24.431c1.992-8.072,4.371-16.053,7.137-23.942
		c0.568-1.586,1.473-2.815,2.715-3.69c1.24-0.874,2.541-1.331,3.902-1.372c1.363-0.04,2.633,0.346,3.813,1.158
		c1.18,0.814,1.992,2.136,2.441,3.966c1.951,8.134,3.557,16.256,4.818,24.369c1.26,8.113,2.053,16.358,2.379,24.735
		c-0.041,0.814-0.377,1.434-1.006,1.86c-0.631,0.427-1.313,0.641-2.043,0.641c-0.732,0-1.426-0.204-2.074-0.61
		c-0.652-0.405-1.018-1.036-1.1-1.891c-0.406-3.822-0.691-7.218-0.854-10.187s-0.305-5.734-0.426-8.297L215.197,448.224z
		 M223.859,426.142c-0.73,1.79-1.434,3.488-2.104,5.094c-0.672,1.607-1.322,3.172-1.953,4.697c-0.631,1.524-1.23,3.03-1.799,4.514
		c-0.57,1.485-1.139,3-1.707,4.545l10.613-0.427c-0.123-1.546-0.254-3.06-0.396-4.545c-0.143-1.484-0.326-2.968-0.549-4.453
		c-0.225-1.484-0.51-2.998-0.854-4.544C224.764,429.477,224.348,427.85,223.859,426.142z"/>
	<path d="M273.635,449.078c1.18-5.856,2.48-11.58,3.904-17.172c1.424-5.591,2.908-11.233,4.453-16.928
		c0.406-1.504,0.965-2.49,1.678-2.958c0.711-0.467,1.402-0.641,2.074-0.519c0.67,0.122,1.26,0.448,1.77,0.976
		c0.508,0.529,0.74,1.059,0.701,1.587c0,0.731-0.244,1.911-0.732,3.537c-1.262,4.108-2.42,7.921-3.477,11.438
		c-1.059,3.519-2.096,7.057-3.111,10.614c-1.018,3.56-2.035,7.3-3.051,11.225s-2.115,8.347-3.293,13.267
		c-0.326,1.384-0.723,2.34-1.189,2.867c-0.469,0.528-0.967,0.722-1.494,0.58c-0.529-0.143-1.078-0.589-1.648-1.343
		c-0.57-0.752-1.119-1.738-1.646-2.958c-0.814-1.83-1.637-4.035-2.471-6.618c-0.834-2.582-1.678-5.348-2.531-8.296
		s-1.678-5.968-2.471-9.059s-1.516-6.079-2.166-8.968c-0.568,2.563-1.078,5.054-1.523,7.473c-0.449,2.42-0.916,4.941-1.404,7.564
		s-1.027,5.429-1.615,8.418c-0.59,2.989-1.313,6.313-2.166,9.974c-0.285,1.302-0.672,2.257-1.16,2.867
		c-0.486,0.609-1.016,0.924-1.586,0.945c-0.568,0.02-1.158-0.233-1.768-0.763c-0.611-0.528-1.16-1.281-1.648-2.257
		c-0.691-1.382-1.371-3.111-2.043-5.186c-0.67-2.073-1.281-4.147-1.83-6.222s-1.027-4.005-1.434-5.795
		c-0.406-1.789-0.732-3.131-0.975-4.026c-1.059-4.025-2.064-8.041-3.02-12.047c-0.957-4.006-1.883-8.021-2.777-12.048
		c-0.283-1.26-0.273-2.379,0.031-3.355c0.305-0.976,0.793-1.799,1.465-2.47c0.67-0.671,1.453-1.189,2.348-1.556
		s1.799-0.549,2.715-0.549c0.914,0,1.758,0.183,2.531,0.549c0.771,0.366,1.383,0.936,1.83,1.708c0.203,0.366,0.438,1.18,0.701,2.439
		c0.264,1.262,0.559,2.807,0.885,4.637c0.324,1.83,0.66,3.843,1.006,6.039c0.346,2.195,0.691,4.392,1.037,6.588
		c0.346,2.195,0.672,4.311,0.977,6.344c0.305,2.034,0.568,3.803,0.793,5.307c0.223,1.505,0.416,2.645,0.58,3.416
		c0.162,0.773,0.264,1.018,0.305,0.732c0.324-2.603,0.66-5.327,1.006-8.174s0.723-5.673,1.129-8.479
		c0.406-2.806,0.854-5.521,1.342-8.144s1.016-5.012,1.586-7.167c0.082-1.464,0.6-2.663,1.557-3.6
		c0.955-0.935,2.043-1.575,3.262-1.921c1.221-0.346,2.43-0.355,3.631-0.03c1.199,0.325,2.084,0.996,2.652,2.013
		c0.203,0.366,0.438,1.18,0.703,2.439c0.264,1.262,0.559,2.807,0.883,4.637c0.326,1.83,0.65,3.843,0.977,6.039
		c0.326,2.195,0.65,4.392,0.977,6.588c0.324,2.195,0.641,4.311,0.945,6.344c0.305,2.034,0.58,3.803,0.824,5.307
		c0.242,1.505,0.445,2.645,0.609,3.416C273.432,449.119,273.553,449.363,273.635,449.078z"/>
	<path d="M297.912,466.89c-1.383,0.854-2.715,1.139-3.994,0.854c-1.281-0.284-2.268-0.874-2.959-1.77
		c-0.691-0.894-0.996-1.961-0.916-3.202c0.082-1.24,0.793-2.409,2.135-3.508c-0.73-6.344-1.066-12.677-1.006-19.001
		c0.061-6.323,0.375-12.678,0.945-19.063c-0.732-0.325-1.27-0.874-1.615-1.647c-0.346-0.771-0.479-1.596-0.396-2.47
		s0.365-1.718,0.854-2.532c0.488-0.813,1.18-1.402,2.074-1.769c1.098-0.447,2.43-0.783,3.994-1.007
		c1.566-0.223,3.234-0.355,5.002-0.396c1.77-0.04,3.578,0,5.43,0.122c1.85,0.122,3.588,0.285,5.215,0.488
		c1.627,0.204,3.102,0.447,4.424,0.731c1.32,0.285,2.326,0.57,3.02,0.854c0.406,0.204,0.67,0.641,0.793,1.312
		c0.121,0.671,0.141,1.372,0.061,2.104c-0.082,0.731-0.266,1.383-0.549,1.952c-0.285,0.569-0.631,0.834-1.037,0.793
		c-3.133-0.162-5.867-0.214-8.205-0.152c-2.338,0.061-4.605,0.213-6.801,0.457c-0.447,2.684-0.834,5.124-1.16,7.32
		c-0.324,2.195-0.631,4.311-0.914,6.344c1.342,0,2.674,0.061,3.996,0.183c1.32,0.122,2.57,0.285,3.75,0.488
		c1.18,0.204,2.236,0.438,3.174,0.701c0.934,0.266,1.646,0.54,2.135,0.824c0.324,0.163,0.537,0.59,0.641,1.28
		c0.1,0.692,0.121,1.403,0.061,2.136c-0.061,0.731-0.193,1.383-0.396,1.951c-0.205,0.57-0.488,0.814-0.854,0.732
		c-1.547-0.081-2.92-0.122-4.119-0.122s-2.338,0.03-3.416,0.092c-1.078,0.061-2.104,0.163-3.08,0.304
		c-0.977,0.143-1.992,0.294-3.049,0.456c-0.244,2.188-0.488,4.455-0.732,6.805s-0.488,4.982-0.732,7.898
		c1.869-0.121,3.844-0.142,5.918-0.061c2.072,0.082,4.055,0.235,5.947,0.46c1.891,0.227,3.598,0.493,5.123,0.8
		c1.525,0.308,2.674,0.625,3.447,0.952c0.406,0.164,0.67,0.594,0.793,1.291c0.121,0.696,0.141,1.413,0.061,2.151
		c-0.082,0.737-0.266,1.393-0.549,1.965c-0.285,0.574-0.631,0.819-1.037,0.738c-2.318-0.122-4.402-0.184-6.252-0.184
		c-1.852,0-3.6,0.062-5.246,0.184c-1.648,0.121-3.275,0.284-4.881,0.487C301.398,466.423,299.701,466.646,297.912,466.89z"/>
	<path d="M342.504,423.397c0-0.406,0.031-1.007,0.092-1.8s0.031-1.565-0.092-2.318c-0.121-0.752-0.387-1.393-0.793-1.921
		s-1.098-0.732-2.074-0.61c-0.488,0.041-0.914,0.274-1.281,0.701c-0.365,0.428-0.518,1.067-0.457,1.922
		c0.061,0.854,0.375,1.922,0.945,3.202c0.568,1.281,1.545,2.816,2.928,4.605c3.66,4.84,6.324,9.222,7.992,13.146
		c1.666,3.925,2.602,7.422,2.805,10.492c0.203,3.071-0.213,5.694-1.25,7.869c-1.037,2.176-2.43,3.945-4.178,5.307
		c-1.75,1.363-3.742,2.298-5.979,2.807s-4.453,0.609-6.648,0.305c-2.197-0.305-4.271-1.007-6.223-2.104s-3.518-2.582-4.697-4.453
		c-1.178-1.87-1.859-4.127-2.043-6.771s0.396-5.652,1.738-9.028c0.324-0.61,0.844-1.007,1.555-1.189
		c0.711-0.184,1.434-0.111,2.166,0.214c0.691,0.325,1.189,0.823,1.494,1.494s0.295,1.312-0.029,1.921
		c-1.059,2.034-1.494,3.895-1.313,5.582c0.184,1.688,0.711,3.132,1.586,4.331c0.875,1.2,1.982,2.115,3.324,2.745
		c1.344,0.631,2.686,0.895,4.027,0.793s2.551-0.6,3.629-1.495c1.076-0.894,1.77-2.276,2.074-4.147
		c0.305-1.87,0.121-4.249-0.549-7.137c-0.672-2.888-2.084-6.385-4.24-10.492c-0.57-1.099-1.219-2.257-1.951-3.478
		c-0.732-1.22-1.455-2.47-2.166-3.751s-1.363-2.593-1.951-3.935c-0.59-1.342-1.027-2.663-1.313-3.965
		c-0.285-1.18-0.387-2.379-0.305-3.6c0.08-1.22,0.375-2.327,0.885-3.324c0.508-0.996,1.229-1.85,2.166-2.562
		c0.934-0.712,2.113-1.149,3.537-1.312c4.27-0.528,7.33,0.061,9.18,1.769c1.852,1.708,2.816,4.535,2.898,8.479
		c0.039,1.627-0.213,2.766-0.762,3.416c-0.551,0.65-1.17,0.976-1.861,0.976s-1.332-0.264-1.922-0.793
		C342.859,424.76,342.545,424.129,342.504,423.397z"/>
	<path d="M361.168,464.145c-1.627-1.504-2.928-3.446-3.902-5.825c-0.977-2.379-1.658-4.98-2.045-7.808
		c-0.385-2.826-0.477-5.785-0.273-8.876c0.203-3.09,0.67-6.13,1.402-9.119s1.717-5.805,2.959-8.448
		c1.24-2.644,2.715-4.941,4.422-6.894c1.953-2.196,3.965-3.771,6.039-4.728c2.074-0.955,4.057-1.271,5.947-0.945
		c1.891,0.326,3.6,1.322,5.125,2.989c1.523,1.668,2.693,4.025,3.508,7.076c0.771,2.806,1.238,5.938,1.402,9.394
		c0.162,3.457,0.051,6.944-0.336,10.462s-1.027,6.923-1.922,10.217s-2.012,6.161-3.354,8.602c-0.977,1.79-2.197,3.294-3.66,4.514
		c-1.465,1.22-3.051,2.044-4.76,2.471c-1.707,0.427-3.467,0.416-5.275-0.03C364.635,466.748,362.877,465.731,361.168,464.145z
		 M371.111,424.19c-0.977,1.951-1.811,4.188-2.5,6.71c-0.693,2.521-1.211,5.124-1.557,7.808s-0.488,5.338-0.426,7.961
		c0.061,2.622,0.355,4.992,0.883,7.106c0.732,3.05,1.535,5.104,2.41,6.16c0.875,1.059,1.738,1.425,2.594,1.099
		c1.057-0.366,2.002-1.22,2.836-2.563c0.832-1.342,1.564-3.009,2.195-5.002c0.631-1.992,1.148-4.188,1.557-6.588
		c0.404-2.398,0.711-4.85,0.914-7.351s0.283-4.95,0.244-7.351c-0.041-2.398-0.193-4.574-0.457-6.526
		c-0.266-1.952-0.641-3.578-1.129-4.88s-1.088-2.104-1.799-2.41c-0.713-0.305-1.547-0.02-2.502,0.854
		C373.42,420.094,372.332,421.75,371.111,424.19z"/>
	<path d="M400.758,431.449c-0.365,2.521-0.691,4.951-0.977,7.289c-0.285,2.339-0.559,4.789-0.822,7.351
		c-0.266,2.563-0.529,5.348-0.793,8.357c-0.266,3.01-0.561,6.426-0.885,10.248c0,0.854-0.285,1.515-0.854,1.982
		c-0.57,0.468-1.221,0.731-1.953,0.793c-0.732,0.061-1.424-0.081-2.074-0.427s-1.037-0.925-1.158-1.739
		c-1.303-8.174-1.922-16.348-1.861-24.521s0.498-16.349,1.313-24.522c0.121-1.342,0.527-2.389,1.219-3.142
		c0.691-0.752,1.504-1.28,2.441-1.586c0.934-0.305,1.941-0.405,3.02-0.305c1.076,0.102,2.082,0.376,3.02,0.823
		c0.934,0.448,1.85,1.353,2.744,2.715c0.895,1.363,1.748,2.979,2.563,4.85c0.813,1.871,1.586,3.873,2.318,6.008
		c0.73,2.136,1.381,4.22,1.951,6.253c0.568,2.034,1.068,3.904,1.494,5.612c0.428,1.708,0.742,3.029,0.945,3.965
		c0.977-2.318,1.82-4.463,2.531-6.436c0.711-1.972,1.373-3.935,1.982-5.887c0.611-1.952,1.221-3.995,1.83-6.13
		c0.611-2.136,1.303-4.524,2.074-7.168c0.367-1.26,0.824-2.227,1.373-2.897s1.107-1.107,1.678-1.312
		c1.26-0.447,2.633-0.681,4.117-0.701s2.826,0.234,4.025,0.762c1.199,0.529,2.145,1.363,2.838,2.501
		c0.689,1.14,0.893,2.623,0.609,4.453c-0.447,2.97-0.844,5.684-1.189,8.144c-0.346,2.461-0.672,4.81-0.977,7.046
		c-0.305,2.237-0.578,4.443-0.822,6.618c-0.244,2.176-0.488,4.475-0.732,6.894c-0.244,2.42-0.498,5.032-0.764,7.838
		c-0.264,2.807-0.539,5.979-0.822,9.517c0,0.854-0.285,1.515-0.854,1.982c-0.57,0.468-1.221,0.731-1.953,0.793
		c-0.732,0.061-1.424-0.081-2.074-0.427s-1.037-0.925-1.158-1.739c-0.732-4.514-1.242-9.007-1.525-13.48
		c-0.285-4.474-0.406-8.987-0.365-13.542c-0.205,0.406-0.529,1.088-0.977,2.043c-0.447,0.956-0.986,2.034-1.617,3.233
		c-0.631,1.2-1.311,2.45-2.043,3.751c-0.732,1.303-1.494,2.512-2.287,3.63c-0.793,1.119-1.576,2.074-2.35,2.867
		c-0.771,0.793-1.504,1.271-2.195,1.434c-0.529,0.122-0.996,0.122-1.402,0c-0.408-0.122-0.652-0.428-0.732-0.915
		c-0.732-2.685-1.424-5.063-2.074-7.138c-0.65-2.073-1.281-3.995-1.891-5.764c-0.609-1.77-1.23-3.447-1.861-5.033
		S401.49,433.157,400.758,431.449z"/>
	<path d="M444.982,466.89c-1.383,0.854-2.715,1.139-3.994,0.854c-1.281-0.284-2.268-0.874-2.959-1.77
		c-0.691-0.894-0.996-1.961-0.916-3.202c0.082-1.24,0.793-2.409,2.135-3.508c-0.73-6.344-1.066-12.677-1.006-19.001
		c0.061-6.323,0.375-12.678,0.945-19.063c-0.732-0.325-1.27-0.874-1.615-1.647c-0.346-0.771-0.479-1.596-0.396-2.47
		s0.365-1.718,0.854-2.532c0.488-0.813,1.18-1.402,2.074-1.769c1.098-0.447,2.43-0.783,3.994-1.007
		c1.566-0.223,3.234-0.355,5.002-0.396c1.77-0.04,3.578,0,5.43,0.122c1.85,0.122,3.588,0.285,5.215,0.488
		c1.627,0.204,3.102,0.447,4.424,0.731c1.32,0.285,2.326,0.57,3.02,0.854c0.406,0.204,0.67,0.641,0.793,1.312
		c0.121,0.671,0.141,1.372,0.061,2.104c-0.082,0.731-0.266,1.383-0.549,1.952c-0.285,0.569-0.631,0.834-1.037,0.793
		c-3.133-0.162-5.867-0.214-8.205-0.152c-2.338,0.061-4.605,0.213-6.801,0.457c-0.447,2.684-0.834,5.124-1.16,7.32
		c-0.324,2.195-0.631,4.311-0.914,6.344c1.342,0,2.674,0.061,3.996,0.183c1.32,0.122,2.57,0.285,3.75,0.488
		c1.18,0.204,2.236,0.438,3.174,0.701c0.934,0.266,1.646,0.54,2.135,0.824c0.324,0.163,0.537,0.59,0.641,1.28
		c0.1,0.692,0.121,1.403,0.061,2.136c-0.061,0.731-0.193,1.383-0.396,1.951c-0.205,0.57-0.488,0.814-0.854,0.732
		c-1.547-0.081-2.92-0.122-4.119-0.122s-2.338,0.03-3.416,0.092c-1.078,0.061-2.104,0.163-3.08,0.304
		c-0.977,0.143-1.992,0.294-3.049,0.456c-0.244,2.188-0.488,4.455-0.732,6.805s-0.488,4.982-0.732,7.898
		c1.869-0.121,3.844-0.142,5.918-0.061c2.072,0.082,4.055,0.235,5.947,0.46c1.891,0.227,3.598,0.493,5.123,0.8
		c1.525,0.308,2.674,0.625,3.447,0.952c0.406,0.164,0.67,0.594,0.793,1.291c0.121,0.696,0.141,1.413,0.061,2.151
		c-0.082,0.737-0.266,1.393-0.549,1.965c-0.285,0.574-0.631,0.819-1.037,0.738c-2.318-0.122-4.402-0.184-6.252-0.184
		c-1.852,0-3.6,0.062-5.246,0.184c-1.648,0.121-3.275,0.284-4.881,0.487C448.469,466.423,446.771,466.646,444.982,466.89z"/>
</g>
</svg>
