<?xml version="1.0" encoding="utf-8"?>
<!-- Generator: Adobe Illustrator 16.0.0, SVG Export Plug-In . SVG Version: 6.00 Build 0)  -->
<!DOCTYPE svg PUBLIC "-//W3C//DTD SVG 1.0//EN" "http://www.w3.org/TR/2001/REC-SVG-20010904/DTD/svg10.dtd">
<svg version="1.0" id="Calque_1" xmlns="http://www.w3.org/2000/svg" xmlns:xlink="http://www.w3.org/1999/xlink" x="0px" y="0px"
	 width="151.118px" height="134.556px" viewBox="0 0 151.118 134.556" enable-background="new 0 0 151.118 134.556"
	 xml:space="preserve">
<g>
	<g>
		<path fill="#A8A660" d="M57.12,7.88c1.023-2.14,2.186-3.7,3.49-4.677c1.302-0.977,3.302-0.72,6.003,0.768
			c0.837,0.558,1.674,1.07,2.512,1.536c0.837,0.467,1.487,1.141,1.955,2.023c0.464,0.886,0.628,2.143,0.488,3.77
			c-0.139,1.629-0.723,3.838-1.744,6.631c-2.422,6.609-5.632,14.03-9.634,22.266c-4.003,8.237-8.284,16.683-12.843,25.337
			c1.488,3.819,3.047,7.704,4.677,11.657c1.627,3.96,3.373,8.123,5.235,12.497c1.86,4.375,3.861,9.051,6.002,14.029
			c2.14,4.979,4.468,10.401,6.98,16.263c0.929,1.865,1.117,3.7,0.559,5.516c-0.559,1.813-1.465,3.278-2.722,4.396
			c-1.256,1.117-2.701,1.723-4.328,1.815c-1.629,0.092-3.001-0.653-4.119-2.235c-4.746-6.327-9.214-12.819-13.401-19.472
			c-4.188-6.656-8.237-13.474-12.146-20.453c-2.513,4.467-4.98,8.748-7.399,12.845c-2.42,4.095-4.7,7.862-6.84,11.307
			c-2.143,3.444-4.097,6.492-5.863,9.143c-1.77,2.654-3.259,4.771-4.467,6.354c-0.838,1.115-1.978,1.654-3.421,1.604
			c-1.444-0.047-2.722-0.56-3.838-1.535c-1.117-0.979-1.837-2.374-2.164-4.188c-0.325-1.815,0.209-3.929,1.605-6.353
			c4.932-8.746,9.354-16.704,13.262-23.871c3.91-7.167,7.539-14.052,10.89-20.663c-4.376-8.467-8.516-17.005-12.425-25.615
			C9.516,39.967,5.746,31.193,2.117,22.259c-1.303-3.071-1.932-5.63-1.886-7.678c0.048-2.046,0.467-3.745,1.257-5.096
			c0.789-1.348,1.814-2.488,3.07-3.419C5.816,5.136,7.003,4.25,8.12,3.413c1.675-1.208,3.35-2.139,5.026-2.792
			c1.675-0.65,3.326-0.79,4.956-0.419c1.626,0.373,3.21,1.42,4.747,3.142c1.535,1.723,2.953,4.396,4.258,8.027
			c2.418,6.794,4.652,13.007,6.701,18.637c2.045,5.632,4.048,10.958,6.002,15.984c2.698-5.864,5.444-11.866,8.236-18.009
			C50.837,21.84,53.861,15.139,57.12,7.88z"/>
	</g>
	<g>
		<path fill="#A8A660" d="M95.048,0.059c1.56,0,3.049,0.124,4.465,0.366c1.414,0.245,2.731,0.684,3.953,1.318
			c1.219,0.636,2.269,1.489,3.147,2.562c0.878,1.075,1.56,2.44,2.049,4.099c2.537-2.244,5.318-4.074,8.345-5.49
			c3.024-1.414,6.245-2.317,9.662-2.708c4.685-0.487,8.587,0.098,11.712,1.757c3.122,1.661,5.636,4.025,7.539,7.1
			c1.903,3.074,3.243,6.638,4.025,10.687c0.78,4.051,1.172,8.223,1.172,12.517c-0.099,4.881-0.806,9.761-2.123,14.64
			c-1.317,4.881-3.147,9.468-5.49,13.761c-2.342,4.296-5.075,8.198-8.197,11.712c-3.125,3.514-6.565,6.295-10.321,8.345
			c-3.758,2.05-7.736,3.221-11.931,3.514c-4.198,0.292-8.491-0.586-12.883-2.636c-0.685,6.441-1.368,13.348-2.05,20.715
			c-0.684,7.37-1.416,15.884-2.196,25.546c0,2.05-0.684,3.638-2.049,4.758c-1.368,1.123-2.929,1.757-4.685,1.903
			c-1.757,0.146-3.418-0.194-4.978-1.024c-1.563-0.828-2.489-2.219-2.781-4.173c-3.125-19.616-4.611-39.233-4.466-58.851
			c0.146-19.617,1.245-39.234,3.294-58.851c0.293-3.122,0.951-5.49,1.977-7.1s2.219-2.731,3.587-3.367
			c1.365-0.634,2.877-0.975,4.538-1.025C92.022,0.084,93.584,0.059,95.048,0.059z M106.174,34.169
			c-0.977,6.441-1.83,12.469-2.562,18.08c-0.732,5.613-1.441,11.25-2.123,16.909c3.902,0.878,7.367,0,10.394-2.636
			c3.024-2.635,5.563-6.123,7.613-10.467c2.049-4.342,3.562-9.077,4.538-14.201c0.975-5.124,1.317-9.735,1.024-13.834
			c-0.293-3.317-0.805-5.757-1.537-7.32c-0.732-1.56-1.61-2.463-2.635-2.708c-1.025-0.242-2.174,0.073-3.44,0.952
			c-1.27,0.878-2.563,2.1-3.88,3.66c-1.317,1.562-2.612,3.367-3.879,5.417C108.418,30.07,107.247,32.12,106.174,34.169z"/>
	</g>
</g>
</svg>
