<?xml version="1.0" encoding="utf-8"?>
<!-- Generator: Adobe Illustrator 16.0.0, SVG Export Plug-In . SVG Version: 6.00 Build 0)  -->
<!DOCTYPE svg PUBLIC "-//W3C//DTD SVG 1.1//EN" "http://www.w3.org/Graphics/SVG/1.1/DTD/svg11.dtd">
<svg version="1.1" id="Calque_1" xmlns="http://www.w3.org/2000/svg" xmlns:xlink="http://www.w3.org/1999/xlink" x="0px" y="0px"
	 width="38.565px" height="7.366px" viewBox="30.81 124.628 38.565 7.366" enable-background="new 30.81 124.628 38.565 7.366"
	 xml:space="preserve">
<g>
	<g>
		<path d="M32.547,127.258c-0.008-0.04-0.014-0.104-0.021-0.187c-0.007-0.083-0.023-0.162-0.049-0.237
			c-0.026-0.075-0.066-0.136-0.12-0.183c-0.053-0.047-0.134-0.053-0.237-0.024c-0.051,0.014-0.095,0.045-0.127,0.096
			c-0.033,0.051-0.038,0.119-0.016,0.206c0.021,0.086,0.075,0.19,0.16,0.312c0.084,0.121,0.219,0.26,0.397,0.419
			c0.479,0.426,0.837,0.836,1.08,1.212c0.242,0.375,0.397,0.72,0.468,1.032c0.071,0.313,0.068,0.591-0.005,0.831
			c-0.073,0.241-0.19,0.446-0.35,0.616c-0.159,0.17-0.351,0.3-0.573,0.392c-0.224,0.091-0.451,0.141-0.684,0.149
			c-0.232,0.009-0.46-0.024-0.683-0.1c-0.223-0.076-0.414-0.197-0.573-0.366c-0.159-0.168-0.275-0.386-0.346-0.652
			c-0.07-0.268-0.084-0.613,0.008-0.96c0.018-0.066,0.07-0.119,0.142-0.152c0.072-0.033,0.151-0.04,0.234-0.021
			c0.079,0.019,0.142,0.061,0.187,0.123c0.045,0.063,0.055,0.13,0.033,0.198c-0.074,0.228-0.084,0.428-0.033,0.598
			c0.051,0.169,0.134,0.308,0.248,0.413c0.114,0.106,0.247,0.179,0.398,0.219c0.152,0.04,0.296,0.043,0.435,0.008
			c0.138-0.035,0.255-0.107,0.353-0.219c0.097-0.111,0.146-0.266,0.146-0.463c0-0.198-0.061-0.439-0.181-0.724
			c-0.121-0.285-0.333-0.619-0.635-1.001c-0.081-0.102-0.171-0.21-0.271-0.321c-0.101-0.111-0.201-0.226-0.301-0.344
			s-0.194-0.24-0.283-0.366c-0.088-0.126-0.159-0.255-0.215-0.381c-0.051-0.115-0.086-0.237-0.1-0.363
			c-0.014-0.127-0.003-0.246,0.034-0.358c0.038-0.112,0.101-0.214,0.19-0.306c0.09-0.091,0.212-0.159,0.365-0.203
			c0.458-0.134,0.807-0.131,1.039,0.011s0.384,0.417,0.458,0.821c0.031,0.167,0.022,0.288-0.026,0.365
			c-0.048,0.077-0.11,0.121-0.185,0.133c-0.075,0.012-0.149-0.003-0.222-0.047C32.609,127.392,32.562,127.331,32.547,127.258z"/>
		<path d="M37.222,130.715c0.017,0.188-0.03,0.334-0.134,0.431c-0.104,0.096-0.222,0.15-0.354,0.163
			c-0.136,0.014-0.239,0.003-0.311-0.032s-0.124-0.089-0.157-0.159s-0.052-0.15-0.059-0.241c-0.005-0.092-0.011-0.188-0.016-0.29
			c-0.022-0.318-0.033-0.477-0.055-0.795c-0.005-0.072-0.015-0.18-0.03-0.323c-0.015-0.144-0.036-0.291-0.063-0.443
			s-0.062-0.297-0.104-0.432c-0.042-0.136-0.095-0.23-0.158-0.284c-0.063-0.053-0.137-0.053-0.223,0.001
			c-0.086,0.055-0.185,0.194-0.294,0.42c-0.072,0.147-0.145,0.327-0.156,0.491c-0.018,0.252,0.027,0.579,0.054,0.895
			c0.025,0.315,0.056,0.685,0.108,1.086c0.011,0.083-0.003,0.154-0.047,0.21c-0.043,0.056-0.098,0.091-0.163,0.106
			c-0.064,0.017-0.129,0.011-0.193-0.017c-0.064-0.026-0.109-0.078-0.134-0.156c-0.253-0.804-0.439-1.621-0.559-2.445
			c-0.119-0.824-0.201-1.655-0.241-2.494c-0.006-0.132,0.008-0.242,0.042-0.331s0.081-0.159,0.14-0.21
			c0.058-0.052,0.123-0.091,0.192-0.116c0.07-0.025,0.136-0.042,0.199-0.051c0.184-0.026,0.331,0.017,0.44,0.13
			c0.109,0.113,0.165,0.328,0.162,0.638c-0.004,0.346-0.012,0.661-0.017,0.94c-0.005,0.279-0.006,0.81-0.006,0.81
			c0.009,0.003,0.24-0.279,0.382-0.378c0.143-0.099,0.296-0.159,0.458-0.181c0.233-0.031,0.425,0.004,0.576,0.104
			c0.151,0.1,0.272,0.239,0.363,0.416c0.09,0.176,0.158,0.381,0.202,0.612s0.075,0.466,0.093,0.702
			c0.018,0.237,0.03,0.463,0.034,0.679C37.198,130.386,37.209,130.568,37.222,130.715z"/>
		<path d="M38.956,131.027c-0.228,0.019-0.433-0.015-0.609-0.093c-0.176-0.079-0.328-0.191-0.456-0.339
			c-0.127-0.146-0.228-0.319-0.301-0.518c-0.074-0.198-0.122-0.408-0.144-0.629c-0.022-0.222-0.019-0.447,0.011-0.674
			c0.03-0.229,0.09-0.443,0.176-0.646c0.123-0.286,0.284-0.524,0.486-0.71s0.411-0.306,0.627-0.358
			c0.215-0.052,0.423-0.03,0.622,0.068c0.199,0.098,0.359,0.288,0.471,0.565c0.082,0.204,0.131,0.427,0.151,0.666
			c0.02,0.239-0.036,0.52-0.014,0.662c0.009,0.061,0.07,0.179,0.097,0.304c0.026,0.126,0.04,0.259,0.041,0.401
			c0,0.143-0.018,0.287-0.054,0.434c-0.036,0.146-0.098,0.28-0.185,0.403c-0.087,0.124-0.206,0.227-0.356,0.31
			S39.179,131.011,38.956,131.027z M39.725,129.607c-0.051,0.052-0.105,0.078-0.162,0.077c-0.057-0.001-0.104-0.018-0.142-0.05
			c-0.039-0.032-0.06-0.076-0.066-0.131c-0.005-0.055,0.019-0.117,0.069-0.16c0.066-0.056,0.133-0.148,0.169-0.282
			c0.035-0.133,0.052-0.278,0.053-0.436c0-0.158-0.017-0.316-0.052-0.475c-0.035-0.158-0.084-0.29-0.147-0.395
			s-0.139-0.17-0.226-0.198c-0.087-0.028-0.181,0.011-0.281,0.114c-0.12,0.123-0.213,0.286-0.278,0.489
			c-0.064,0.203-0.104,0.419-0.119,0.649s-0.006,0.458,0.024,0.686c0.031,0.226,0.083,0.425,0.153,0.597s0.157,0.304,0.259,0.397
			s0.222,0.116,0.354,0.075c0.065-0.021,0.127-0.06,0.181-0.12s0.102-0.136,0.143-0.226c0.041-0.089,0.07-0.188,0.088-0.299
			c0.018-0.109,0.022-0.225,0.016-0.343C39.747,129.591,39.739,129.597,39.725,129.607z"/>
		<path d="M43.559,127.36c0.049,0.18,0.094,0.338,0.132,0.474s0.073,0.259,0.105,0.37c0.032,0.111,0.063,0.215,0.095,0.313
			c0.031,0.098,0.067,0.201,0.108,0.31c0.04,0.108,0.086,0.226,0.138,0.353c0.052,0.127,0.18,0.439,0.18,0.439
			c0.004,0,0.047-0.241,0.078-0.401c0.031-0.161,0.064-0.334,0.099-0.521c0.035-0.187,0.071-0.376,0.111-0.571
			c0.039-0.195,0.082-0.381,0.126-0.559c0.045-0.178,0.089-0.338,0.132-0.479c0.042-0.142,0.089-0.255,0.132-0.336
			c0.037-0.071,0.091-0.123,0.164-0.146c0.073-0.024,0.143-0.028,0.209-0.011s0.124,0.053,0.17,0.108s0.066,0.128,0.054,0.211
			c-0.016,0.109-0.05,0.254-0.094,0.429c-0.044,0.176-0.099,0.369-0.163,0.582c-0.064,0.212-0.132,0.432-0.204,0.66
			c-0.072,0.228-0.141,0.448-0.209,0.661c-0.069,0.213-0.134,0.41-0.195,0.594s-0.112,0.334-0.146,0.449
			c-0.046,0.151-0.096,0.254-0.156,0.297c-0.06,0.043-0.125,0.05-0.194,0.019c-0.07-0.03-0.142-0.088-0.217-0.173
			c-0.075-0.085-0.15-0.183-0.225-0.294c-0.164-0.244-0.316-0.479-0.456-0.699c-0.141-0.222-0.398-0.702-0.398-0.702
			c-0.005,0-0.039,0.213-0.058,0.315c-0.02,0.104-0.039,0.205-0.06,0.304c-0.029,0.142-0.058,0.291-0.084,0.448
			c-0.026,0.156-0.057,0.302-0.093,0.436c-0.036,0.135-0.081,0.247-0.132,0.338c-0.051,0.091-0.117,0.142-0.197,0.153
			c-0.081,0.013-0.178-0.024-0.293-0.109c-0.115-0.085-0.254-0.242-0.418-0.466c-0.282-0.386-0.534-0.79-0.748-1.212
			s-0.41-0.857-0.587-1.306c-0.035-0.086-0.045-0.165-0.031-0.236s0.04-0.135,0.079-0.192s0.089-0.105,0.147-0.147
			c0.059-0.041,0.116-0.077,0.171-0.107c0.161-0.086,0.305-0.113,0.427-0.08c0.123,0.033,0.22,0.156,0.283,0.367
			c0.08,0.268,0.149,0.511,0.214,0.723c0.064,0.212,0.128,0.417,0.191,0.617s0.133,0.401,0.211,0.605
			c0.078,0.205,0.28,0.685,0.28,0.685c0.014-0.001,0.118-0.514,0.153-0.737c0.035-0.223,0.06-0.438,0.077-0.642
			c0.012-0.136,0.021-0.268,0.026-0.394c0.004-0.125,0.024-0.267,0.015-0.374c-0.007-0.07-0.021-0.155-0.008-0.226
			c0.013-0.071,0.037-0.134,0.074-0.189c0.036-0.056,0.079-0.105,0.129-0.149c0.05-0.043,0.102-0.078,0.153-0.102
			c0.082-0.039,0.159-0.064,0.231-0.078c0.073-0.013,0.138-0.008,0.197,0.014s0.112,0.063,0.159,0.122
			C43.493,127.173,43.53,127.256,43.559,127.36z"/>
		<path d="M45.886,125.249c-0.042-0.048-0.068-0.098-0.079-0.144s-0.007-0.09,0.009-0.13c0.017-0.041,0.041-0.08,0.074-0.117
			c0.033-0.037,0.071-0.071,0.116-0.102c0.075-0.053,0.158-0.092,0.248-0.115c0.089-0.024,0.183,0,0.28,0.069
			c0.081,0.058,0.167,0.133,0.252,0.227c0.085,0.093,0.171,0.198,0.256,0.313s0.168,0.238,0.25,0.37
			c0.081,0.132,0.23,0.394,0.23,0.394c0.019-0.003,0.137-0.515,0.222-0.728c0.085-0.213,0.181-0.377,0.289-0.493
			c0.067-0.072,0.173-0.118,0.32-0.135c0.147-0.018,0.291-0.011,0.431,0.023c0.14,0.033,0.255,0.091,0.345,0.171
			c0.09,0.081,0.111,0.181,0.067,0.299c-0.123,0.329-0.233,0.638-0.336,0.922c-0.102,0.284-0.195,0.558-0.28,0.821
			s-0.163,0.523-0.233,0.78s-0.135,0.522-0.193,0.796c-0.059,0.274-0.112,0.564-0.161,0.87c-0.048,0.306-0.114,0.658-0.13,1
			c-0.002,0.044-0.024,0.084-0.072,0.111c-0.049,0.028-0.103,0.044-0.163,0.047c-0.06,0.004-0.116-0.005-0.169-0.022
			c-0.053-0.019-0.088-0.051-0.101-0.097c-0.042-0.146-0.072-0.34-0.093-0.577c-0.021-0.236-0.033-0.5-0.034-0.788
			c-0.001-0.288,0.006-0.593,0.022-0.916c0.016-0.322,0.125-0.746,0.082-0.955c-0.032-0.156-0.231-0.382-0.338-0.541
			s-0.218-0.311-0.33-0.454c-0.113-0.144-0.232-0.287-0.359-0.43C46.18,125.574,46.035,125.417,45.886,125.249z"/>
		<path d="M50.164,130.502c-0.228-0.009-0.427-0.065-0.593-0.164c-0.166-0.098-0.303-0.229-0.413-0.39
			c-0.109-0.161-0.188-0.344-0.238-0.55c-0.05-0.205-0.072-0.419-0.069-0.642c0.004-0.223,0.034-0.445,0.091-0.668
			c0.056-0.222,0.141-0.43,0.25-0.62c0.155-0.269,0.343-0.487,0.565-0.649c0.223-0.161,0.444-0.255,0.664-0.282
			c0.22-0.026,0.424,0.021,0.609,0.141c0.187,0.12,0.321,0.327,0.4,0.616c0.058,0.211,0.08,0.44,0.072,0.679
			c-0.009,0.239-0.097,0.512-0.091,0.656c0.002,0.061,0.048,0.186,0.061,0.313c0.012,0.128,0.009,0.263-0.008,0.404
			c-0.016,0.142-0.052,0.283-0.104,0.424s-0.13,0.267-0.23,0.379s-0.229,0.2-0.389,0.266
			C50.582,130.479,50.388,130.511,50.164,130.502z M51.094,129.183c-0.058,0.045-0.115,0.064-0.17,0.057
			c-0.057-0.008-0.101-0.029-0.135-0.066c-0.033-0.036-0.051-0.082-0.05-0.137c0.001-0.056,0.031-0.114,0.087-0.151
			c0.072-0.048,0.15-0.132,0.2-0.26c0.051-0.128,0.085-0.271,0.104-0.427c0.019-0.156,0.021-0.315,0.004-0.477
			c-0.017-0.162-0.049-0.298-0.1-0.409s-0.117-0.186-0.201-0.223c-0.083-0.038-0.181-0.01-0.292,0.081
			c-0.133,0.108-0.245,0.26-0.333,0.454s-0.152,0.404-0.194,0.63c-0.042,0.227-0.06,0.454-0.056,0.684
			c0.004,0.229,0.032,0.433,0.082,0.61c0.05,0.179,0.12,0.321,0.21,0.426c0.091,0.105,0.206,0.142,0.342,0.116
			c0.066-0.013,0.133-0.044,0.194-0.099c0.061-0.054,0.116-0.123,0.168-0.206c0.05-0.084,0.092-0.181,0.121-0.287
			c0.03-0.107,0.05-0.221,0.057-0.339C51.117,129.168,51.109,129.172,51.094,129.183z"/>
		<path d="M51.938,127.334c0.014-0.189,0.083-0.326,0.205-0.404c0.121-0.079,0.253-0.109,0.388-0.098
			c0.14,0.011,0.245,0.038,0.313,0.084c0.066,0.047,0.11,0.108,0.132,0.181s0.027,0.156,0.018,0.249
			c-0.011,0.093-0.022,0.19-0.035,0.291c-0.014,0.11-0.027,0.233-0.041,0.368s-0.028,0.277-0.043,0.425
			c-0.007,0.071-0.016,0.18-0.025,0.323s-0.015,0.293-0.015,0.448c0.001,0.154,0.01,0.302,0.027,0.44
			c0.019,0.139,0.053,0.239,0.104,0.303c0.051,0.064,0.122,0.076,0.214,0.038s0.21-0.166,0.357-0.359
			c0.044-0.058,0.09-0.123,0.13-0.198c0.04-0.074,0.104-0.175,0.112-0.249c0.027-0.227-0.055-0.605-0.054-0.919
			c0.002-0.296,0.025-0.545,0.072-0.744s0.109-0.358,0.189-0.478c0.078-0.119,0.167-0.205,0.266-0.257
			c0.098-0.052,0.196-0.08,0.295-0.083c0.098-0.002,0.19,0.013,0.277,0.048c0.086,0.035,0.161,0.077,0.218,0.127
			c0.051,0.044,0.078,0.098,0.084,0.155c0.006,0.057-0.001,0.119-0.021,0.183c-0.021,0.065-0.047,0.132-0.079,0.202
			c-0.033,0.07-0.061,0.139-0.082,0.206c-0.068,0.211-0.131,0.436-0.181,0.67c-0.052,0.235-0.091,0.472-0.117,0.713
			c-0.027,0.24-0.044,0.48-0.049,0.72s0.005,0.472,0.024,0.692c0.005,0.06-0.011,0.111-0.048,0.156s-0.085,0.069-0.145,0.075
			c-0.125,0.01-0.229-0.061-0.315-0.209s-0.221-0.591-0.221-0.591c-0.024-0.005-0.339,0.394-0.543,0.53
			c-0.205,0.138-0.415,0.202-0.632,0.193c-0.226-0.009-0.402-0.073-0.531-0.196c-0.127-0.123-0.222-0.28-0.283-0.471
			c-0.061-0.19-0.096-0.403-0.104-0.639c-0.009-0.235-0.004-0.471,0.014-0.706c0.018-0.234,0.04-0.46,0.068-0.675
			S51.928,127.48,51.938,127.334z"/>
		<path d="M57.447,128.455c-0.056-0.006-0.114-0.017-0.172-0.034c-0.058-0.018-0.108-0.041-0.149-0.07
			c-0.042-0.029-0.072-0.065-0.093-0.107c-0.021-0.042-0.019-0.094-0.004-0.15c0.043-0.169,0.041-0.306,0.014-0.378
			s-0.073-0.11-0.14-0.113c-0.065-0.003-0.144,0.02-0.233,0.067c-0.09,0.049-0.22,0.107-0.261,0.165
			c-0.096,0.133-0.132,0.441-0.186,0.637c-0.054,0.195-0.105,0.395-0.152,0.598s-0.091,0.422-0.132,0.656
			c-0.04,0.235-0.09,0.515-0.119,0.813c-0.006,0.058-0.034,0.104-0.09,0.132c-0.055,0.028-0.115,0.042-0.18,0.044
			c-0.063,0.002-0.124-0.011-0.183-0.041c-0.058-0.028-0.092-0.072-0.101-0.128c-0.091-0.57-0.118-1.137-0.078-1.699
			c0.041-0.562,0.126-1.126,0.247-1.685c0.02-0.091,0.054-0.165,0.103-0.216c0.05-0.052,0.108-0.091,0.172-0.116
			c0.064-0.025,0.133-0.04,0.207-0.043c0.073-0.003,0.14-0.003,0.202,0.001c0.133,0.01,0.241,0.043,0.323,0.1
			c0.083,0.057,0.133,0.251,0.138,0.253c0.023,0.013,0.295-0.148,0.441-0.198c0.146-0.049,0.282-0.069,0.406-0.059
			c0.102,0.008,0.191,0.042,0.269,0.1c0.077,0.057,0.141,0.129,0.19,0.215s0.086,0.182,0.107,0.288s0.032,0.214,0.024,0.318
			c-0.006,0.087-0.016,0.175-0.023,0.26s-0.03,0.159-0.067,0.224c-0.036,0.065-0.091,0.113-0.164,0.145
			C57.691,128.463,57.584,128.469,57.447,128.455z"/>
		<path d="M60.906,127.138c-0.075,0.061-0.146,0.086-0.214,0.067c-0.066-0.019-0.117-0.058-0.15-0.117s-0.045-0.128-0.033-0.206
			c0.011-0.078,0.055-0.149,0.129-0.212c0.122-0.101,0.215-0.191,0.272-0.271c0.057-0.081,0.089-0.15,0.096-0.207
			c0.007-0.057-0.008-0.099-0.042-0.126c-0.036-0.028-0.087-0.039-0.149-0.034c-0.141,0.01-0.279,0.075-0.412,0.198
			c-0.135,0.123-0.261,0.281-0.378,0.473c-0.118,0.191-0.224,0.412-0.317,0.659c-0.094,0.248-0.169,0.501-0.228,0.762
			s-0.1,0.52-0.12,0.777c-0.021,0.257-0.016,0.495,0.014,0.711c0.031,0.229,0.078,0.407,0.141,0.533
			c0.062,0.126,0.134,0.208,0.216,0.248c0.082,0.039,0.17,0.039,0.266,0.001c0.095-0.038,0.191-0.105,0.29-0.203
			c0.099-0.097,0.195-0.22,0.292-0.369c0.096-0.148,0.188-0.313,0.27-0.495c0.042-0.093,0.098-0.152,0.166-0.179
			c0.069-0.025,0.134-0.024,0.191,0.002c0.059,0.026,0.1,0.074,0.127,0.141c0.026,0.067,0.019,0.148-0.023,0.241
			c-0.11,0.241-0.229,0.463-0.358,0.663c-0.129,0.199-0.271,0.367-0.426,0.502s-0.325,0.232-0.514,0.294
			c-0.188,0.062-0.397,0.074-0.628,0.041c-0.304-0.042-0.551-0.164-0.738-0.368c-0.188-0.204-0.326-0.456-0.414-0.756
			c-0.089-0.3-0.129-0.633-0.121-0.998s0.056-0.731,0.143-1.098c0.088-0.366,0.215-0.717,0.384-1.052s0.368-0.621,0.601-0.857
			s0.493-0.407,0.784-0.512c0.291-0.104,0.607-0.116,0.929-0.022c0.113,0.033,0.217,0.083,0.31,0.143s0.166,0.137,0.219,0.229
			c0.07,0.124,0.1,0.251,0.088,0.379c-0.012,0.129-0.049,0.255-0.111,0.38c-0.063,0.125-0.145,0.242-0.243,0.351
			S61.007,127.056,60.906,127.138z"/>
		<path d="M64.427,129.801c-0.061,0.277-0.113,0.565-0.14,0.853c-0.026,0.288-0.036,0.568-0.02,0.834
			c0.003,0.056-0.014,0.104-0.052,0.14c-0.039,0.037-0.089,0.056-0.148,0.054c-0.068-0.002-0.131-0.026-0.187-0.072
			c-0.057-0.045-0.105-0.106-0.146-0.183c-0.043-0.078-0.079-0.169-0.11-0.275c-0.031-0.104-0.078-0.343-0.078-0.343
			c-0.019-0.004-0.305,0.33-0.491,0.45s-0.393,0.175-0.614,0.171c-0.197-0.004-0.355-0.056-0.473-0.162
			c-0.116-0.105-0.204-0.237-0.261-0.397c-0.057-0.159-0.086-0.338-0.088-0.537c-0.002-0.198,0.013-0.394,0.044-0.584
			c0.032-0.19,0.076-0.366,0.132-0.527c0.057-0.162,0.12-0.289,0.189-0.383c0.097-0.128,0.209-0.221,0.337-0.278
			s0.262-0.085,0.401-0.083s0.281,0.032,0.424,0.089c0.144,0.058,0.405,0.236,0.405,0.236c0.006-0.003,0.017-0.097,0.027-0.14
			c0.011-0.044,0.023-0.082,0.037-0.114c0.042-0.096,0.043-0.176,0.005-0.237c-0.037-0.061-0.1-0.108-0.187-0.14
			c-0.087-0.032-0.189-0.053-0.308-0.064c-0.12-0.011-0.239-0.017-0.357-0.019c-0.117-0.001-0.228,0-0.331,0.005
			c-0.104,0.005-0.182,0.006-0.234,0.003c-0.044-0.002-0.082-0.02-0.112-0.054c-0.031-0.034-0.05-0.075-0.052-0.122
			c-0.005-0.11,0.072-0.203,0.225-0.274c0.153-0.071,0.344-0.117,0.573-0.136c0.229-0.02,0.474-0.014,0.732,0.018
			c0.258,0.032,0.491,0.097,0.699,0.193c0.207,0.097,0.368,0.226,0.479,0.388c0.111,0.162,0.132,0.358,0.069,0.587
			c-0.022,0.082-0.052,0.169-0.089,0.257c-0.036,0.088-0.072,0.179-0.109,0.271s-0.073,0.187-0.108,0.282
			C64.475,129.603,64.448,129.703,64.427,129.801z M63.484,129.301c-0.075-0.199-0.458-0.209-0.597,0.138
			c-0.04,0.101-0.075,0.215-0.102,0.342c-0.027,0.126-0.044,0.251-0.053,0.371c-0.009,0.121-0.009,0.232,0.001,0.334
			c0.009,0.102,0.029,0.178,0.059,0.227c0.029,0.05,0.07,0.065,0.123,0.047c0.053-0.018,0.119-0.083,0.196-0.196
			c0.055-0.081,0.116-0.178,0.181-0.288c0.064-0.109,0.153-0.23,0.171-0.308c0.019-0.085-0.005-0.23,0.001-0.341
			C63.471,129.515,63.506,129.357,63.484,129.301z"/>
		<path d="M66.609,127.7c-0.076,0.219-0.147,0.427-0.214,0.624c-0.066,0.197-0.131,0.393-0.191,0.586
			c-0.062,0.193-0.12,0.39-0.178,0.588c-0.058,0.199-0.114,0.413-0.172,0.639c-0.081,0.316-0.126,0.577-0.131,0.78
			s0.013,0.36,0.055,0.471c0.041,0.111,0.099,0.181,0.174,0.209c0.074,0.028,0.149,0.026,0.226-0.008
			c0.075-0.033,0.145-0.094,0.207-0.178c0.063-0.085,0.125-0.201,0.128-0.298c0.001-0.06,0.009-0.124,0.055-0.16
			c0.047-0.037,0.102-0.053,0.162-0.052c0.048,0.002,0.094,0.016,0.137,0.045c0.043,0.03,0.071,0.078,0.079,0.139
			c0.016,0.115-0.009,0.234-0.065,0.347s-0.134,0.212-0.233,0.299s-0.212,0.154-0.338,0.202c-0.127,0.048-0.253,0.067-0.381,0.061
			c-0.128-0.009-0.252-0.05-0.371-0.125c-0.119-0.074-0.219-0.193-0.302-0.355s-0.141-0.376-0.175-0.639
			c-0.034-0.264-0.032-0.588,0.006-0.972c0.04-0.402,0.095-0.797,0.163-1.183c0.069-0.386,0.151-0.771,0.247-1.154
			c-0.279-0.034-0.419-0.05-0.699-0.083c-0.053-0.004-0.096-0.027-0.128-0.068c-0.031-0.042-0.035-0.091-0.028-0.137
			c0.006-0.042,0.024-0.084,0.067-0.111s0.092-0.039,0.146-0.035c0.289,0.049,0.433,0.074,0.722,0.125
			c0.026-0.107,0.054-0.211,0.082-0.312c0.029-0.1,0.06-0.204,0.091-0.31c0.035-0.122,0.081-0.218,0.141-0.286
			s0.125-0.117,0.194-0.147c0.069-0.031,0.142-0.047,0.215-0.047c0.073,0,0.142,0.006,0.204,0.017
			c0.09,0.016,0.168,0.044,0.233,0.086c0.066,0.042,0.115,0.098,0.146,0.167c0.031,0.07,0.043,0.157,0.039,0.259
			s-0.029,0.225-0.078,0.361c-0.025,0.072-0.053,0.142-0.076,0.209s-0.047,0.133-0.072,0.197c0.365,0.065,0.548,0.099,0.913,0.168
			c0.062,0.011,0.104,0.031,0.128,0.06c0.024,0.028,0.034,0.056,0.029,0.083c-0.006,0.027-0.025,0.048-0.06,0.063
			c-0.035,0.015-0.083,0.017-0.146,0.005C67.18,127.776,66.99,127.75,66.609,127.7z"/>
	</g>
</g>
<g>
	<path fill="#010202" d="M37.917,124.664c-0.056,0.043-0.089,0.087-0.117,0.154c-0.048,0.112-0.052,0.245-0.013,0.392
		c0.029,0.108,0.078,0.192,0.148,0.258c0.035,0.033,0.057,0.047,0.096,0.065c0.071,0.032,0.136,0.037,0.196,0.014
		c0.033-0.014,0.054-0.029,0.083-0.062c0.103-0.116,0.136-0.297,0.089-0.484c-0.02-0.077-0.068-0.18-0.111-0.234
		c-0.069-0.089-0.172-0.142-0.269-0.137C37.989,124.63,37.937,124.647,37.917,124.664z"/>
	<path fill="#010202" d="M37.073,125.013c-0.075,0.063-0.112,0.176-0.097,0.293c0.002,0.016,0.011,0.054,0.021,0.084
		c0.055,0.18,0.186,0.334,0.34,0.399c0.062,0.026,0.139,0.039,0.194,0.032c0.079-0.01,0.157-0.089,0.18-0.183
		c0.022-0.09,0.013-0.181-0.029-0.285c-0.025-0.062-0.05-0.108-0.088-0.159c-0.11-0.15-0.252-0.229-0.401-0.224
		C37.156,124.972,37.098,124.993,37.073,125.013z"/>
	<path fill="#010202" d="M38.713,125.145c-0.076,0.05-0.137,0.141-0.163,0.241c-0.026,0.1-0.026,0.201,0,0.312
		c0.015,0.063,0.024,0.086,0.049,0.128c0.039,0.065,0.091,0.114,0.15,0.14c0.041,0.018,0.075,0.023,0.113,0.019
		c0.087-0.01,0.176-0.086,0.228-0.193c0.033-0.069,0.053-0.182,0.048-0.269c-0.005-0.08-0.03-0.175-0.061-0.235
		c-0.028-0.053-0.075-0.105-0.12-0.136c-0.016-0.011-0.058-0.029-0.081-0.036C38.825,125.099,38.764,125.111,38.713,125.145z"/>
	<path fill="#010202" d="M36.894,125.919c-0.085,0.05-0.13,0.136-0.121,0.23c0.008,0.071,0.031,0.141,0.067,0.203
		c0.064,0.111,0.158,0.197,0.268,0.244c0.075,0.032,0.137,0.043,0.213,0.039c0.09-0.006,0.154-0.053,0.186-0.138
		c0.028-0.073,0.025-0.135-0.011-0.235c-0.017-0.045-0.023-0.061-0.044-0.095c-0.065-0.107-0.153-0.183-0.265-0.232
		c-0.076-0.033-0.154-0.049-0.208-0.042C36.955,125.896,36.908,125.911,36.894,125.919z"/>
	<path fill="#010202" d="M37.993,126.009c-0.159,0.088-0.284,0.25-0.331,0.43c-0.04,0.152-0.058,0.301-0.053,0.44
		c0.002,0.093,0.02,0.211,0.037,0.254c0.038,0.096,0.138,0.167,0.235,0.167c0.038,0,0.08-0.01,0.116-0.028
		c0.066-0.032,0.107-0.063,0.211-0.158c0.111-0.102,0.141-0.124,0.215-0.165c0.102-0.056,0.179-0.069,0.362-0.064
		c0.162,0.004,0.196,0,0.254-0.022c0.108-0.043,0.172-0.134,0.164-0.233c-0.003-0.036-0.034-0.115-0.058-0.148
		c-0.059-0.083-0.137-0.16-0.24-0.236c-0.23-0.17-0.388-0.252-0.553-0.288c-0.073-0.016-0.138-0.017-0.206-0.004
		C38.111,125.96,38.026,125.991,37.993,126.009z"/>
</g>
<g>
	<path fill="#010202" d="M69.263,128.834c-0.064-0.03-0.119-0.04-0.19-0.035c-0.122,0.008-0.242,0.063-0.355,0.165
		c-0.084,0.074-0.138,0.155-0.165,0.249c-0.013,0.045-0.017,0.071-0.015,0.114c0.003,0.078,0.028,0.139,0.076,0.181
		c0.026,0.023,0.05,0.035,0.093,0.047c0.149,0.039,0.327-0.012,0.473-0.138c0.059-0.052,0.13-0.143,0.159-0.204
		c0.049-0.102,0.049-0.218,0.001-0.303C69.325,128.884,69.286,128.845,69.263,128.834z"/>
	<path fill="#010202" d="M68.57,128.238c-0.09-0.039-0.207-0.021-0.306,0.045c-0.013,0.009-0.043,0.035-0.065,0.056
		c-0.137,0.131-0.215,0.317-0.203,0.484c0.004,0.066,0.027,0.142,0.059,0.188c0.044,0.066,0.15,0.101,0.244,0.078
		c0.09-0.021,0.167-0.069,0.241-0.153c0.044-0.05,0.074-0.094,0.103-0.151c0.084-0.165,0.092-0.328,0.02-0.458
		C68.644,128.293,68.6,128.251,68.57,128.238z"/>
	<path fill="#010202" d="M69.19,129.763c-0.078-0.045-0.187-0.059-0.288-0.038c-0.102,0.022-0.191,0.067-0.277,0.141
		c-0.05,0.042-0.066,0.061-0.093,0.102c-0.041,0.064-0.061,0.133-0.057,0.197c0.002,0.044,0.013,0.078,0.033,0.109
		c0.049,0.073,0.156,0.118,0.275,0.116c0.077-0.002,0.187-0.034,0.263-0.078c0.068-0.041,0.143-0.105,0.182-0.16
		c0.035-0.049,0.062-0.114,0.068-0.168c0.002-0.019-0.001-0.065-0.005-0.088C69.282,129.842,69.244,129.792,69.19,129.763z"/>
	<path fill="#010202" d="M67.68,128.485c-0.083-0.054-0.18-0.055-0.259-0.004c-0.061,0.039-0.112,0.091-0.152,0.152
		c-0.069,0.106-0.104,0.229-0.097,0.348c0.005,0.082,0.022,0.142,0.061,0.208c0.046,0.078,0.116,0.113,0.207,0.104
		c0.077-0.007,0.131-0.038,0.205-0.115c0.032-0.034,0.044-0.048,0.064-0.082c0.066-0.106,0.096-0.22,0.089-0.342
		c-0.005-0.082-0.026-0.16-0.057-0.204C67.729,128.53,67.694,128.495,67.68,128.485z"/>
	<path fill="#010202" d="M68.095,129.508c-0.15-0.102-0.35-0.141-0.532-0.101c-0.154,0.032-0.295,0.083-0.417,0.149
		c-0.082,0.045-0.181,0.113-0.21,0.147c-0.068,0.077-0.087,0.198-0.044,0.285c0.017,0.034,0.045,0.067,0.077,0.092
		c0.06,0.044,0.105,0.066,0.235,0.116c0.142,0.054,0.176,0.07,0.245,0.119c0.095,0.066,0.142,0.129,0.22,0.294
		c0.069,0.146,0.088,0.176,0.135,0.217c0.087,0.077,0.197,0.094,0.281,0.041c0.03-0.019,0.088-0.082,0.106-0.118
		c0.048-0.091,0.082-0.194,0.103-0.32c0.049-0.282,0.051-0.46,0.008-0.623c-0.019-0.072-0.047-0.131-0.089-0.186
		C68.191,129.592,68.126,129.529,68.095,129.508z"/>
</g>
</svg>
