<?xml version="1.0" encoding="utf-8"?>
<!-- Generator: Adobe Illustrator 16.0.0, SVG Export Plug-In . SVG Version: 6.00 Build 0)  -->
<!DOCTYPE svg PUBLIC "-//W3C//DTD SVG 1.0//EN" "http://www.w3.org/TR/2001/REC-SVG-20010904/DTD/svg10.dtd">
<svg version="1.0" id="SVG_XP" xmlns="http://www.w3.org/2000/svg" xmlns:xlink="http://www.w3.org/1999/xlink" x="0px" y="0px"
	 width="28px" height="28px" viewBox="77.5 77.5 28 28" enable-background="new 77.5 77.5 28 28" xml:space="preserve">
<g>
	<path fill="#2B6290" d="M89.923,85.88c0.089-0.187,0.191-0.323,0.305-0.408c0.114-0.085,0.288-0.063,0.524,0.067
		c0.073,0.049,0.146,0.094,0.219,0.134c0.073,0.041,0.13,0.1,0.17,0.177s0.055,0.187,0.042,0.329
		c-0.012,0.142-0.063,0.335-0.152,0.579c-0.211,0.577-0.491,1.225-0.84,1.943c-0.35,0.719-0.723,1.456-1.121,2.212
		c0.13,0.333,0.266,0.672,0.408,1.017c0.142,0.346,0.294,0.709,0.457,1.09c0.163,0.383,0.337,0.791,0.524,1.226
		c0.187,0.435,0.39,0.907,0.609,1.419c0.081,0.163,0.098,0.323,0.049,0.481s-0.128,0.286-0.238,0.384
		c-0.109,0.098-0.236,0.15-0.378,0.159c-0.142,0.008-0.261-0.058-0.359-0.195c-0.415-0.553-0.805-1.119-1.17-1.7
		c-0.366-0.58-0.719-1.176-1.06-1.785c-0.219,0.39-0.435,0.765-0.646,1.121c-0.211,0.358-0.41,0.687-0.597,0.987
		c-0.187,0.301-0.357,0.566-0.512,0.798s-0.285,0.416-0.39,0.555c-0.073,0.097-0.172,0.144-0.298,0.14s-0.237-0.049-0.335-0.134
		s-0.16-0.207-0.189-0.366c-0.028-0.157,0.018-0.342,0.14-0.554c0.43-0.764,0.816-1.458,1.158-2.084
		c0.341-0.625,0.658-1.227,0.95-1.803c-0.382-0.739-0.743-1.484-1.084-2.236s-0.67-1.517-0.987-2.297
		c-0.114-0.268-0.168-0.491-0.165-0.67c0.004-0.179,0.041-0.327,0.11-0.445s0.158-0.217,0.268-0.298
		c0.11-0.082,0.213-0.159,0.311-0.232c0.146-0.105,0.292-0.187,0.438-0.244c0.146-0.057,0.291-0.069,0.433-0.037
		c0.142,0.033,0.28,0.124,0.414,0.274c0.134,0.15,0.258,0.384,0.372,0.7c0.211,0.593,0.406,1.136,0.585,1.627
		c0.179,0.492,0.354,0.956,0.524,1.395c0.235-0.512,0.475-1.036,0.719-1.572C89.375,87.099,89.639,86.514,89.923,85.88z"/>
	<path fill="#2B6290" d="M93.396,85.417c0.13,0,0.253,0.01,0.372,0.03c0.117,0.021,0.227,0.057,0.328,0.109
		c0.102,0.053,0.188,0.124,0.263,0.213c0.073,0.089,0.129,0.203,0.17,0.341c0.211-0.187,0.442-0.339,0.694-0.457
		s0.52-0.193,0.805-0.225c0.39-0.041,0.715,0.008,0.975,0.146s0.469,0.335,0.627,0.591s0.271,0.553,0.336,0.89
		c0.064,0.337,0.097,0.685,0.097,1.042c-0.008,0.407-0.066,0.813-0.176,1.219c-0.11,0.406-0.263,0.788-0.458,1.145
		c-0.194,0.358-0.422,0.682-0.682,0.975c-0.261,0.292-0.547,0.523-0.859,0.694s-0.644,0.268-0.992,0.293
		c-0.35,0.024-0.708-0.049-1.073-0.22c-0.057,0.536-0.113,1.11-0.17,1.724c-0.057,0.614-0.118,1.322-0.183,2.127
		c0,0.17-0.058,0.302-0.171,0.396c-0.113,0.093-0.244,0.146-0.39,0.158c-0.146,0.013-0.284-0.016-0.414-0.085
		c-0.131-0.068-0.208-0.185-0.232-0.348c-0.26-1.633-0.383-3.265-0.371-4.898c0.012-1.633,0.103-3.265,0.273-4.898
		c0.025-0.26,0.08-0.457,0.165-0.591c0.086-0.134,0.185-0.227,0.299-0.28c0.113-0.053,0.239-0.081,0.377-0.085
		C93.144,85.419,93.273,85.417,93.396,85.417z M94.321,88.256c-0.081,0.536-0.152,1.038-0.213,1.505
		c-0.062,0.467-0.12,0.936-0.177,1.407c0.324,0.073,0.613,0,0.865-0.219c0.251-0.22,0.463-0.51,0.633-0.872
		c0.171-0.361,0.297-0.755,0.378-1.182s0.109-0.81,0.085-1.151c-0.024-0.276-0.066-0.479-0.128-0.609
		c-0.061-0.13-0.134-0.205-0.219-0.225c-0.086-0.021-0.182,0.006-0.286,0.079c-0.106,0.073-0.214,0.175-0.323,0.305
		s-0.218,0.28-0.323,0.451S94.41,88.085,94.321,88.256z"/>
</g>
</svg>
