<?xml version="1.0" encoding="utf-8"?>
<!-- Generator: Adobe Illustrator 16.0.0, SVG Export Plug-In . SVG Version: 6.00 Build 0)  -->
<!DOCTYPE svg PUBLIC "-//W3C//DTD SVG 1.0//EN" "http://www.w3.org/TR/2001/REC-SVG-20010904/DTD/svg10.dtd">
<svg version="1.0" id="SVG-LEVEL" xmlns="http://www.w3.org/2000/svg" xmlns:xlink="http://www.w3.org/1999/xlink" x="0px" y="0px"
	 width="33px" height="28px" viewBox="-2.5 0 33 28" enable-background="new -2.5 0 33 28" xml:space="preserve">
<g>
	<path fill="#2B6290" d="M-1.492,19.533c-0.208,0.024-0.379-0.005-0.511-0.089c-0.132-0.085-0.223-0.195-0.271-0.332
		c-0.048-0.136-0.054-0.284-0.018-0.443c0.036-0.161,0.11-0.301,0.222-0.422c-0.184-1.474-0.264-2.949-0.24-4.425
		c0.024-1.474,0.111-2.949,0.264-4.423c0.024-0.256,0.079-0.45,0.163-0.582c0.084-0.133,0.184-0.225,0.301-0.277
		s0.24-0.079,0.373-0.084C-1.077,8.452-0.951,8.45-0.83,8.45c0.175,0,0.343,0.018,0.499,0.054s0.288,0.105,0.397,0.211
		C0.174,8.818,0.252,8.964,0.3,9.147c0.048,0.184,0.048,0.425,0,0.722c-0.081,0.529-0.153,1.019-0.217,1.467
		c-0.063,0.449-0.124,0.876-0.18,1.28c-0.055,0.404-0.108,0.8-0.156,1.184c-0.048,0.385-0.094,0.784-0.139,1.196
		c-0.044,0.413-0.089,0.851-0.132,1.312c-0.044,0.461-0.09,0.968-0.138,1.521c0.376-0.032,0.779-0.044,1.208-0.037
		C0.975,17.8,1.39,17.82,1.79,17.857c0.4,0.036,0.762,0.082,1.083,0.139c0.319,0.056,0.56,0.111,0.721,0.168
		c0.08,0.031,0.134,0.105,0.163,0.223c0.027,0.116,0.034,0.24,0.018,0.366c-0.016,0.127-0.052,0.243-0.108,0.344
		c-0.057,0.1-0.125,0.146-0.205,0.139c-0.529-0.025-0.996-0.034-1.401-0.031c-0.404,0.004-0.793,0.023-1.167,0.055
		s-0.748,0.072-1.125,0.119S-1.028,19.477-1.492,19.533z"/>
	<path fill="#2B6290" d="M5.444,19.378c-0.273,0.168-0.535,0.225-0.787,0.168c-0.253-0.056-0.448-0.173-0.583-0.349
		c-0.136-0.176-0.196-0.385-0.181-0.632c0.017-0.244,0.157-0.475,0.421-0.69c-0.145-1.252-0.21-2.498-0.198-3.746
		c0.012-1.247,0.074-2.499,0.187-3.757c-0.145-0.064-0.25-0.172-0.319-0.325c-0.067-0.15-0.094-0.313-0.077-0.486
		c0.016-0.172,0.072-0.338,0.169-0.499C4.17,8.901,4.307,8.785,4.483,8.713C4.7,8.625,4.962,8.559,5.27,8.516
		c0.309-0.043,0.638-0.07,0.987-0.078c0.349-0.008,0.705,0,1.07,0.024c0.366,0.023,0.708,0.057,1.027,0.096
		c0.32,0.04,0.611,0.088,0.872,0.145c0.261,0.057,0.458,0.113,0.595,0.168C9.9,8.912,9.953,8.997,9.977,9.129
		c0.024,0.132,0.028,0.271,0.012,0.415C9.974,9.688,9.938,9.817,9.881,9.929c-0.056,0.112-0.125,0.164-0.205,0.156
		c-0.616-0.032-1.157-0.043-1.616-0.031c-0.461,0.012-0.909,0.042-1.341,0.09c-0.088,0.529-0.165,1.01-0.229,1.443
		c-0.064,0.434-0.125,0.849-0.181,1.251c0.265,0,0.527,0.012,0.788,0.037c0.26,0.024,0.507,0.056,0.74,0.096
		c0.232,0.039,0.44,0.086,0.625,0.138c0.184,0.051,0.325,0.105,0.421,0.163c0.063,0.031,0.105,0.116,0.126,0.252
		c0.02,0.136,0.024,0.275,0.012,0.42c-0.012,0.145-0.039,0.273-0.078,0.385c-0.04,0.111-0.097,0.16-0.169,0.145
		C8.471,14.458,8.2,14.45,7.964,14.45c-0.237,0-0.461,0.007-0.673,0.019c-0.212,0.012-0.416,0.031-0.606,0.061
		c-0.193,0.027-0.394,0.057-0.602,0.09c-0.048,0.43-0.096,0.878-0.145,1.341s-0.096,0.981-0.145,1.556
		c0.368-0.023,0.756-0.027,1.166-0.012c0.409,0.017,0.8,0.047,1.172,0.09c0.373,0.045,0.709,0.098,1.01,0.158
		c0.301,0.06,0.527,0.123,0.68,0.188c0.079,0.031,0.132,0.116,0.156,0.254c0.024,0.137,0.027,0.278,0.012,0.424
		c-0.016,0.146-0.052,0.276-0.109,0.388c-0.056,0.112-0.125,0.162-0.204,0.146c-0.457-0.023-0.868-0.035-1.231-0.035
		c-0.366,0-0.709,0.012-1.034,0.035s-0.646,0.057-0.963,0.097C6.132,19.286,5.796,19.329,5.444,19.378z"/>
	<path fill="#2B6290" d="M14.377,14.688c0.104-0.481,0.21-0.948,0.318-1.401c0.109-0.452,0.22-0.903,0.331-1.353
		c0.111-0.449,0.229-0.902,0.354-1.358c0.126-0.456,0.254-0.93,0.392-1.419c0.08-0.296,0.19-0.49,0.331-0.582
		c0.14-0.091,0.276-0.126,0.409-0.102c0.131,0.024,0.249,0.087,0.348,0.193c0.101,0.104,0.147,0.208,0.139,0.312
		c0,0.145-0.049,0.376-0.144,0.698c-0.242,0.802-0.467,1.538-0.675,2.212c-0.209,0.673-0.408,1.354-0.601,2.045
		c-0.201,0.698-0.401,1.43-0.602,2.2c-0.201,0.77-0.417,1.64-0.649,2.608c-0.057,0.231-0.149,0.417-0.277,0.554
		c-0.127,0.136-0.261,0.211-0.396,0.228c-0.088,0.017-0.176-0.035-0.266-0.155c-0.088-0.121-0.17-0.269-0.245-0.446
		c-0.076-0.175-0.147-0.361-0.211-0.559c-0.063-0.195-0.12-0.362-0.169-0.498c-0.209-0.602-0.4-1.222-0.577-1.857
		c-0.177-0.637-0.349-1.285-0.517-1.942c-0.168-0.681-0.331-1.362-0.487-2.043c-0.156-0.681-0.307-1.354-0.451-2.021
		c-0.057-0.248-0.054-0.469,0.006-0.662c0.06-0.192,0.156-0.354,0.289-0.487c0.132-0.132,0.287-0.232,0.463-0.301
		c0.175-0.069,0.354-0.102,0.535-0.102c0.181,0,0.347,0.036,0.5,0.108c0.152,0.072,0.273,0.18,0.361,0.325
		c0.039,0.072,0.086,0.232,0.139,0.48c0.051,0.249,0.109,0.554,0.174,0.914c0.063,0.361,0.127,0.755,0.191,1.185
		c0.066,0.429,0.129,0.859,0.193,1.292s0.127,0.851,0.187,1.251s0.114,0.748,0.162,1.04c0.048,0.294,0.089,0.516,0.12,0.668
		s0.056,0.2,0.072,0.145L14.377,14.688z"/>
	<path fill="#2B6290" d="M18.92,19.378c-0.272,0.168-0.534,0.225-0.787,0.168c-0.252-0.056-0.447-0.173-0.583-0.349
		s-0.196-0.385-0.18-0.632c0.016-0.244,0.154-0.475,0.42-0.69c-0.145-1.252-0.21-2.498-0.198-3.746
		c0.013-1.247,0.074-2.499,0.187-3.757c-0.145-0.064-0.25-0.172-0.319-0.325c-0.068-0.152-0.094-0.314-0.077-0.488
		c0.015-0.172,0.072-0.337,0.168-0.499c0.096-0.161,0.232-0.277,0.409-0.348c0.217-0.088,0.479-0.155,0.787-0.199
		c0.309-0.044,0.638-0.07,0.986-0.079c0.348-0.007,0.705,0,1.07,0.024c0.365,0.024,0.707,0.057,1.028,0.097
		c0.319,0.04,0.61,0.088,0.871,0.144c0.261,0.057,0.458,0.114,0.596,0.169c0.078,0.041,0.133,0.126,0.156,0.258
		c0.023,0.132,0.028,0.271,0.012,0.415c-0.016,0.144-0.052,0.273-0.108,0.385c-0.057,0.111-0.124,0.163-0.204,0.156
		c-0.618-0.032-1.156-0.042-1.616-0.03c-0.463,0.013-0.909,0.043-1.342,0.091c-0.088,0.529-0.164,1.01-0.228,1.443
		c-0.064,0.434-0.126,0.849-0.181,1.251c0.264,0,0.526,0.012,0.787,0.037c0.261,0.024,0.507,0.056,0.739,0.096
		c0.232,0.039,0.44,0.086,0.626,0.138c0.185,0.051,0.326,0.105,0.421,0.163c0.064,0.031,0.106,0.116,0.126,0.252
		c0.021,0.136,0.024,0.275,0.013,0.42c-0.013,0.145-0.039,0.273-0.079,0.385c-0.04,0.111-0.096,0.16-0.168,0.145
		c-0.304-0.016-0.576-0.025-0.812-0.025c-0.237,0-0.46,0.007-0.674,0.019c-0.212,0.012-0.415,0.031-0.606,0.061
		c-0.192,0.027-0.392,0.057-0.602,0.09c-0.047,0.43-0.096,0.878-0.143,1.341c-0.05,0.463-0.097,0.981-0.146,1.556
		c0.368-0.023,0.756-0.027,1.166-0.012c0.408,0.017,0.8,0.047,1.172,0.09c0.372,0.045,0.711,0.098,1.012,0.158
		c0.301,0.06,0.526,0.123,0.679,0.188c0.08,0.031,0.132,0.116,0.156,0.254c0.024,0.137,0.027,0.278,0.013,0.424
		c-0.017,0.146-0.053,0.276-0.109,0.388c-0.056,0.112-0.125,0.162-0.204,0.146c-0.457-0.023-0.868-0.035-1.232-0.035
		c-0.365,0-0.709,0.012-1.033,0.035s-0.646,0.057-0.963,0.097C19.608,19.286,19.272,19.329,18.92,19.378z"/>
	<path fill="#2B6290" d="M25.039,19.533c-0.206,0.024-0.378-0.005-0.51-0.089c-0.133-0.085-0.223-0.195-0.271-0.332
		c-0.049-0.136-0.055-0.284-0.019-0.443c0.036-0.161,0.111-0.301,0.223-0.422c-0.185-1.474-0.265-2.949-0.241-4.425
		c0.025-1.474,0.113-2.949,0.266-4.423c0.023-0.256,0.077-0.451,0.162-0.583s0.184-0.225,0.301-0.276
		c0.116-0.052,0.239-0.08,0.373-0.084c0.132-0.003,0.259-0.006,0.379-0.006c0.176,0,0.343,0.018,0.499,0.054
		c0.156,0.037,0.288,0.106,0.396,0.211c0.108,0.104,0.188,0.249,0.234,0.433c0.049,0.184,0.049,0.424,0,0.722
		c-0.08,0.529-0.153,1.018-0.217,1.467s-0.124,0.875-0.181,1.28c-0.054,0.404-0.107,0.8-0.155,1.183
		c-0.049,0.385-0.094,0.785-0.138,1.197c-0.045,0.413-0.09,0.851-0.133,1.311c-0.045,0.46-0.091,0.968-0.139,1.52
		c0.377-0.03,0.779-0.042,1.208-0.035c0.429,0.009,0.844,0.03,1.244,0.066s0.763,0.082,1.083,0.138
		c0.319,0.057,0.561,0.112,0.721,0.17c0.08,0.03,0.134,0.105,0.164,0.222c0.026,0.116,0.032,0.238,0.018,0.366
		c-0.016,0.128-0.054,0.243-0.109,0.343c-0.057,0.101-0.125,0.147-0.205,0.138c-0.528-0.023-0.995-0.033-1.399-0.029
		s-0.794,0.022-1.168,0.054c-0.372,0.032-0.747,0.072-1.124,0.121C25.925,19.425,25.506,19.477,25.039,19.533z"/>
</g>
</svg>
